<?xml version="1.0" encoding="UTF-8" standalone="no"?>
<svg
   xmlns:dc="http://purl.org/dc/elements/1.1/"
   xmlns:cc="http://creativecommons.org/ns#"
   xmlns:rdf="http://www.w3.org/1999/02/22-rdf-syntax-ns#"
   xmlns:svg="http://www.w3.org/2000/svg"
   xmlns="http://www.w3.org/2000/svg"
   xmlns:sodipodi="http://sodipodi.sourceforge.net/DTD/sodipodi-0.dtd"
   xmlns:inkscape="http://www.inkscape.org/namespaces/inkscape"
   inkscape:version="1.0 (4035a4fb49, 2020-05-01)"
   sodipodi:docname="disk-usage.svg"
   viewBox="0 0 921 537"
   height="537"
   width="921"
   xml:space="preserve"
   id="svg10"
   version="1.1"><metadata
     id="metadata16"><rdf:RDF><cc:Work
         rdf:about=""><dc:format>image/svg+xml</dc:format><dc:type
           rdf:resource="http://purl.org/dc/dcmitype/StillImage" /><dc:title></dc:title></cc:Work></rdf:RDF></metadata><defs
     id="defs14"><clipPath
       id="clipPath36"
       clipPathUnits="userSpaceOnUse"><path
         id="path34"
         clip-rule="evenodd"
         d="m 50.88,104.64 h 690.24 v 402.6 H 50.88 Z" /></clipPath><clipPath
       id="clipPath48"
       clipPathUnits="userSpaceOnUse"><path
         id="path46"
         clip-rule="evenodd"
         d="m 50.88,104.64 h 690.24 v 402.6 H 50.88 Z" /></clipPath><clipPath
       id="clipPath60"
       clipPathUnits="userSpaceOnUse"><path
         id="path58"
         clip-rule="evenodd"
         d="m 50.88,104.64 h 690.24 v 402.6 H 50.88 Z" /></clipPath><clipPath
       id="clipPath72"
       clipPathUnits="userSpaceOnUse"><path
         id="path70"
         clip-rule="evenodd"
         d="m 50.88,104.64 h 690.24 v 402.6 H 50.88 Z" /></clipPath><clipPath
       id="clipPath84"
       clipPathUnits="userSpaceOnUse"><path
         id="path82"
         clip-rule="evenodd"
         d="m 50.88,104.64 h 690.24 v 402.6 H 50.88 Z" /></clipPath><clipPath
       id="clipPath96"
       clipPathUnits="userSpaceOnUse"><path
         id="path94"
         clip-rule="evenodd"
         d="m 50.88,104.64 h 690.24 v 402.6 H 50.88 Z" /></clipPath><clipPath
       id="clipPath108"
       clipPathUnits="userSpaceOnUse"><path
         id="path106"
         clip-rule="evenodd"
         d="m 50.88,104.64 h 690.24 v 402.6 H 50.88 Z" /></clipPath><clipPath
       id="clipPath120"
       clipPathUnits="userSpaceOnUse"><path
         id="path118"
         clip-rule="evenodd"
         d="m 50.88,104.64 h 690.24 v 402.6 H 50.88 Z" /></clipPath><clipPath
       id="clipPath132"
       clipPathUnits="userSpaceOnUse"><path
         id="path130"
         clip-rule="evenodd"
         d="m 50.88,104.64 h 690.24 v 402.6 H 50.88 Z" /></clipPath><clipPath
       id="clipPath144"
       clipPathUnits="userSpaceOnUse"><path
         id="path142"
         clip-rule="evenodd"
         d="m 50.88,104.64 h 690.24 v 402.6 H 50.88 Z" /></clipPath><clipPath
       id="clipPath156"
       clipPathUnits="userSpaceOnUse"><path
         id="path154"
         clip-rule="evenodd"
         d="m 50.88,104.64 h 690.24 v 402.6 H 50.88 Z" /></clipPath><clipPath
       id="clipPath168"
       clipPathUnits="userSpaceOnUse"><path
         id="path166"
         clip-rule="evenodd"
         d="m 50.88,104.64 h 690.24 v 402.6 H 50.88 Z" /></clipPath><clipPath
       id="clipPath180"
       clipPathUnits="userSpaceOnUse"><path
         id="path178"
         clip-rule="evenodd"
         d="m 50.88,104.64 h 690.24 v 402.6 H 50.88 Z" /></clipPath><clipPath
       id="clipPath192"
       clipPathUnits="userSpaceOnUse"><path
         id="path190"
         clip-rule="evenodd"
         d="m 50.88,104.64 h 690.24 v 402.6 H 50.88 Z" /></clipPath><clipPath
       id="clipPath204"
       clipPathUnits="userSpaceOnUse"><path
         id="path202"
         clip-rule="evenodd"
         d="m 50.88,104.64 h 690.24 v 402.6 H 50.88 Z" /></clipPath><clipPath
       id="clipPath216"
       clipPathUnits="userSpaceOnUse"><path
         id="path214"
         clip-rule="evenodd"
         d="m 50.88,104.64 h 690.24 v 402.6 H 50.88 Z" /></clipPath><clipPath
       id="clipPath230"
       clipPathUnits="userSpaceOnUse"><path
         id="path228"
         clip-rule="evenodd"
         d="m 50.88,104.64 h 690.24 v 402.6 H 50.88 Z" /></clipPath><clipPath
       id="clipPath244"
       clipPathUnits="userSpaceOnUse"><path
         id="path242"
         clip-rule="evenodd"
         d="m 50.88,104.64 h 690.24 v 402.6 H 50.88 Z" /></clipPath><clipPath
       id="clipPath256"
       clipPathUnits="userSpaceOnUse"><path
         id="path254"
         clip-rule="evenodd"
         d="M 50.4,104.16 H 741.6 V 507.84 H 50.4 Z" /></clipPath></defs><sodipodi:namedview
     inkscape:current-layer="g18"
     inkscape:window-maximized="1"
     inkscape:window-y="-7"
     inkscape:window-x="-7"
     inkscape:cy="396.71616"
     inkscape:cx="528"
     inkscape:zoom="1.122549"
     showgrid="false"
     id="namedview12"
     inkscape:window-height="1130"
     inkscape:window-width="1920"
     inkscape:pageshadow="2"
     inkscape:pageopacity="0"
     guidetolerance="10"
     gridtolerance="10"
     objecttolerance="10"
     borderopacity="1"
     bordercolor="#666666"
     pagecolor="#ffffff" /><g
     transform="matrix(1.3333333,0,0,-1.3333333,0,816)"
     inkscape:label="disk-usage"
     inkscape:groupmode="layer"
     id="g18"><path
       id="path20"
       style="fill:#ffffff;fill-opacity:1;fill-rule:evenodd;stroke:none"
       d="m 0,209.44002 h 690.17 v 402.56 H 0 Z" /><path
       id="path22"
       style="fill:none;stroke:#d9d9d9;stroke-width:0.91993;stroke-linecap:butt;stroke-linejoin:round;stroke-miterlimit:10;stroke-dasharray:none;stroke-opacity:1"
       d="m 203.708,566.51002 v -300.56 m 66.68,300.56 v -300.56 m 66.82,300.56 v -300.56 m 66.83,300.56 v -300.56 m 66.67,300.56 v -300.56 m 66.83,300.56 v -300.56 m 66.82,300.56 v -300.56 m 66.73,300.56 v -300.56" /><path
       id="path24"
       style="fill:#4472c4;fill-opacity:1;fill-rule:nonzero;stroke:none"
       d="m 191.498,277.88002 h -54.6 v 13.1 h 54.6 z m -54.32,50.05 h -0.28 v 13.1 h 0.28 z m 7.07,50.19 h -7.35 v 13.1 h 7.35 z m 6.18,50.04 h -13.53 v 13.1 h 13.53 z m 420.81,50.05 h -434.34 v 13.1 h 434.34 z m 5.01,50.19 h -439.35 v 13.1 h 439.35 z" /><path
       id="path26"
       style="fill:#ed7d31;fill-opacity:1;fill-rule:nonzero;stroke:none"
       d="m 227.558,290.98002 h -90.66 v 13.1 h 90.66 z m -85.08,50.05 h -5.58 v 13.25 h 5.58 z m 29.73,50.19 h -35.31 v 13.1 h 35.31 z m 405.22,100.09 h -440.53 v 13.25 h 440.53 z m 5,50.19 h -445.53 v 13.1 h 445.53 z" /><path
       id="path28"
       style="fill:none;stroke:#d9d9d9;stroke-width:0.91993;stroke-linecap:butt;stroke-linejoin:round;stroke-miterlimit:10;stroke-dasharray:none;stroke-opacity:1"
       d="m 136.898,265.95002 v 300.56" /><g
       transform="translate(-51.012,104.84002)"
       id="g30"><g
         clip-path="url(#clipPath36)"
         id="g32"><text
           id="text40"
           style="font-variant:normal;font-weight:normal;font-size:11.04px;font-family:Calibri;-inkscape-font-specification:Calibri;writing-mode:lr-tb;fill:#595959;fill-opacity:1;fill-rule:nonzero;stroke:none"
           transform="matrix(1,0,0,-1,185.14,143.57)"><tspan
             id="tspan38"
             y="0"
             x="0">0</tspan></text></g></g><g
       transform="translate(-51.012,104.84002)"
       id="g42"><g
         clip-path="url(#clipPath48)"
         id="g44"><text
           id="text52"
           style="font-variant:normal;font-weight:normal;font-size:11.04px;font-family:Calibri;-inkscape-font-specification:Calibri;writing-mode:lr-tb;fill:#595959;fill-opacity:1;fill-rule:nonzero;stroke:none"
           transform="matrix(1,0,0,-1,249.12,143.57)"><tspan
             id="tspan50"
             sodipodi:role="line"
             y="0"
             x="0 5.592">10</tspan></text></g></g><g
       transform="translate(-51.012,104.84002)"
       id="g54"><g
         clip-path="url(#clipPath60)"
         id="g56"><text
           id="text64"
           style="font-variant:normal;font-weight:normal;font-size:11.04px;font-family:Calibri;-inkscape-font-specification:Calibri;writing-mode:lr-tb;fill:#595959;fill-opacity:1;fill-rule:nonzero;stroke:none"
           transform="matrix(1,0,0,-1,315.91,143.57)"><tspan
             id="tspan62"
             sodipodi:role="line"
             y="0"
             x="0 5.592">20</tspan></text></g></g><g
       transform="translate(-51.012,104.84002)"
       id="g66"><g
         clip-path="url(#clipPath72)"
         id="g68"><text
           id="text76"
           style="font-variant:normal;font-weight:normal;font-size:11.04px;font-family:Calibri;-inkscape-font-specification:Calibri;writing-mode:lr-tb;fill:#595959;fill-opacity:1;fill-rule:nonzero;stroke:none"
           transform="matrix(1,0,0,-1,382.7,143.57)"><tspan
             id="tspan74"
             sodipodi:role="line"
             y="0"
             x="0 5.592">30</tspan></text></g></g><g
       transform="translate(-51.012,104.84002)"
       id="g78"><g
         clip-path="url(#clipPath84)"
         id="g80"><text
           id="text88"
           style="font-variant:normal;font-weight:normal;font-size:11.04px;font-family:Calibri;-inkscape-font-specification:Calibri;writing-mode:lr-tb;fill:#595959;fill-opacity:1;fill-rule:nonzero;stroke:none"
           transform="matrix(1,0,0,-1,449.47,143.57)"><tspan
             id="tspan86"
             sodipodi:role="line"
             y="0"
             x="0 5.592">40</tspan></text></g></g><g
       transform="translate(-51.012,104.84002)"
       id="g90"><g
         clip-path="url(#clipPath96)"
         id="g92"><text
           id="text100"
           style="font-variant:normal;font-weight:normal;font-size:11.04px;font-family:Calibri;-inkscape-font-specification:Calibri;writing-mode:lr-tb;fill:#595959;fill-opacity:1;fill-rule:nonzero;stroke:none"
           transform="matrix(1,0,0,-1,516.26,143.57)"><tspan
             id="tspan98"
             sodipodi:role="line"
             y="0"
             x="0 5.592">50</tspan></text></g></g><g
       transform="translate(-51.012,104.84002)"
       id="g102"><g
         clip-path="url(#clipPath108)"
         id="g104"><text
           id="text112"
           style="font-variant:normal;font-weight:normal;font-size:11.04px;font-family:Calibri;-inkscape-font-specification:Calibri;writing-mode:lr-tb;fill:#595959;fill-opacity:1;fill-rule:nonzero;stroke:none"
           transform="matrix(1,0,0,-1,583.03,143.57)"><tspan
             id="tspan110"
             sodipodi:role="line"
             y="0"
             x="0 5.592">60</tspan></text></g></g><g
       transform="translate(-51.012,104.84002)"
       id="g114"><g
         clip-path="url(#clipPath120)"
         id="g116"><text
           id="text124"
           style="font-variant:normal;font-weight:normal;font-size:11.04px;font-family:Calibri;-inkscape-font-specification:Calibri;writing-mode:lr-tb;fill:#595959;fill-opacity:1;fill-rule:nonzero;stroke:none"
           transform="matrix(1,0,0,-1,649.82,143.57)"><tspan
             id="tspan122"
             sodipodi:role="line"
             y="0"
             x="0 5.592">70</tspan></text></g></g><g
       transform="translate(-51.012,104.84002)"
       id="g126"><g
         clip-path="url(#clipPath132)"
         id="g128"><text
           id="text136"
           style="font-variant:normal;font-weight:normal;font-size:11.04px;font-family:Calibri;-inkscape-font-specification:Calibri;writing-mode:lr-tb;fill:#595959;fill-opacity:1;fill-rule:nonzero;stroke:none"
           transform="matrix(1,0,0,-1,716.62,143.57)"><tspan
             id="tspan134"
             sodipodi:role="line"
             y="0"
             x="0 5.592">80</tspan></text></g></g><g
       transform="translate(-51.012,104.84002)"
       id="g138"><g
         clip-path="url(#clipPath144)"
         id="g140"><text
           id="text148"
           style="font-variant:normal;font-weight:normal;font-size:11.04px;font-family:Calibri;-inkscape-font-specification:Calibri;writing-mode:lr-tb;fill:#595959;fill-opacity:1;fill-rule:nonzero;stroke:none"
           transform="matrix(1,0,0,-1,58.992,182.98)"><tspan
             id="tspan146"
             sodipodi:role="line"
             y="0"
             x="0 3.52176 8.8099203 13.83312 19.121281 24.155519 28.847521 32.700481 35.184479 41.057758 44.756161 47.251202 52.671841 55.166882 61.956478 67.388161 73.261436 78.704163 84.577438 90.318237 95.760963 101.63424 106.19376 108.84336 114.28608">JavaScript + Dependencies</tspan></text></g></g><g
       transform="translate(-51.012,104.84002)"
       id="g150"><g
         clip-path="url(#clipPath156)"
         id="g152"><text
           id="text160"
           style="font-variant:normal;font-weight:normal;font-size:11.064px;font-family:Calibri;-inkscape-font-specification:Calibri;writing-mode:lr-tb;fill:#595959;fill-opacity:1;fill-rule:nonzero;stroke:none"
           transform="matrix(1,0,0,-1,107.42,233.09)"><tspan
             id="tspan158"
             sodipodi:role="line"
             y="0"
             x="0 3.5294161 8.829072 13.83 19.129656 24.163776 28.843847 32.705185 35.205647 41.069569 44.742817 47.243279 56.702999 62.002655 64.469925">JavaScript Main</tspan></text></g></g><g
       transform="translate(-51.012,104.84002)"
       id="g162"><g
         clip-path="url(#clipPath168)"
         id="g164"><text
           id="text172"
           style="font-variant:normal;font-weight:normal;font-size:11.04px;font-family:Calibri;-inkscape-font-specification:Calibri;writing-mode:lr-tb;fill:#595959;fill-opacity:1;fill-rule:nonzero;stroke:none"
           transform="matrix(1,0,0,-1,88.704,283.18)"><tspan
             id="tspan170"
             sodipodi:role="line"
             y="0"
             x="0 3.52176 8.8099203 13.8 19.121281 24.111361 28.80336 32.623199 35.11824 40.99152 44.689919 47.184959 53.03616 58.622398 64.363197 70.236481 75.679199 79.499039 84.941757">JavaScript Renderer</tspan></text></g></g><g
       transform="translate(-51.012,104.84002)"
       id="g174"><g
         clip-path="url(#clipPath180)"
         id="g176"><text
           id="text184"
           style="font-variant:normal;font-weight:normal;font-size:11.04px;font-family:Calibri;-inkscape-font-specification:Calibri;writing-mode:lr-tb;fill:#595959;fill-opacity:1;fill-rule:nonzero;stroke:none"
           transform="matrix(1,0,0,-1,112.22,333.29)"><tspan
             id="tspan182"
             sodipodi:role="line"
             y="0"
             x="0 6.0388799 8.5339203 14.27472 19.56288 23.548321 28.41696 30.912001 37.381439 43.122238 49.017601 52.39584 59.627041">Binary Add-On</tspan></text></g></g><g
       transform="translate(-51.012,104.84002)"
       id="g186"><g
         clip-path="url(#clipPath192)"
         id="g188"><text
           id="text196"
           style="font-variant:normal;font-weight:normal;font-size:11.04px;font-family:Calibri;-inkscape-font-specification:Calibri;writing-mode:lr-tb;fill:#595959;fill-opacity:1;fill-rule:nonzero;stroke:none"
           transform="matrix(1,0,0,-1,109.46,383.38)"><tspan
             id="tspan194"
             sodipodi:role="line"
             y="0"
             x="0 5.4316802 7.9267201 13.36944 18.06144 21.75984 25.54656 31.41984 37.160641 39.655682 45.661442 48.200642 54.040798 59.1744 63.12672">Electron Binary</tspan></text></g></g><g
       transform="translate(-51.012,104.84002)"
       id="g198"><g
         clip-path="url(#clipPath204)"
         id="g200"><text
           id="text208"
           style="font-variant:normal;font-weight:normal;font-size:11.04px;font-family:Calibri;-inkscape-font-specification:Calibri;writing-mode:lr-tb;fill:#595959;fill-opacity:1;fill-rule:nonzero;stroke:none"
           transform="matrix(1,0,0,-1,63.96,433.49)"><tspan
             id="tspan206"
             sodipodi:role="line"
             y="0"
             x="0 5.4316802 7.9267201 13.36944 18.06144 21.75984 25.54656 31.41984 37.160641 39.655682 45.661442 48.200642 54.040798 59.19648 63.1488 68.149918 70.644958 73.879677 76.661758 82.535042 86.807518 90.50592 95.794083 98.278084 100.77312 106.35936 110.1792">Electron Binary (Installer)</tspan></text></g></g><g
       transform="translate(-51.012,104.84002)"
       id="g210"><g
         clip-path="url(#clipPath216)"
         id="g212"><text
           id="text220"
           style="font-variant:normal;font-weight:normal;font-size:17.232px;font-family:Calibri;-inkscape-font-specification:Calibri;writing-mode:lr-tb;fill:#595959;fill-opacity:1;fill-rule:nonzero;stroke:none"
           transform="matrix(1,0,0,-1,312.6,481.61)"><tspan
             id="tspan218"
             sodipodi:role="line"
             y="0"
             x="0 10.59768 14.56104 21.350449 29.191008 32.964817 44.02776 50.765472 59.0196 66.94632 75.527855 79.163811 84.316177 99.049538 107.57938 115.38548 123.6396 132.87595 140.80267 146.40308 154.9846 161.72232">Disk Usage (MegaBytes)</tspan></text></g></g><path
       id="path222"
       style="fill:#ed7d31;fill-opacity:1;fill-rule:evenodd;stroke:none"
       d="m 293.868,224.12002 h 6.0634 v 6.0634 h -6.0634 z" /><g
       transform="translate(-51.012,104.84002)"
       id="g224"><g
         clip-path="url(#clipPath230)"
         id="g226"><text
           id="text234"
           style="font-variant:normal;font-weight:normal;font-size:11.04px;font-family:Calibri;-inkscape-font-specification:Calibri;writing-mode:lr-tb;fill:#595959;fill-opacity:1;fill-rule:nonzero;stroke:none"
           transform="matrix(1,0,0,-1,353.57,119.11)"><tspan
             id="tspan232"
             sodipodi:role="line"
             y="0"
             x="0 3.52176 8.8099203 13.83312 19.121281 24.155519 28.847521 32.667358 35.162399 41.035679">JavaScript</tspan></text></g></g><path
       id="path236"
       style="fill:#4472c4;fill-opacity:1;fill-rule:evenodd;stroke:none"
       d="m 357.598,224.12002 h 6.0634 v 6.0634 h -6.0634 z" /><g
       transform="translate(-51.012,104.84002)"
       id="g238"><g
         clip-path="url(#clipPath244)"
         id="g240"><text
           id="text248"
           style="font-variant:normal;font-weight:normal;font-size:11.04px;font-family:Calibri;-inkscape-font-specification:Calibri;writing-mode:lr-tb;fill:#595959;fill-opacity:1;fill-rule:nonzero;stroke:none"
           transform="matrix(1,0,0,-1,417.31,119.11)"><tspan
             id="tspan246"
             sodipodi:role="line"
             y="0"
             x="0 6.3148799 12.18816 17.928961 21.307199 28.6488">Add-On</tspan></text></g></g></g></svg>
