<svg version="1.1" xmlns="http://www.w3.org/2000/svg" xmlns:xlink="http://www.w3.org/1999/xlink" width="1010" height="452"><defs/><g><g transform="translate(-6,1) scale(1,1)"><rect fill="#C0C0C0" stroke="none" x="33" y="16" width="708" height="432" opacity="0.2"/></g><g transform="translate(-6,1) scale(1,1)"><rect fill="#e4e3e3" stroke="none" x="26" y="9" width="708" height="432"/></g><g transform="translate(-6,1) scale(1,1)"><path fill="none" stroke="#000000" d="M 26 9 L 734 9 L 734 441 L 26 441 L 26 9 Z Z" stroke-miterlimit="10"/></g><g transform="translate(-6,1) scale(1,1)"><rect fill="#e4e3e3" stroke="none" x="16" y="16" width="20" height="10"/></g><g transform="translate(-6,1) scale(1,1)"><path fill="none" stroke="#000000" d="M 16 16 L 36 16 L 36 26 L 16 26 L 16 16 Z Z" stroke-miterlimit="10"/></g><g transform="translate(-6,1) scale(1,1)"><rect fill="#e4e3e3" stroke="none" x="16" y="36" width="20" height="10"/></g><g transform="translate(-6,1) scale(1,1)"><path fill="none" stroke="#000000" d="M 16 36 L 36 36 L 36 46 L 16 46 L 16 36 Z Z" stroke-miterlimit="10"/></g><g transform="translate(-6,1) scale(1,1)"><g><path fill="none" stroke="none"/><text fill="#000000" stroke="none" font-family="Arial" font-size="13px" font-style="normal" font-weight="bold" text-decoration="none" x="354.655029296875" y="28.5">Electron.js</text></g></g><g transform="translate(-6,1) scale(1,1)"><rect fill="#C0C0C0" stroke="none" x="81" y="72" width="268" height="144" opacity="0.2"/></g><g transform="translate(-6,1) scale(1,1)"><rect fill="#84a9ac" stroke="none" x="74" y="65" width="268" height="144"/></g><g transform="translate(-6,1) scale(1,1)"><path fill="none" stroke="#000000" d="M 74 65 L 342 65 L 342 209 L 74 209 L 74 65 Z Z" stroke-miterlimit="10"/></g><g transform="translate(-6,1) scale(1,1)"><rect fill="#84a9ac" stroke="none" x="64" y="72" width="20" height="10"/></g><g transform="translate(-6,1) scale(1,1)"><path fill="none" stroke="#000000" d="M 64 72 L 84 72 L 84 82 L 64 82 L 64 72 Z Z" stroke-miterlimit="10"/></g><g transform="translate(-6,1) scale(1,1)"><rect fill="#84a9ac" stroke="none" x="64" y="92" width="20" height="10"/></g><g transform="translate(-6,1) scale(1,1)"><path fill="none" stroke="#000000" d="M 64 92 L 84 92 L 84 102 L 64 102 L 64 92 Z Z" stroke-miterlimit="10"/></g><g transform="translate(-6,1) scale(1,1)"><g><path fill="none" stroke="none"/><text fill="#000000" stroke="none" font-family="Arial" font-size="13px" font-style="normal" font-weight="bold" text-decoration="none" x="150.148681640625" y="84.5">Renderer - Chromium</text></g></g><g transform="translate(-6,1) scale(1,1)"><rect fill="#C0C0C0" stroke="none" x="89" y="272" width="260" height="159" opacity="0.2"/></g><g transform="translate(-6,1) scale(1,1)"><rect fill="#3b6978" stroke="none" x="82" y="265" width="260" height="159"/></g><g transform="translate(-6,1) scale(1,1)"><path fill="none" stroke="#000000" d="M 82 265 L 342 265 L 342 424 L 82 424 L 82 265 Z Z" stroke-miterlimit="10"/></g><g transform="translate(-6,1) scale(1,1)"><rect fill="#3b6978" stroke="none" x="72" y="272" width="20" height="10"/></g><g transform="translate(-6,1) scale(1,1)"><path fill="none" stroke="#000000" d="M 72 272 L 92 272 L 92 282 L 72 282 L 72 272 Z Z" stroke-miterlimit="10"/></g><g transform="translate(-6,1) scale(1,1)"><rect fill="#3b6978" stroke="none" x="72" y="292" width="20" height="10"/></g><g transform="translate(-6,1) scale(1,1)"><path fill="none" stroke="#000000" d="M 72 292 L 92 292 L 92 302 L 72 302 L 72 292 Z Z" stroke-miterlimit="10"/></g><g transform="translate(-6,1) scale(1,1)"><g><path fill="none" stroke="none"/><text fill="#ffffff" stroke="none" font-family="Arial" font-size="13px" font-style="normal" font-weight="bold" text-decoration="none" x="175.095947265625" y="284.5">Main - Node.js</text></g></g><g transform="translate(-6,1) scale(1,1)"><rect fill="#C0C0C0" stroke="none" x="117" y="168" width="85.57177734375" height="24" opacity="0.2"/></g><g transform="translate(-6,1) scale(1,1)"><rect fill="#74aeb2" stroke="none" x="110" y="161" width="85.57177734375" height="24"/></g><g transform="translate(-6,1) scale(1,1)"><path fill="none" stroke="#000000" d="M 110 161 L 195.57177734375 161 L 195.57177734375 185 L 110 185 L 110 161 Z Z" stroke-miterlimit="10"/></g><g transform="translate(-6,1) scale(1,1)"><rect fill="#74aeb2" stroke="none" x="110" y="161" width="85.57177734375" height="24"/></g><g transform="translate(-6,1) scale(1,1)"><path fill="none" stroke="#000000" d="M 110 161 L 195.57177734375 161 L 195.57177734375 185 L 110 185 L 110 161 Z Z" stroke-miterlimit="10"/></g><g transform="translate(-6,1) scale(1,1)"><g><path fill="none" stroke="none"/><text fill="#000000" stroke="none" font-family="Arial" font-size="13px" font-style="normal" font-weight="bold" text-decoration="none" x="116.655029296875" y="180.5">Redux Store</text><path fill="none" stroke="#000000" d="M 191.07177734375 180.5 L 114.5 180.5" stroke-miterlimit="10"/></g></g><g transform="translate(-6,1) scale(1,1)"><rect fill="#C0C0C0" stroke="none" x="117" y="376" width="85.57177734375" height="24" opacity="0.2"/></g><g transform="translate(-6,1) scale(1,1)"><rect fill="#3b7a8e" stroke="none" x="110" y="369" width="85.57177734375" height="24"/></g><g transform="translate(-6,1) scale(1,1)"><path fill="none" stroke="#000000" d="M 110 369 L 195.57177734375 369 L 195.57177734375 393 L 110 393 L 110 369 Z Z" stroke-miterlimit="10"/></g><g transform="translate(-6,1) scale(1,1)"><rect fill="#3b7a8e" stroke="none" x="110" y="369" width="85.57177734375" height="24"/></g><g transform="translate(-6,1) scale(1,1)"><path fill="none" stroke="#000000" d="M 110 369 L 195.57177734375 369 L 195.57177734375 393 L 110 393 L 110 369 Z Z" stroke-miterlimit="10"/></g><g transform="translate(-6,1) scale(1,1)"><g><path fill="none" stroke="none"/><text fill="#ffffff" stroke="none" font-family="Arial" font-size="13px" font-style="normal" font-weight="bold" text-decoration="none" x="116.655029296875" y="388.5">Redux Store</text><path fill="none" stroke="#ffffff" d="M 191.07177734375 388.5 L 114.5 388.5" stroke-miterlimit="10"/></g></g><g transform="translate(-6,1) scale(1,1)"><path fill="none" stroke="#000000" d="M 152 368 L 152 186" stroke-miterlimit="10"/></g><g transform="translate(-6,1) scale(1,1)"><path fill="none" stroke="#000000" d="M 156.209517756016 196.16267485762415 L 152 186 L 147.790482243984 196.16267485762415" stroke-miterlimit="10"/></g><g transform="translate(-6,1) scale(1,1)"><path fill="none" stroke="#000000" d="M 152 186 L 152 368" stroke-miterlimit="10"/></g><g transform="translate(-6,1) scale(1,1)"><path fill="none" stroke="#000000" d="M 147.790482243984 357.83732514237585 L 152 368 L 156.209517756016 357.83732514237585" stroke-miterlimit="10"/></g><g transform="translate(-6,1) scale(1,1)"><g><path fill="none" stroke="none"/><text fill="#000000" stroke="none" font-family="Arial" font-size="13px" font-style="normal" font-weight="normal" text-decoration="none" x="155.5" y="245.5">+ipc</text></g></g><g transform="translate(-6,1) scale(1,1)"><rect fill="#C0C0C0" stroke="none" x="263" y="168" width="56.68359375" height="24" opacity="0.2"/></g><g transform="translate(-6,1) scale(1,1)"><rect fill="#74aeb2" stroke="none" x="256" y="161" width="56.68359375" height="24"/></g><g transform="translate(-6,1) scale(1,1)"><path fill="none" stroke="#000000" d="M 256 161 L 312.68359375 161 L 312.68359375 185 L 256 185 L 256 161 Z Z" stroke-miterlimit="10"/></g><g transform="translate(-6,1) scale(1,1)"><rect fill="#74aeb2" stroke="none" x="256" y="161" width="56.68359375" height="24"/></g><g transform="translate(-6,1) scale(1,1)"><path fill="none" stroke="#000000" d="M 256 161 L 312.68359375 161 L 312.68359375 185 L 256 185 L 256 161 Z Z" stroke-miterlimit="10"/></g><g transform="translate(-6,1) scale(1,1)"><g><path fill="none" stroke="none"/><text fill="#000000" stroke="none" font-family="Arial" font-size="13px" font-style="normal" font-weight="bold" text-decoration="none" x="267.36181640625" y="180.5">React</text><path fill="none" stroke="#000000" d="M 302.04541015625 180.5 L 266.63818359375 180.5" stroke-miterlimit="10"/></g></g><g transform="translate(-6,1) scale(1,1)"><path fill="none" stroke="#000000" d="M 152 186 L 152 368" stroke-miterlimit="10"/></g><g transform="translate(-6,1) scale(1,1)"><path fill="none" stroke="#000000" d="M 147.790482243984 357.83732514237585 L 152 368 L 156.209517756016 357.83732514237585" stroke-miterlimit="10"/></g><g transform="translate(-6,1) scale(1,1)"><path fill="#C0C0C0" stroke="none" d="M 850.639501953125 367 L 878.079501953125 367 L 889.839501953125 378.76 L 889.839501953125 416 L 850.639501953125 416" opacity="0.2"/></g><g transform="translate(-6,1) scale(1,1)"><path fill="#ffffff" stroke="none" d="M 843.639501953125 360 L 871.079501953125 360 L 882.839501953125 371.76 L 882.839501953125 409 L 843.639501953125 409"/></g><g transform="translate(-6,1) scale(1,1)"><path fill="none" stroke="#000000" d="M 843.639501953125 360 L 871.079501953125 360 L 882.839501953125 371.76 L 882.839501953125 409 L 843.639501953125 409 L 843.639501953125 360" stroke-miterlimit="10"/></g><g transform="translate(-6,1) scale(1,1)"><path fill="none" stroke="#000000" d="M 871.079501953125 360 L 871.079501953125 371.76 L 882.839501953125 371.76 L 871.079501953125 360" stroke-miterlimit="10"/></g><g transform="translate(-6,1) scale(1,1)"><g><path fill="none" stroke="none"/><text fill="#000000" stroke="none" font-family="Arial" font-size="13px" font-style="normal" font-weight="bold" text-decoration="none" x="832.53271484375" y="428.5">SQLite DB</text><path fill="none" stroke="#000000" d="M 895.380859375 428.5 L 831.09814453125 428.5" stroke-miterlimit="10"/></g></g><g transform="translate(-6,1) scale(1,1)"><rect fill="#C0C0C0" stroke="none" x="807" y="191" width="206" height="128" opacity="0.2"/></g><g transform="translate(-6,1) scale(1,1)"><rect fill="#e0684d" stroke="none" x="800" y="184" width="206" height="128"/></g><g transform="translate(-6,1) scale(1,1)"><path fill="none" stroke="#000000" d="M 800 184 L 1006 184 L 1006 312 L 800 312 L 800 184 Z Z" stroke-miterlimit="10"/></g><g transform="translate(-6,1) scale(1,1)"><rect fill="#e0684d" stroke="none" x="790" y="191" width="20" height="10"/></g><g transform="translate(-6,1) scale(1,1)"><path fill="none" stroke="#000000" d="M 790 191 L 810 191 L 810 201 L 790 201 L 790 191 Z Z" stroke-miterlimit="10"/></g><g transform="translate(-6,1) scale(1,1)"><rect fill="#e0684d" stroke="none" x="790" y="211" width="20" height="10"/></g><g transform="translate(-6,1) scale(1,1)"><path fill="none" stroke="#000000" d="M 790 211 L 810 211 L 810 221 L 790 221 L 790 211 Z Z" stroke-miterlimit="10"/></g><g transform="translate(-6,1) scale(1,1)"><g><path fill="none" stroke="none"/><text fill="#000000" stroke="none" font-family="Arial" font-size="13px" font-style="normal" font-weight="bold" text-decoration="none" x="878.740478515625" y="203.5">Rust Core</text></g></g><g transform="translate(-6,1) scale(1,1)"><rect fill="#C0C0C0" stroke="none" x="245" y="375" width="56.68359375" height="24" opacity="0.2"/></g><g transform="translate(-6,1) scale(1,1)"><rect fill="#3b7a8e" stroke="none" x="238" y="368" width="56.68359375" height="24"/></g><g transform="translate(-6,1) scale(1,1)"><path fill="none" stroke="#000000" d="M 238 368 L 294.68359375 368 L 294.68359375 392 L 238 392 L 238 368 Z Z" stroke-miterlimit="10"/></g><g transform="translate(-6,1) scale(1,1)"><rect fill="#3b7a8e" stroke="none" x="238" y="368" width="56.68359375" height="24"/></g><g transform="translate(-6,1) scale(1,1)"><path fill="none" stroke="#000000" d="M 238 368 L 294.68359375 368 L 294.68359375 392 L 238 392 L 238 368 Z Z" stroke-miterlimit="10"/></g><g transform="translate(-6,1) scale(1,1)"><g><path fill="none" stroke="none"/><text fill="#ffffff" stroke="none" font-family="Arial" font-size="13px" font-style="normal" font-weight="bold" text-decoration="none" x="247.911376953125" y="387.5">Sagas</text><path fill="none" stroke="#ffffff" d="M 285.49267578125 387.5 L 247.19091796875 387.5" stroke-miterlimit="10"/></g></g><g transform="translate(-6,1) scale(1,1)"><path fill="none" stroke="#000000" d="M 197 381 L 237 380" stroke-miterlimit="10" stroke-dasharray="3"/></g><g transform="translate(-6,1) scale(1,1)"><path fill="none" stroke="#000000" d="M 226.94570456282133 384.4621904107656 L 237 380 L 226.73529441792007 376.0457846147159" stroke-miterlimit="10"/></g><g transform="translate(-6,1) scale(1,1)"><g><path fill="none" stroke="none"/><text fill="#000000" stroke="none" font-family="Arial" font-size="13px" font-style="normal" font-weight="normal" text-decoration="none" x="845" y="250">Business Logic,</text><text fill="#000000" stroke="none" font-family="Arial" font-size="13px" font-style="normal" font-weight="normal" text-decoration="none" x="845" y="263">Schema management</text></g></g><g transform="translate(-6,1) scale(1,1)"><rect fill="#C0C0C0" stroke="none" x="385" y="271" width="278" height="159" opacity="0.2"/></g><g transform="translate(-6,1) scale(1,1)"><rect fill="#204051" stroke="none" x="378" y="264" width="278" height="159"/></g><g transform="translate(-6,1) scale(1,1)"><path fill="none" stroke="#000000" d="M 378 264 L 656 264 L 656 423 L 378 423 L 378 264 Z Z" stroke-miterlimit="10"/></g><g transform="translate(-6,1) scale(1,1)"><rect fill="#204051" stroke="none" x="368" y="271" width="20" height="10"/></g><g transform="translate(-6,1) scale(1,1)"><path fill="none" stroke="#000000" d="M 368 271 L 388 271 L 388 281 L 368 281 L 368 271 Z Z" stroke-miterlimit="10"/></g><g transform="translate(-6,1) scale(1,1)"><rect fill="#204051" stroke="none" x="368" y="291" width="20" height="10"/></g><g transform="translate(-6,1) scale(1,1)"><path fill="none" stroke="#000000" d="M 368 291 L 388 291 L 388 301 L 368 301 L 368 291 Z Z" stroke-miterlimit="10"/></g><g transform="translate(-6,1) scale(1,1)"><g><path fill="none" stroke="none"/><text fill="#ffffff" stroke="none" font-family="Arial" font-size="13px" font-style="normal" font-weight="bold" text-decoration="none" x="480.578369140625" y="283.5">WebAssembly</text></g></g><g transform="translate(-6,1) scale(1,1)"><rect fill="#C0C0C0" stroke="none" x="479" y="375" width="110.86083984375" height="24" opacity="0.2"/></g><g transform="translate(-6,1) scale(1,1)"><rect fill="#255b77" stroke="none" x="472" y="368" width="110.86083984375" height="24"/></g><g transform="translate(-6,1) scale(1,1)"><path fill="none" stroke="#000000" d="M 472 368 L 582.86083984375 368 L 582.86083984375 392 L 472 392 L 472 368 Z Z" stroke-miterlimit="10"/></g><g transform="translate(-6,1) scale(1,1)"><rect fill="#255b77" stroke="none" x="472" y="368" width="110.86083984375" height="24"/></g><g transform="translate(-6,1) scale(1,1)"><path fill="none" stroke="#000000" d="M 472 368 L 582.86083984375 368 L 582.86083984375 392 L 472 392 L 472 368 Z Z" stroke-miterlimit="10"/></g><g transform="translate(-6,1) scale(1,1)"><g><path fill="none" stroke="none"/><text fill="#ffffff" stroke="none" font-family="Arial" font-size="13px" font-style="normal" font-weight="bold" text-decoration="none" x="490.947265625" y="387.5">wasm binary</text><path fill="none" stroke="#ffffff" d="M 566.80810546875 387.5 L 488.052734375 387.5" stroke-miterlimit="10"/></g></g><g transform="translate(-6,1) scale(1,1)"><path fill="none" stroke="#000000" d="M 564 367 L 789 287" stroke-miterlimit="10" stroke-dasharray="3"/></g><g transform="translate(-6,1) scale(1,1)"><path fill="none" stroke="#000000" d="M 780.834807601046 294.37086379524567 L 789 287 L 778.0143493121861 286.43832485782735" stroke-miterlimit="10"/></g><g transform="translate(-6,1) scale(1,1)"><path fill="none" stroke="#000000" d="M 584 383 L 805 394" stroke-miterlimit="10"/></g><g transform="translate(-6,1) scale(1,1)"><path fill="none" stroke="#000000" d="M 296 380 L 471 380" stroke-miterlimit="10" stroke-dasharray="3"/></g><g transform="translate(-6,1) scale(1,1)"><path fill="none" stroke="#000000" d="M 460.83732514237585 384.209517756016 L 471 380 L 460.83732514237585 375.790482243984" stroke-miterlimit="10"/></g></g></svg>
