<svg version="1.1" xmlns="http://www.w3.org/2000/svg" xmlns:xlink="http://www.w3.org/1999/xlink" width="1010" height="452"><defs/><g><g transform="translate(-8,1) scale(1,1)"><rect fill="#C0C0C0" stroke="none" x="35" y="16" width="708" height="432" opacity="0.2"/></g><g transform="translate(-8,1) scale(1,1)"><rect fill="#e4e3e3" stroke="none" x="28" y="9" width="708" height="432"/></g><g transform="translate(-8,1) scale(1,1)"><path fill="none" stroke="#000000" d="M 28 9 L 736 9 L 736 441 L 28 441 L 28 9 Z Z" stroke-miterlimit="10"/></g><g transform="translate(-8,1) scale(1,1)"><rect fill="#e4e3e3" stroke="none" x="18" y="16" width="20" height="10"/></g><g transform="translate(-8,1) scale(1,1)"><path fill="none" stroke="#000000" d="M 18 16 L 38 16 L 38 26 L 18 26 L 18 16 Z Z" stroke-miterlimit="10"/></g><g transform="translate(-8,1) scale(1,1)"><rect fill="#e4e3e3" stroke="none" x="18" y="36" width="20" height="10"/></g><g transform="translate(-8,1) scale(1,1)"><path fill="none" stroke="#000000" d="M 18 36 L 38 36 L 38 46 L 18 46 L 18 36 Z Z" stroke-miterlimit="10"/></g><g transform="translate(-8,1) scale(1,1)"><g><path fill="none" stroke="none"/><text fill="#000000" stroke="none" font-family="Arial" font-size="13px" font-style="normal" font-weight="bold" text-decoration="none" x="356.655029296875" y="28.5">Electron.js</text></g></g><g transform="translate(-8,1) scale(1,1)"><rect fill="#C0C0C0" stroke="none" x="83" y="72" width="268" height="144" opacity="0.2"/></g><g transform="translate(-8,1) scale(1,1)"><rect fill="#84a9ac" stroke="none" x="76" y="65" width="268" height="144"/></g><g transform="translate(-8,1) scale(1,1)"><path fill="none" stroke="#000000" d="M 76 65 L 344 65 L 344 209 L 76 209 L 76 65 Z Z" stroke-miterlimit="10"/></g><g transform="translate(-8,1) scale(1,1)"><rect fill="#84a9ac" stroke="none" x="66" y="72" width="20" height="10"/></g><g transform="translate(-8,1) scale(1,1)"><path fill="none" stroke="#000000" d="M 66 72 L 86 72 L 86 82 L 66 82 L 66 72 Z Z" stroke-miterlimit="10"/></g><g transform="translate(-8,1) scale(1,1)"><rect fill="#84a9ac" stroke="none" x="66" y="92" width="20" height="10"/></g><g transform="translate(-8,1) scale(1,1)"><path fill="none" stroke="#000000" d="M 66 92 L 86 92 L 86 102 L 66 102 L 66 92 Z Z" stroke-miterlimit="10"/></g><g transform="translate(-8,1) scale(1,1)"><g><path fill="none" stroke="none"/><text fill="#000000" stroke="none" font-family="Arial" font-size="13px" font-style="normal" font-weight="bold" text-decoration="none" x="152.148681640625" y="84.5">Renderer - Chromium</text></g></g><g transform="translate(-8,1) scale(1,1)"><rect fill="#C0C0C0" stroke="none" x="91" y="272" width="260" height="159" opacity="0.2"/></g><g transform="translate(-8,1) scale(1,1)"><rect fill="#3b6978" stroke="none" x="84" y="265" width="260" height="159"/></g><g transform="translate(-8,1) scale(1,1)"><path fill="none" stroke="#000000" d="M 84 265 L 344 265 L 344 424 L 84 424 L 84 265 Z Z" stroke-miterlimit="10"/></g><g transform="translate(-8,1) scale(1,1)"><rect fill="#3b6978" stroke="none" x="74" y="272" width="20" height="10"/></g><g transform="translate(-8,1) scale(1,1)"><path fill="none" stroke="#000000" d="M 74 272 L 94 272 L 94 282 L 74 282 L 74 272 Z Z" stroke-miterlimit="10"/></g><g transform="translate(-8,1) scale(1,1)"><rect fill="#3b6978" stroke="none" x="74" y="292" width="20" height="10"/></g><g transform="translate(-8,1) scale(1,1)"><path fill="none" stroke="#000000" d="M 74 292 L 94 292 L 94 302 L 74 302 L 74 292 Z Z" stroke-miterlimit="10"/></g><g transform="translate(-8,1) scale(1,1)"><g><path fill="none" stroke="none"/><text fill="#ffffff" stroke="none" font-family="Arial" font-size="13px" font-style="normal" font-weight="bold" text-decoration="none" x="177.095947265625" y="284.5">Main - Node.js</text></g></g><g transform="translate(-8,1) scale(1,1)"><rect fill="#C0C0C0" stroke="none" x="119" y="168" width="85.57177734375" height="24" opacity="0.2"/></g><g transform="translate(-8,1) scale(1,1)"><rect fill="#74aeb2" stroke="none" x="112" y="161" width="85.57177734375" height="24"/></g><g transform="translate(-8,1) scale(1,1)"><path fill="none" stroke="#000000" d="M 112 161 L 197.57177734375 161 L 197.57177734375 185 L 112 185 L 112 161 Z Z" stroke-miterlimit="10"/></g><g transform="translate(-8,1) scale(1,1)"><rect fill="#74aeb2" stroke="none" x="112" y="161" width="85.57177734375" height="24"/></g><g transform="translate(-8,1) scale(1,1)"><path fill="none" stroke="#000000" d="M 112 161 L 197.57177734375 161 L 197.57177734375 185 L 112 185 L 112 161 Z Z" stroke-miterlimit="10"/></g><g transform="translate(-8,1) scale(1,1)"><g><path fill="none" stroke="none"/><text fill="#000000" stroke="none" font-family="Arial" font-size="13px" font-style="normal" font-weight="bold" text-decoration="none" x="118.655029296875" y="180.5">Redux Store</text><path fill="none" stroke="#000000" d="M 193.07177734375 180.5 L 116.5 180.5" stroke-miterlimit="10"/></g></g><g transform="translate(-8,1) scale(1,1)"><rect fill="#C0C0C0" stroke="none" x="119" y="376" width="85.57177734375" height="24" opacity="0.2"/></g><g transform="translate(-8,1) scale(1,1)"><rect fill="#3b7a8e" stroke="none" x="112" y="369" width="85.57177734375" height="24"/></g><g transform="translate(-8,1) scale(1,1)"><path fill="none" stroke="#000000" d="M 112 369 L 197.57177734375 369 L 197.57177734375 393 L 112 393 L 112 369 Z Z" stroke-miterlimit="10"/></g><g transform="translate(-8,1) scale(1,1)"><rect fill="#3b7a8e" stroke="none" x="112" y="369" width="85.57177734375" height="24"/></g><g transform="translate(-8,1) scale(1,1)"><path fill="none" stroke="#000000" d="M 112 369 L 197.57177734375 369 L 197.57177734375 393 L 112 393 L 112 369 Z Z" stroke-miterlimit="10"/></g><g transform="translate(-8,1) scale(1,1)"><g><path fill="none" stroke="none"/><text fill="#ffffff" stroke="none" font-family="Arial" font-size="13px" font-style="normal" font-weight="bold" text-decoration="none" x="118.655029296875" y="388.5">Redux Store</text><path fill="none" stroke="#ffffff" d="M 193.07177734375 388.5 L 116.5 388.5" stroke-miterlimit="10"/></g></g><g transform="translate(-8,1) scale(1,1)"><path fill="none" stroke="#000000" d="M 154 368 L 154 186" stroke-miterlimit="10"/></g><g transform="translate(-8,1) scale(1,1)"><path fill="none" stroke="#000000" d="M 158.209517756016 196.16267485762415 L 154 186 L 149.790482243984 196.16267485762415" stroke-miterlimit="10"/></g><g transform="translate(-8,1) scale(1,1)"><path fill="none" stroke="#000000" d="M 154 186 L 154 368" stroke-miterlimit="10"/></g><g transform="translate(-8,1) scale(1,1)"><path fill="none" stroke="#000000" d="M 149.790482243984 357.83732514237585 L 154 368 L 158.209517756016 357.83732514237585" stroke-miterlimit="10"/></g><g transform="translate(-8,1) scale(1,1)"><g><path fill="none" stroke="none"/><text fill="#000000" stroke="none" font-family="Arial" font-size="13px" font-style="normal" font-weight="normal" text-decoration="none" x="157.5" y="245.5">+ipc</text></g></g><g transform="translate(-8,1) scale(1,1)"><rect fill="#C0C0C0" stroke="none" x="265" y="168" width="56.68359375" height="24" opacity="0.2"/></g><g transform="translate(-8,1) scale(1,1)"><rect fill="#74aeb2" stroke="none" x="258" y="161" width="56.68359375" height="24"/></g><g transform="translate(-8,1) scale(1,1)"><path fill="none" stroke="#000000" d="M 258 161 L 314.68359375 161 L 314.68359375 185 L 258 185 L 258 161 Z Z" stroke-miterlimit="10"/></g><g transform="translate(-8,1) scale(1,1)"><rect fill="#74aeb2" stroke="none" x="258" y="161" width="56.68359375" height="24"/></g><g transform="translate(-8,1) scale(1,1)"><path fill="none" stroke="#000000" d="M 258 161 L 314.68359375 161 L 314.68359375 185 L 258 185 L 258 161 Z Z" stroke-miterlimit="10"/></g><g transform="translate(-8,1) scale(1,1)"><g><path fill="none" stroke="none"/><text fill="#000000" stroke="none" font-family="Arial" font-size="13px" font-style="normal" font-weight="bold" text-decoration="none" x="269.36181640625" y="180.5">React</text><path fill="none" stroke="#000000" d="M 304.04541015625 180.5 L 268.63818359375 180.5" stroke-miterlimit="10"/></g></g><g transform="translate(-8,1) scale(1,1)"><path fill="none" stroke="#000000" d="M 154 186 L 154 368" stroke-miterlimit="10"/></g><g transform="translate(-8,1) scale(1,1)"><path fill="none" stroke="#000000" d="M 149.790482243984 357.83732514237585 L 154 368 L 158.209517756016 357.83732514237585" stroke-miterlimit="10"/></g><g transform="translate(-8,1) scale(1,1)"><path fill="#C0C0C0" stroke="none" d="M 852.639501953125 367 L 880.079501953125 367 L 891.839501953125 378.76 L 891.839501953125 416 L 852.639501953125 416" opacity="0.2"/></g><g transform="translate(-8,1) scale(1,1)"><path fill="#ffffff" stroke="none" d="M 845.639501953125 360 L 873.079501953125 360 L 884.839501953125 371.76 L 884.839501953125 409 L 845.639501953125 409"/></g><g transform="translate(-8,1) scale(1,1)"><path fill="none" stroke="#000000" d="M 845.639501953125 360 L 873.079501953125 360 L 884.839501953125 371.76 L 884.839501953125 409 L 845.639501953125 409 L 845.639501953125 360" stroke-miterlimit="10"/></g><g transform="translate(-8,1) scale(1,1)"><path fill="none" stroke="#000000" d="M 873.079501953125 360 L 873.079501953125 371.76 L 884.839501953125 371.76 L 873.079501953125 360" stroke-miterlimit="10"/></g><g transform="translate(-8,1) scale(1,1)"><g><path fill="none" stroke="none"/><text fill="#000000" stroke="none" font-family="Arial" font-size="13px" font-style="normal" font-weight="bold" text-decoration="none" x="834.53271484375" y="428.5">SQLite DB</text><path fill="none" stroke="#000000" d="M 897.380859375 428.5 L 833.09814453125 428.5" stroke-miterlimit="10"/></g></g><g transform="translate(-8,1) scale(1,1)"><rect fill="#C0C0C0" stroke="none" x="385" y="271" width="286" height="160" opacity="0.2"/></g><g transform="translate(-8,1) scale(1,1)"><rect fill="#204051" stroke="none" x="378" y="264" width="286" height="160"/></g><g transform="translate(-8,1) scale(1,1)"><path fill="none" stroke="#000000" d="M 378 264 L 664 264 L 664 424 L 378 424 L 378 264 Z Z" stroke-miterlimit="10"/></g><g transform="translate(-8,1) scale(1,1)"><rect fill="#204051" stroke="none" x="368" y="271" width="20" height="10"/></g><g transform="translate(-8,1) scale(1,1)"><path fill="none" stroke="#000000" d="M 368 271 L 388 271 L 388 281 L 368 281 L 368 271 Z Z" stroke-miterlimit="10"/></g><g transform="translate(-8,1) scale(1,1)"><rect fill="#204051" stroke="none" x="368" y="291" width="20" height="10"/></g><g transform="translate(-8,1) scale(1,1)"><path fill="none" stroke="#000000" d="M 368 291 L 388 291 L 388 301 L 368 301 L 368 291 Z Z" stroke-miterlimit="10"/></g><g transform="translate(-8,1) scale(1,1)"><g><path fill="none" stroke="none"/><text fill="#ffffff" stroke="none" font-family="Arial" font-size="13px" font-style="normal" font-weight="bold" text-decoration="none" x="483.721435546875" y="283.5">Neon Bindings</text></g></g><g transform="translate(-8,1) scale(1,1)"><rect fill="#C0C0C0" stroke="none" x="391" y="375" width="97.8671875" height="24" opacity="0.2"/></g><g transform="translate(-8,1) scale(1,1)"><rect fill="#255b77" stroke="none" x="384" y="368" width="97.8671875" height="24"/></g><g transform="translate(-8,1) scale(1,1)"><path fill="none" stroke="#000000" d="M 384 368 L 481.8671875 368 L 481.8671875 392 L 384 392 L 384 368 Z Z" stroke-miterlimit="10"/></g><g transform="translate(-8,1) scale(1,1)"><rect fill="#255b77" stroke="none" x="384" y="368" width="97.8671875" height="24"/></g><g transform="translate(-8,1) scale(1,1)"><path fill="none" stroke="#000000" d="M 384 368 L 481.8671875 368 L 481.8671875 392 L 384 392 L 384 368 Z Z" stroke-miterlimit="10"/></g><g transform="translate(-8,1) scale(1,1)"><g><path fill="none" stroke="none"/><text fill="#ffffff" stroke="none" font-family="Arial" font-size="13px" font-style="normal" font-weight="bold" text-decoration="none" x="392.108642578125" y="387.5">JavaScript Lib</text><path fill="none" stroke="#ffffff" d="M 477.3671875 387.5 L 388.5 387.5" stroke-miterlimit="10"/></g></g><g transform="translate(-8,1) scale(1,1)"><rect fill="#C0C0C0" stroke="none" x="543" y="375" width="119.5" height="24" opacity="0.2"/></g><g transform="translate(-8,1) scale(1,1)"><rect fill="#255b77" stroke="none" x="536" y="368" width="119.5" height="24"/></g><g transform="translate(-8,1) scale(1,1)"><path fill="none" stroke="#000000" d="M 536 368 L 655.5 368 L 655.5 392 L 536 392 L 536 368 Z Z" stroke-miterlimit="10"/></g><g transform="translate(-8,1) scale(1,1)"><rect fill="#255b77" stroke="none" x="536" y="368" width="119.5" height="24"/></g><g transform="translate(-8,1) scale(1,1)"><path fill="none" stroke="#000000" d="M 536 368 L 655.5 368 L 655.5 392 L 536 392 L 536 368 Z Z" stroke-miterlimit="10"/></g><g transform="translate(-8,1) scale(1,1)"><g><path fill="none" stroke="none"/><text fill="#ffffff" stroke="none" font-family="Arial" font-size="13px" font-style="normal" font-weight="bold" text-decoration="none" x="555.28369140625" y="387.5">AddOn Binary</text><path fill="none" stroke="#ffffff" d="M 639.447265625 387.5 L 552.052734375 387.5" stroke-miterlimit="10"/></g></g><g transform="translate(-8,1) scale(1,1)"><path fill="none" stroke="#ffffff" d="M 483 380 L 535 380" stroke-miterlimit="10" stroke-dasharray="3"/></g><g transform="translate(-8,1) scale(1,1)"><path fill="none" stroke="#ffffff" d="M 524.8373251423759 384.209517756016 L 535 380 L 524.8373251423758 375.790482243984" stroke-miterlimit="10"/></g><g transform="translate(-8,1) scale(1,1)"><g><path fill="none" stroke="none"/><text fill="#ffffff" stroke="none" font-family="Arial" font-size="13px" font-style="normal" font-weight="normal" text-decoration="none" x="495.5" y="371.5">+FFI</text></g></g><g transform="translate(-8,1) scale(1,1)"><rect fill="#C0C0C0" stroke="none" x="809" y="191" width="206" height="128" opacity="0.2"/></g><g transform="translate(-8,1) scale(1,1)"><rect fill="#e0684d" stroke="none" x="802" y="184" width="206" height="128"/></g><g transform="translate(-8,1) scale(1,1)"><path fill="none" stroke="#000000" d="M 802 184 L 1008 184 L 1008 312 L 802 312 L 802 184 Z Z" stroke-miterlimit="10"/></g><g transform="translate(-8,1) scale(1,1)"><rect fill="#e0684d" stroke="none" x="792" y="191" width="20" height="10"/></g><g transform="translate(-8,1) scale(1,1)"><path fill="none" stroke="#000000" d="M 792 191 L 812 191 L 812 201 L 792 201 L 792 191 Z Z" stroke-miterlimit="10"/></g><g transform="translate(-8,1) scale(1,1)"><rect fill="#e0684d" stroke="none" x="792" y="211" width="20" height="10"/></g><g transform="translate(-8,1) scale(1,1)"><path fill="none" stroke="#000000" d="M 792 211 L 812 211 L 812 221 L 792 221 L 792 211 Z Z" stroke-miterlimit="10"/></g><g transform="translate(-8,1) scale(1,1)"><g><path fill="none" stroke="none"/><text fill="#000000" stroke="none" font-family="Arial" font-size="13px" font-style="normal" font-weight="bold" text-decoration="none" x="880.740478515625" y="203.5">Rust Core</text></g></g><g transform="translate(-8,1) scale(1,1)"><path fill="none" stroke="#000000" d="M 625 367 L 791 295" stroke-miterlimit="10" stroke-dasharray="3"/></g><g transform="translate(-8,1) scale(1,1)"><path fill="none" stroke="#000000" d="M 783.3515883345466 302.905807928084 L 791 295 L 780.001505849345 295.18200664275815" stroke-miterlimit="10"/></g><g transform="translate(-8,1) scale(1,1)"><path fill="none" stroke="#000000" d="M 657 384 L 807 393" stroke-miterlimit="10"/></g><g transform="translate(-8,1) scale(1,1)"><rect fill="#C0C0C0" stroke="none" x="247" y="375" width="56.68359375" height="24" opacity="0.2"/></g><g transform="translate(-8,1) scale(1,1)"><rect fill="#3b7a8e" stroke="none" x="240" y="368" width="56.68359375" height="24"/></g><g transform="translate(-8,1) scale(1,1)"><path fill="none" stroke="#000000" d="M 240 368 L 296.68359375 368 L 296.68359375 392 L 240 392 L 240 368 Z Z" stroke-miterlimit="10"/></g><g transform="translate(-8,1) scale(1,1)"><rect fill="#3b7a8e" stroke="none" x="240" y="368" width="56.68359375" height="24"/></g><g transform="translate(-8,1) scale(1,1)"><path fill="none" stroke="#000000" d="M 240 368 L 296.68359375 368 L 296.68359375 392 L 240 392 L 240 368 Z Z" stroke-miterlimit="10"/></g><g transform="translate(-8,1) scale(1,1)"><g><path fill="none" stroke="none"/><text fill="#ffffff" stroke="none" font-family="Arial" font-size="13px" font-style="normal" font-weight="bold" text-decoration="none" x="249.911376953125" y="387.5">Sagas</text><path fill="none" stroke="#ffffff" d="M 287.49267578125 387.5 L 249.19091796875 387.5" stroke-miterlimit="10"/></g></g><g transform="translate(-8,1) scale(1,1)"><path fill="none" stroke="#000000" d="M 199 381 L 239 380" stroke-miterlimit="10" stroke-dasharray="3"/></g><g transform="translate(-8,1) scale(1,1)"><path fill="none" stroke="#000000" d="M 228.94570456282133 384.4621904107656 L 239 380 L 228.73529441792007 376.0457846147159" stroke-miterlimit="10"/></g><g transform="translate(-8,1) scale(1,1)"><path fill="none" stroke="#000000" d="M 298 380 L 383 380" stroke-miterlimit="10" stroke-dasharray="3"/></g><g transform="translate(-8,1) scale(1,1)"><path fill="none" stroke="#000000" d="M 372.83732514237585 384.209517756016 L 383 380 L 372.83732514237585 375.790482243984" stroke-miterlimit="10"/></g><g transform="translate(-8,1) scale(1,1)"><g><path fill="none" stroke="none"/><text fill="#000000" stroke="none" font-family="Arial" font-size="13px" font-style="normal" font-weight="normal" text-decoration="none" x="837" y="250">Business Logic, Schema</text><text fill="#000000" stroke="none" font-family="Arial" font-size="13px" font-style="normal" font-weight="normal" text-decoration="none" x="837" y="263">management</text></g></g></g></svg>
