<svg version="1.1" xmlns="http://www.w3.org/2000/svg" xmlns:xlink="http://www.w3.org/1999/xlink" width="830.47900390625" height="452"><defs/><g><g transform="translate(-14,-14) scale(1,1)"><rect fill="#C0C0C0" stroke="none" x="41" y="31" width="646" height="432" opacity="0.2"/></g><g transform="translate(-14,-14) scale(1,1)"><rect fill="#e4e3e3" stroke="none" x="34" y="24" width="646" height="432"/></g><g transform="translate(-14,-14) scale(1,1)"><path fill="none" stroke="#000000" d="M 34 24 L 680 24 L 680 456 L 34 456 L 34 24 Z Z" stroke-miterlimit="10"/></g><g transform="translate(-14,-14) scale(1,1)"><rect fill="#e4e3e3" stroke="none" x="24" y="31" width="20" height="10"/></g><g transform="translate(-14,-14) scale(1,1)"><path fill="none" stroke="#000000" d="M 24 31 L 44 31 L 44 41 L 24 41 L 24 31 Z Z" stroke-miterlimit="10"/></g><g transform="translate(-14,-14) scale(1,1)"><rect fill="#e4e3e3" stroke="none" x="24" y="51" width="20" height="10"/></g><g transform="translate(-14,-14) scale(1,1)"><path fill="none" stroke="#000000" d="M 24 51 L 44 51 L 44 61 L 24 61 L 24 51 Z Z" stroke-miterlimit="10"/></g><g transform="translate(-14,-14) scale(1,1)"><g><path fill="none" stroke="none"/><text fill="#000000" stroke="none" font-family="Arial" font-size="13px" font-style="normal" font-weight="bold" text-decoration="none" x="331.655029296875" y="43.5">Electron.js</text></g></g><g transform="translate(-14,-14) scale(1,1)"><rect fill="#C0C0C0" stroke="none" x="89" y="87" width="358" height="144" opacity="0.2"/></g><g transform="translate(-14,-14) scale(1,1)"><rect fill="#84a9ac" stroke="none" x="82" y="80" width="358" height="144"/></g><g transform="translate(-14,-14) scale(1,1)"><path fill="none" stroke="#000000" d="M 82 80 L 440 80 L 440 224 L 82 224 L 82 80 Z Z" stroke-miterlimit="10"/></g><g transform="translate(-14,-14) scale(1,1)"><rect fill="#84a9ac" stroke="none" x="72" y="87" width="20" height="10"/></g><g transform="translate(-14,-14) scale(1,1)"><path fill="none" stroke="#000000" d="M 72 87 L 92 87 L 92 97 L 72 97 L 72 87 Z Z" stroke-miterlimit="10"/></g><g transform="translate(-14,-14) scale(1,1)"><rect fill="#84a9ac" stroke="none" x="72" y="107" width="20" height="10"/></g><g transform="translate(-14,-14) scale(1,1)"><path fill="none" stroke="#000000" d="M 72 107 L 92 107 L 92 117 L 72 117 L 72 107 Z Z" stroke-miterlimit="10"/></g><g transform="translate(-14,-14) scale(1,1)"><g><path fill="none" stroke="none"/><text fill="#000000" stroke="none" font-family="Arial" font-size="13px" font-style="normal" font-weight="bold" text-decoration="none" x="203.148681640625" y="99.5">Renderer - Chromium</text></g></g><g transform="translate(-14,-14) scale(1,1)"><rect fill="#C0C0C0" stroke="none" x="97" y="287" width="406" height="159" opacity="0.2"/></g><g transform="translate(-14,-14) scale(1,1)"><rect fill="#3b6978" stroke="none" x="90" y="280" width="406" height="159"/></g><g transform="translate(-14,-14) scale(1,1)"><path fill="none" stroke="#000000" d="M 90 280 L 496 280 L 496 439 L 90 439 L 90 280 Z Z" stroke-miterlimit="10"/></g><g transform="translate(-14,-14) scale(1,1)"><rect fill="#3b6978" stroke="none" x="80" y="287" width="20" height="10"/></g><g transform="translate(-14,-14) scale(1,1)"><path fill="none" stroke="#000000" d="M 80 287 L 100 287 L 100 297 L 80 297 L 80 287 Z Z" stroke-miterlimit="10"/></g><g transform="translate(-14,-14) scale(1,1)"><rect fill="#3b6978" stroke="none" x="80" y="307" width="20" height="10"/></g><g transform="translate(-14,-14) scale(1,1)"><path fill="none" stroke="#000000" d="M 80 307 L 100 307 L 100 317 L 80 317 L 80 307 Z Z" stroke-miterlimit="10"/></g><g transform="translate(-14,-14) scale(1,1)"><g><path fill="none" stroke="none"/><text fill="#ffffff" stroke="none" font-family="Arial" font-size="13px" font-style="normal" font-weight="bold" text-decoration="none" x="256.095947265625" y="299.5">Main - Node.js</text></g></g><g transform="translate(-14,-14) scale(1,1)"><rect fill="#C0C0C0" stroke="none" x="151" y="183" width="85.57177734375" height="24" opacity="0.2"/></g><g transform="translate(-14,-14) scale(1,1)"><rect fill="#74aeb2" stroke="none" x="144" y="176" width="85.57177734375" height="24"/></g><g transform="translate(-14,-14) scale(1,1)"><path fill="none" stroke="#000000" d="M 144 176 L 229.57177734375 176 L 229.57177734375 200 L 144 200 L 144 176 Z Z" stroke-miterlimit="10"/></g><g transform="translate(-14,-14) scale(1,1)"><rect fill="#74aeb2" stroke="none" x="144" y="176" width="85.57177734375" height="24"/></g><g transform="translate(-14,-14) scale(1,1)"><path fill="none" stroke="#000000" d="M 144 176 L 229.57177734375 176 L 229.57177734375 200 L 144 200 L 144 176 Z Z" stroke-miterlimit="10"/></g><g transform="translate(-14,-14) scale(1,1)"><g><path fill="none" stroke="none"/><text fill="#000000" stroke="none" font-family="Arial" font-size="13px" font-style="normal" font-weight="bold" text-decoration="none" x="150.655029296875" y="195.5">Redux Store</text><path fill="none" stroke="#000000" d="M 225.07177734375 195.5 L 148.5 195.5" stroke-miterlimit="10"/></g></g><g transform="translate(-14,-14) scale(1,1)"><rect fill="#C0C0C0" stroke="none" x="151" y="391" width="85.57177734375" height="24" opacity="0.2"/></g><g transform="translate(-14,-14) scale(1,1)"><rect fill="#3b7a8e" stroke="none" x="144" y="384" width="85.57177734375" height="24"/></g><g transform="translate(-14,-14) scale(1,1)"><path fill="none" stroke="#000000" d="M 144 384 L 229.57177734375 384 L 229.57177734375 408 L 144 408 L 144 384 Z Z" stroke-miterlimit="10"/></g><g transform="translate(-14,-14) scale(1,1)"><rect fill="#3b7a8e" stroke="none" x="144" y="384" width="85.57177734375" height="24"/></g><g transform="translate(-14,-14) scale(1,1)"><path fill="none" stroke="#000000" d="M 144 384 L 229.57177734375 384 L 229.57177734375 408 L 144 408 L 144 384 Z Z" stroke-miterlimit="10"/></g><g transform="translate(-14,-14) scale(1,1)"><g><path fill="none" stroke="none"/><text fill="#ffffff" stroke="none" font-family="Arial" font-size="13px" font-style="normal" font-weight="bold" text-decoration="none" x="150.655029296875" y="403.5">Redux Store</text><path fill="none" stroke="#ffffff" d="M 225.07177734375 403.5 L 148.5 403.5" stroke-miterlimit="10"/></g></g><g transform="translate(-14,-14) scale(1,1)"><path fill="none" stroke="#000000" d="M 186 383 L 186 201" stroke-miterlimit="10"/></g><g transform="translate(-14,-14) scale(1,1)"><path fill="none" stroke="#000000" d="M 190.209517756016 211.16267485762415 L 186 201 L 181.790482243984 211.16267485762415" stroke-miterlimit="10"/></g><g transform="translate(-14,-14) scale(1,1)"><path fill="none" stroke="#000000" d="M 186 201 L 186 383" stroke-miterlimit="10"/></g><g transform="translate(-14,-14) scale(1,1)"><path fill="none" stroke="#000000" d="M 181.790482243984 372.83732514237585 L 186 383 L 190.209517756016 372.83732514237585" stroke-miterlimit="10"/></g><g transform="translate(-14,-14) scale(1,1)"><g><path fill="none" stroke="none"/><text fill="#000000" stroke="none" font-family="Arial" font-size="13px" font-style="normal" font-weight="normal" text-decoration="none" x="189.5" y="260.5">+ipc</text></g></g><g transform="translate(-14,-14) scale(1,1)"><rect fill="#C0C0C0" stroke="none" x="271" y="183" width="56.68359375" height="24" opacity="0.2"/></g><g transform="translate(-14,-14) scale(1,1)"><rect fill="#74aeb2" stroke="none" x="264" y="176" width="56.68359375" height="24"/></g><g transform="translate(-14,-14) scale(1,1)"><path fill="none" stroke="#000000" d="M 264 176 L 320.68359375 176 L 320.68359375 200 L 264 200 L 264 176 Z Z" stroke-miterlimit="10"/></g><g transform="translate(-14,-14) scale(1,1)"><rect fill="#74aeb2" stroke="none" x="264" y="176" width="56.68359375" height="24"/></g><g transform="translate(-14,-14) scale(1,1)"><path fill="none" stroke="#000000" d="M 264 176 L 320.68359375 176 L 320.68359375 200 L 264 200 L 264 176 Z Z" stroke-miterlimit="10"/></g><g transform="translate(-14,-14) scale(1,1)"><g><path fill="none" stroke="none"/><text fill="#000000" stroke="none" font-family="Arial" font-size="13px" font-style="normal" font-weight="bold" text-decoration="none" x="275.36181640625" y="195.5">React</text><path fill="none" stroke="#000000" d="M 310.04541015625 195.5 L 274.63818359375 195.5" stroke-miterlimit="10"/></g></g><g transform="translate(-14,-14) scale(1,1)"><path fill="none" stroke="#000000" d="M 186 201 L 186 383" stroke-miterlimit="10"/></g><g transform="translate(-14,-14) scale(1,1)"><path fill="none" stroke="#000000" d="M 181.790482243984 372.83732514237585 L 186 383 L 190.209517756016 372.83732514237585" stroke-miterlimit="10"/></g><g transform="translate(-14,-14) scale(1,1)"><g><path fill="none" stroke="none"/><text fill="#000000" stroke="none" font-family="Arial" font-size="13px" font-style="normal" font-weight="normal" text-decoration="none" x="533" y="418">Native</text><text fill="#000000" stroke="none" font-family="Arial" font-size="13px" font-style="normal" font-weight="normal" text-decoration="none" x="533" y="431">Dependency</text><text fill="#000000" stroke="none" font-family="Arial" font-size="13px" font-style="normal" font-weight="normal" text-decoration="none" x="533" y="444">(C++)</text></g></g><g transform="translate(-14,-14) scale(1,1)"><path fill="#C0C0C0" stroke="none" d="M 764.639501953125 367 L 792.079501953125 367 L 803.839501953125 378.76 L 803.839501953125 416 L 764.639501953125 416" opacity="0.2"/></g><g transform="translate(-14,-14) scale(1,1)"><path fill="#ffffff" stroke="none" d="M 757.639501953125 360 L 785.079501953125 360 L 796.839501953125 371.76 L 796.839501953125 409 L 757.639501953125 409"/></g><g transform="translate(-14,-14) scale(1,1)"><path fill="none" stroke="#000000" d="M 757.639501953125 360 L 785.079501953125 360 L 796.839501953125 371.76 L 796.839501953125 409 L 757.639501953125 409 L 757.639501953125 360" stroke-miterlimit="10"/></g><g transform="translate(-14,-14) scale(1,1)"><path fill="none" stroke="#000000" d="M 785.079501953125 360 L 785.079501953125 371.76 L 796.839501953125 371.76 L 785.079501953125 360" stroke-miterlimit="10"/></g><g transform="translate(-14,-14) scale(1,1)"><g><path fill="none" stroke="none"/><text fill="#000000" stroke="none" font-family="Arial" font-size="13px" font-style="normal" font-weight="bold" text-decoration="none" x="746.53271484375" y="428.5">SQLite DB</text><path fill="none" stroke="#000000" d="M 809.380859375 428.5 L 745.09814453125 428.5" stroke-miterlimit="10"/></g></g><g transform="translate(-14,-14) scale(1,1)"><rect fill="#C0C0C0" stroke="none" x="383" y="367" width="108.2890625" height="72" opacity="0.2"/></g><g transform="translate(-14,-14) scale(1,1)"><rect fill="#3b7a8e" stroke="none" x="376" y="360" width="108.2890625" height="72"/></g><g transform="translate(-14,-14) scale(1,1)"><path fill="none" stroke="#000000" d="M 376 360 L 484.2890625 360 L 484.2890625 432 L 376 432 L 376 360 Z Z" stroke-miterlimit="10"/></g><g transform="translate(-14,-14) scale(1,1)"><rect fill="#3b7a8e" stroke="none" x="376" y="360" width="108.2890625" height="72"/></g><g transform="translate(-14,-14) scale(1,1)"><path fill="none" stroke="#000000" d="M 376 360 L 484.2890625 360 L 484.2890625 432 L 376 432 L 376 360 Z Z" stroke-miterlimit="10"/></g><g transform="translate(-14,-14) scale(1,1)"><g><path fill="none" stroke="none"/><text fill="#ffffff" stroke="none" font-family="Arial" font-size="13px" font-style="normal" font-weight="bold" text-decoration="none" x="406.66455078125" y="379.5">typeorm</text><path fill="none" stroke="#ffffff" d="M 455.7890625 379.5 L 404.5 379.5" stroke-miterlimit="10"/></g></g><g transform="translate(-14,-14) scale(1,1)"><rect fill="#C0C0C0" stroke="none" x="391" y="391" width="92.2890625" height="32" opacity="0.2"/></g><g transform="translate(-14,-14) scale(1,1)"><rect fill="#6aacc1" stroke="none" x="384" y="384" width="92.2890625" height="32"/></g><g transform="translate(-14,-14) scale(1,1)"><path fill="none" stroke="#000000" d="M 384 384 L 476.2890625 384 L 476.2890625 416 L 384 416 L 384 384 Z Z" stroke-miterlimit="10"/></g><g transform="translate(-14,-14) scale(1,1)"><rect fill="#6aacc1" stroke="none" x="384" y="384" width="92.2890625" height="32"/></g><g transform="translate(-14,-14) scale(1,1)"><path fill="none" stroke="#000000" d="M 384 384 L 476.2890625 384 L 476.2890625 416 L 384 416 L 384 384 Z Z" stroke-miterlimit="10"/></g><g transform="translate(-14,-14) scale(1,1)"><g><path fill="none" stroke="none"/><text fill="#000000" stroke="none" font-family="Arial" font-size="13px" font-style="normal" font-weight="bold" text-decoration="none" x="411.35546875" y="403.5">sqlite3</text></g></g><g transform="translate(-14,-14) scale(1,1)"><path fill="none" stroke="#000000" d="M 477 408 L 527 417" stroke-miterlimit="10" stroke-dasharray="3"/></g><g transform="translate(-14,-14) scale(1,1)"><path fill="none" stroke="#000000" d="M 485 396 L 719 397" stroke-miterlimit="10"/></g><g transform="translate(-14,-14) scale(1,1)"><rect fill="#C0C0C0" stroke="none" x="271" y="391" width="56.68359375" height="24" opacity="0.2"/></g><g transform="translate(-14,-14) scale(1,1)"><rect fill="#3b7a8e" stroke="none" x="264" y="384" width="56.68359375" height="24"/></g><g transform="translate(-14,-14) scale(1,1)"><path fill="none" stroke="#000000" d="M 264 384 L 320.68359375 384 L 320.68359375 408 L 264 408 L 264 384 Z Z" stroke-miterlimit="10"/></g><g transform="translate(-14,-14) scale(1,1)"><rect fill="#3b7a8e" stroke="none" x="264" y="384" width="56.68359375" height="24"/></g><g transform="translate(-14,-14) scale(1,1)"><path fill="none" stroke="#000000" d="M 264 384 L 320.68359375 384 L 320.68359375 408 L 264 408 L 264 384 Z Z" stroke-miterlimit="10"/></g><g transform="translate(-14,-14) scale(1,1)"><g><path fill="none" stroke="none"/><text fill="#ffffff" stroke="none" font-family="Arial" font-size="13px" font-style="normal" font-weight="bold" text-decoration="none" x="273.911376953125" y="403.5">Sagas</text><path fill="none" stroke="#ffffff" d="M 311.49267578125 403.5 L 273.19091796875 403.5" stroke-miterlimit="10"/></g></g><g transform="translate(-14,-14) scale(1,1)"><path fill="none" stroke="#000000" d="M 231 396 L 263 396" stroke-miterlimit="10" stroke-dasharray="3"/></g><g transform="translate(-14,-14) scale(1,1)"><path fill="none" stroke="#000000" d="M 252.83732514237585 400.209517756016 L 263 396 L 252.83732514237585 391.790482243984" stroke-miterlimit="10"/></g><g transform="translate(-14,-14) scale(1,1)"><path fill="none" stroke="#000000" d="M 322 396 L 375 396" stroke-miterlimit="10" stroke-dasharray="3"/></g><g transform="translate(-14,-14) scale(1,1)"><path fill="none" stroke="#000000" d="M 364.83732514237585 400.209517756016 L 375 396 L 364.83732514237585 391.790482243984" stroke-miterlimit="10"/></g></g></svg>
