<?xml version="1.0" encoding="UTF-8" standalone="no"?>
<svg
   xmlns:dc="http://purl.org/dc/elements/1.1/"
   xmlns:cc="http://creativecommons.org/ns#"
   xmlns:rdf="http://www.w3.org/1999/02/22-rdf-syntax-ns#"
   xmlns:svg="http://www.w3.org/2000/svg"
   xmlns="http://www.w3.org/2000/svg"
   xmlns:sodipodi="http://sodipodi.sourceforge.net/DTD/sodipodi-0.dtd"
   xmlns:inkscape="http://www.inkscape.org/namespaces/inkscape"
   inkscape:version="1.0 (4035a4fb49, 2020-05-01)"
   sodipodi:docname="movies-with-liam.svg"
   viewBox="0 0 921 536"
   height="536"
   width="921"
   xml:space="preserve"
   id="svg562"
   version="1.1"><metadata
     id="metadata568"><rdf:RDF><cc:Work
         rdf:about=""><dc:format>image/svg+xml</dc:format><dc:type
           rdf:resource="http://purl.org/dc/dcmitype/StillImage" /><dc:title></dc:title></cc:Work></rdf:RDF></metadata><defs
     id="defs566"><clipPath
       id="clipPath590"
       clipPathUnits="userSpaceOnUse"><path
         id="path588"
         clip-rule="evenodd"
         d="m 50.88,105.24 h 690.48 v 401.4 H 50.88 Z" /></clipPath><clipPath
       id="clipPath602"
       clipPathUnits="userSpaceOnUse"><path
         id="path600"
         clip-rule="evenodd"
         d="m 50.88,105.24 h 690.48 v 401.4 H 50.88 Z" /></clipPath><clipPath
       id="clipPath614"
       clipPathUnits="userSpaceOnUse"><path
         id="path612"
         clip-rule="evenodd"
         d="m 50.88,105.24 h 690.48 v 401.4 H 50.88 Z" /></clipPath><clipPath
       id="clipPath626"
       clipPathUnits="userSpaceOnUse"><path
         id="path624"
         clip-rule="evenodd"
         d="m 50.88,105.24 h 690.48 v 401.4 H 50.88 Z" /></clipPath><clipPath
       id="clipPath638"
       clipPathUnits="userSpaceOnUse"><path
         id="path636"
         clip-rule="evenodd"
         d="m 50.88,105.24 h 690.48 v 401.4 H 50.88 Z" /></clipPath><clipPath
       id="clipPath650"
       clipPathUnits="userSpaceOnUse"><path
         id="path648"
         clip-rule="evenodd"
         d="m 50.88,105.24 h 690.48 v 401.4 H 50.88 Z" /></clipPath><clipPath
       id="clipPath662"
       clipPathUnits="userSpaceOnUse"><path
         id="path660"
         clip-rule="evenodd"
         d="m 50.88,105.24 h 690.48 v 401.4 H 50.88 Z" /></clipPath><clipPath
       id="clipPath674"
       clipPathUnits="userSpaceOnUse"><path
         id="path672"
         clip-rule="evenodd"
         d="m 50.88,105.24 h 690.48 v 401.4 H 50.88 Z" /></clipPath><clipPath
       id="clipPath686"
       clipPathUnits="userSpaceOnUse"><path
         id="path684"
         clip-rule="evenodd"
         d="m 50.88,105.24 h 690.48 v 401.4 H 50.88 Z" /></clipPath><clipPath
       id="clipPath698"
       clipPathUnits="userSpaceOnUse"><path
         id="path696"
         clip-rule="evenodd"
         d="m 50.88,105.24 h 690.48 v 401.4 H 50.88 Z" /></clipPath><clipPath
       id="clipPath710"
       clipPathUnits="userSpaceOnUse"><path
         id="path708"
         clip-rule="evenodd"
         d="m 50.88,105.24 h 690.48 v 401.4 H 50.88 Z" /></clipPath><clipPath
       id="clipPath722"
       clipPathUnits="userSpaceOnUse"><path
         id="path720"
         clip-rule="evenodd"
         d="m 50.88,105.24 h 690.48 v 401.4 H 50.88 Z" /></clipPath><clipPath
       id="clipPath734"
       clipPathUnits="userSpaceOnUse"><path
         id="path732"
         clip-rule="evenodd"
         d="m 50.88,105.24 h 690.48 v 401.4 H 50.88 Z" /></clipPath><clipPath
       id="clipPath746"
       clipPathUnits="userSpaceOnUse"><path
         id="path744"
         clip-rule="evenodd"
         d="m 50.88,105.24 h 690.48 v 401.4 H 50.88 Z" /></clipPath><clipPath
       id="clipPath758"
       clipPathUnits="userSpaceOnUse"><path
         id="path756"
         clip-rule="evenodd"
         d="m 50.88,105.24 h 690.48 v 401.4 H 50.88 Z" /></clipPath><clipPath
       id="clipPath770"
       clipPathUnits="userSpaceOnUse"><path
         id="path768"
         clip-rule="evenodd"
         d="m 50.88,105.24 h 690.48 v 401.4 H 50.88 Z" /></clipPath><clipPath
       id="clipPath782"
       clipPathUnits="userSpaceOnUse"><path
         id="path780"
         clip-rule="evenodd"
         d="m 50.88,105.24 h 690.48 v 401.4 H 50.88 Z" /></clipPath><clipPath
       id="clipPath794"
       clipPathUnits="userSpaceOnUse"><path
         id="path792"
         clip-rule="evenodd"
         d="m 50.88,105.24 h 690.48 v 401.4 H 50.88 Z" /></clipPath><clipPath
       id="clipPath806"
       clipPathUnits="userSpaceOnUse"><path
         id="path804"
         clip-rule="evenodd"
         d="m 50.88,105.24 h 690.48 v 401.4 H 50.88 Z" /></clipPath><clipPath
       id="clipPath818"
       clipPathUnits="userSpaceOnUse"><path
         id="path816"
         clip-rule="evenodd"
         d="m 50.88,105.24 h 690.48 v 401.4 H 50.88 Z" /></clipPath><clipPath
       id="clipPath832"
       clipPathUnits="userSpaceOnUse"><path
         id="path830"
         clip-rule="evenodd"
         d="m 50.88,105.24 h 690.48 v 401.4 H 50.88 Z" /></clipPath><clipPath
       id="clipPath846"
       clipPathUnits="userSpaceOnUse"><path
         id="path844"
         clip-rule="evenodd"
         d="m 50.88,105.24 h 690.48 v 401.4 H 50.88 Z" /></clipPath><clipPath
       id="clipPath860"
       clipPathUnits="userSpaceOnUse"><path
         id="path858"
         clip-rule="evenodd"
         d="m 50.88,105.24 h 690.48 v 401.4 H 50.88 Z" /></clipPath><clipPath
       id="clipPath872"
       clipPathUnits="userSpaceOnUse"><path
         id="path870"
         clip-rule="evenodd"
         d="M 50.4,104.76 H 741.6 V 507.24 H 50.4 Z" /></clipPath></defs><sodipodi:namedview
     inkscape:current-layer="g570"
     inkscape:window-maximized="1"
     inkscape:window-y="-7"
     inkscape:window-x="-7"
     inkscape:cy="408"
     inkscape:cx="528"
     inkscape:zoom="0.92279412"
     showgrid="false"
     id="namedview564"
     inkscape:window-height="1130"
     inkscape:window-width="1920"
     inkscape:pageshadow="2"
     inkscape:pageopacity="0"
     guidetolerance="10"
     gridtolerance="10"
     objecttolerance="10"
     borderopacity="1"
     bordercolor="#666666"
     pagecolor="#ffffff" /><g
     transform="matrix(1.3333333,0,0,-1.3333333,0,816)"
     inkscape:label="movies-with-liam"
     inkscape:groupmode="layer"
     id="g570"><path
       id="path572"
       style="fill:#ffffff;fill-opacity:1;fill-rule:evenodd;stroke:none"
       d="m 0,210.58002 h 690.33 v 401.42 H 0 Z" /><path
       id="path574"
       style="fill:none;stroke:#d9d9d9;stroke-width:0.90967;stroke-linecap:butt;stroke-linejoin:round;stroke-miterlimit:10;stroke-dasharray:none;stroke-opacity:1"
       d="m 45.664,309.41002 h 631.32 m -631.32,42.93 h 631.32 m -631.32,42.94 h 631.32 m -631.32,42.94 h 631.32 m -631.32,42.93 h 631.32 m -631.32,42.94 h 631.32 m -631.32,42.92 h 631.32" /><path
       id="path576"
       style="fill:none;stroke:#d9d9d9;stroke-width:0.90967;stroke-linecap:butt;stroke-linejoin:round;stroke-miterlimit:10;stroke-dasharray:none;stroke-opacity:1"
       d="m 45.664,266.46002 h 631.32" /><path
       id="path578"
       style="fill:none;stroke:#4472c4;stroke-width:2.729;stroke-linecap:round;stroke-linejoin:round;stroke-miterlimit:10;stroke-dasharray:none;stroke-opacity:1"
       d="m 77.234,474.02002 63.07,7.24 63.17,-4.48 63.17,-0.14 63.16,-1.46 63.03,-1.92 63.16,1.2 63.17,4.65 63.17,-5.53 63.09,-0.14" /><path
       id="path580"
       style="fill:none;stroke:#ed7d31;stroke-width:2.729;stroke-linecap:round;stroke-linejoin:round;stroke-miterlimit:10;stroke-dasharray:none;stroke-opacity:1"
       d="m 77.234,344.92002 63.07,0.32 63.17,-1.63 63.17,0.29 h 63.16 l 63.03,-0.14 63.16,0.43 63.17,0.58 63.17,-2.57 63.09,1.26" /><path
       id="path582"
       style="fill:none;stroke:#a5a5a5;stroke-width:2.729;stroke-linecap:round;stroke-linejoin:round;stroke-miterlimit:10;stroke-dasharray:none;stroke-opacity:1"
       d="m 77.234,497.02002 63.07,2.47 63.17,9.61 63.17,-8.01 63.16,12.31 63.03,-17.69 63.16,-2.47 63.17,1.01 63.17,5.24 63.09,-2.62" /><g
       transform="translate(-50.956,105.41002)"
       id="g584"><g
         clip-path="url(#clipPath590)"
         id="g586"><text
           id="text594"
           style="font-variant:normal;font-weight:normal;font-size:10.92px;font-family:Calibri;-inkscape-font-specification:Calibri;writing-mode:lr-tb;fill:#595959;fill-opacity:1;fill-rule:nonzero;stroke:none"
           transform="matrix(1,0,0,-1,80.976,157.9)"><tspan
             id="tspan592"
             y="0"
             x="0">0</tspan></text></g></g><g
       transform="translate(-50.956,105.41002)"
       id="g596"><g
         clip-path="url(#clipPath602)"
         id="g598"><text
           id="text606"
           style="font-variant:normal;font-weight:normal;font-size:10.92px;font-family:Calibri;-inkscape-font-specification:Calibri;writing-mode:lr-tb;fill:#595959;fill-opacity:1;fill-rule:nonzero;stroke:none"
           transform="matrix(1,0,0,-1,58.848,200.83)"><tspan
             id="tspan604"
             sodipodi:role="line"
             y="0"
             x="0 5.5440001 11.088 16.632 22.176001">10000</tspan></text></g></g><g
       transform="translate(-50.956,105.41002)"
       id="g608"><g
         clip-path="url(#clipPath614)"
         id="g610"><text
           id="text618"
           style="font-variant:normal;font-weight:normal;font-size:10.92px;font-family:Calibri;-inkscape-font-specification:Calibri;writing-mode:lr-tb;fill:#595959;fill-opacity:1;fill-rule:nonzero;stroke:none"
           transform="matrix(1,0,0,-1,58.848,243.79)"><tspan
             id="tspan616"
             sodipodi:role="line"
             y="0"
             x="0 5.5440001 11.088 16.632 22.176001">20000</tspan></text></g></g><g
       transform="translate(-50.956,105.41002)"
       id="g620"><g
         clip-path="url(#clipPath626)"
         id="g622"><text
           id="text630"
           style="font-variant:normal;font-weight:normal;font-size:10.92px;font-family:Calibri;-inkscape-font-specification:Calibri;writing-mode:lr-tb;fill:#595959;fill-opacity:1;fill-rule:nonzero;stroke:none"
           transform="matrix(1,0,0,-1,58.848,286.73)"><tspan
             id="tspan628"
             sodipodi:role="line"
             y="0"
             x="0 5.5440001 11.088 16.632 22.176001">30000</tspan></text></g></g><g
       transform="translate(-50.956,105.41002)"
       id="g632"><g
         clip-path="url(#clipPath638)"
         id="g634"><text
           id="text642"
           style="font-variant:normal;font-weight:normal;font-size:10.92px;font-family:Calibri;-inkscape-font-specification:Calibri;writing-mode:lr-tb;fill:#595959;fill-opacity:1;fill-rule:nonzero;stroke:none"
           transform="matrix(1,0,0,-1,58.848,329.66)"><tspan
             id="tspan640"
             sodipodi:role="line"
             y="0"
             x="0 5.5440001 11.088 16.632 22.176001">40000</tspan></text></g></g><g
       transform="translate(-50.956,105.41002)"
       id="g644"><g
         clip-path="url(#clipPath650)"
         id="g646"><text
           id="text654"
           style="font-variant:normal;font-weight:normal;font-size:10.92px;font-family:Calibri;-inkscape-font-specification:Calibri;writing-mode:lr-tb;fill:#595959;fill-opacity:1;fill-rule:nonzero;stroke:none"
           transform="matrix(1,0,0,-1,58.848,372.62)"><tspan
             id="tspan652"
             sodipodi:role="line"
             y="0"
             x="0 5.5440001 11.088 16.632 22.176001">50000</tspan></text></g></g><g
       transform="translate(-50.956,105.41002)"
       id="g656"><g
         clip-path="url(#clipPath662)"
         id="g658"><text
           id="text666"
           style="font-variant:normal;font-weight:normal;font-size:10.92px;font-family:Calibri;-inkscape-font-specification:Calibri;writing-mode:lr-tb;fill:#595959;fill-opacity:1;fill-rule:nonzero;stroke:none"
           transform="matrix(1,0,0,-1,58.848,415.56)"><tspan
             id="tspan664"
             sodipodi:role="line"
             y="0"
             x="0 5.5440001 11.088 16.632 22.176001">60000</tspan></text></g></g><g
       transform="translate(-50.956,105.41002)"
       id="g668"><g
         clip-path="url(#clipPath674)"
         id="g670"><text
           id="text678"
           style="font-variant:normal;font-weight:normal;font-size:10.92px;font-family:Calibri;-inkscape-font-specification:Calibri;writing-mode:lr-tb;fill:#595959;fill-opacity:1;fill-rule:nonzero;stroke:none"
           transform="matrix(1,0,0,-1,58.848,458.5)"><tspan
             id="tspan676"
             sodipodi:role="line"
             y="0"
             x="0 5.5440001 11.088 16.632 22.176001">70000</tspan></text></g></g><g
       transform="translate(-50.956,105.41002)"
       id="g680"><g
         clip-path="url(#clipPath686)"
         id="g682"><text
           id="text690"
           style="font-variant:normal;font-weight:normal;font-size:10.92px;font-family:Calibri;-inkscape-font-specification:Calibri;writing-mode:lr-tb;fill:#595959;fill-opacity:1;fill-rule:nonzero;stroke:none"
           transform="matrix(1,0,0,-1,125.45,143.71)"><tspan
             id="tspan688"
             y="0"
             x="0">1</tspan></text></g></g><g
       transform="translate(-50.956,105.41002)"
       id="g692"><g
         clip-path="url(#clipPath698)"
         id="g694"><text
           id="text702"
           style="font-variant:normal;font-weight:normal;font-size:10.92px;font-family:Calibri;-inkscape-font-specification:Calibri;writing-mode:lr-tb;fill:#595959;fill-opacity:1;fill-rule:nonzero;stroke:none"
           transform="matrix(1,0,0,-1,188.59,143.71)"><tspan
             id="tspan700"
             y="0"
             x="0">2</tspan></text></g></g><g
       transform="translate(-50.956,105.41002)"
       id="g704"><g
         clip-path="url(#clipPath710)"
         id="g706"><text
           id="text714"
           style="font-variant:normal;font-weight:normal;font-size:10.92px;font-family:Calibri;-inkscape-font-specification:Calibri;writing-mode:lr-tb;fill:#595959;fill-opacity:1;fill-rule:nonzero;stroke:none"
           transform="matrix(1,0,0,-1,251.71,143.71)"><tspan
             id="tspan712"
             y="0"
             x="0">3</tspan></text></g></g><g
       transform="translate(-50.956,105.41002)"
       id="g716"><g
         clip-path="url(#clipPath722)"
         id="g718"><text
           id="text726"
           style="font-variant:normal;font-weight:normal;font-size:10.92px;font-family:Calibri;-inkscape-font-specification:Calibri;writing-mode:lr-tb;fill:#595959;fill-opacity:1;fill-rule:nonzero;stroke:none"
           transform="matrix(1,0,0,-1,314.86,143.71)"><tspan
             id="tspan724"
             y="0"
             x="0">4</tspan></text></g></g><g
       transform="translate(-50.956,105.41002)"
       id="g728"><g
         clip-path="url(#clipPath734)"
         id="g730"><text
           id="text738"
           style="font-variant:normal;font-weight:normal;font-size:10.92px;font-family:Calibri;-inkscape-font-specification:Calibri;writing-mode:lr-tb;fill:#595959;fill-opacity:1;fill-rule:nonzero;stroke:none"
           transform="matrix(1,0,0,-1,378,143.71)"><tspan
             id="tspan736"
             y="0"
             x="0">5</tspan></text></g></g><g
       transform="translate(-50.956,105.41002)"
       id="g740"><g
         clip-path="url(#clipPath746)"
         id="g742"><text
           id="text750"
           style="font-variant:normal;font-weight:normal;font-size:10.92px;font-family:Calibri;-inkscape-font-specification:Calibri;writing-mode:lr-tb;fill:#595959;fill-opacity:1;fill-rule:nonzero;stroke:none"
           transform="matrix(1,0,0,-1,441.14,143.71)"><tspan
             id="tspan748"
             y="0"
             x="0">6</tspan></text></g></g><g
       transform="translate(-50.956,105.41002)"
       id="g752"><g
         clip-path="url(#clipPath758)"
         id="g754"><text
           id="text762"
           style="font-variant:normal;font-weight:normal;font-size:10.92px;font-family:Calibri;-inkscape-font-specification:Calibri;writing-mode:lr-tb;fill:#595959;fill-opacity:1;fill-rule:nonzero;stroke:none"
           transform="matrix(1,0,0,-1,504.29,143.71)"><tspan
             id="tspan760"
             y="0"
             x="0">7</tspan></text></g></g><g
       transform="translate(-50.956,105.41002)"
       id="g764"><g
         clip-path="url(#clipPath770)"
         id="g766"><text
           id="text774"
           style="font-variant:normal;font-weight:normal;font-size:10.92px;font-family:Calibri;-inkscape-font-specification:Calibri;writing-mode:lr-tb;fill:#595959;fill-opacity:1;fill-rule:nonzero;stroke:none"
           transform="matrix(1,0,0,-1,567.43,143.71)"><tspan
             id="tspan772"
             y="0"
             x="0">8</tspan></text></g></g><g
       transform="translate(-50.956,105.41002)"
       id="g776"><g
         clip-path="url(#clipPath782)"
         id="g778"><text
           id="text786"
           style="font-variant:normal;font-weight:normal;font-size:10.92px;font-family:Calibri;-inkscape-font-specification:Calibri;writing-mode:lr-tb;fill:#595959;fill-opacity:1;fill-rule:nonzero;stroke:none"
           transform="matrix(1,0,0,-1,630.58,143.71)"><tspan
             id="tspan784"
             y="0"
             x="0">9</tspan></text></g></g><g
       transform="translate(-50.956,105.41002)"
       id="g788"><g
         clip-path="url(#clipPath794)"
         id="g790"><text
           id="text798"
           style="font-variant:normal;font-weight:normal;font-size:10.92px;font-family:Calibri;-inkscape-font-specification:Calibri;writing-mode:lr-tb;fill:#595959;fill-opacity:1;fill-rule:nonzero;stroke:none"
           transform="matrix(1,0,0,-1,690.94,143.71)"><tspan
             id="tspan796"
             sodipodi:role="line"
             y="0"
             x="0 5.5440001">10</tspan></text></g></g><g
       transform="translate(-50.956,105.41002)"
       id="g800"><g
         clip-path="url(#clipPath806)"
         id="g802"><text
           id="text810"
           style="font-variant:normal;font-weight:normal;font-size:17.04px;font-family:Calibri;-inkscape-font-specification:Calibri;writing-mode:lr-tb;fill:#595959;fill-opacity:1;fill-rule:nonzero;stroke:none"
           transform="matrix(1,0,0,-1,199.92,481.32)"><tspan
             id="tspan808"
             sodipodi:role="line"
             y="0"
             x="0 7.8213601 16.30728 24.46944 30.160801 37.28352 46.161362 49.961281 63.491039 72.471123 80.224319 84.143517 92.62944 99.292084 102.95568 115.17336 119.09256 124.80096 133.6788 137.47871 146.35657 154.84248 160.49976 167.1624 176.21065 185.08849 188.8884 195.72144 199.64064 203.55984 211.722 225.33696 232.17">Search movies with person &quot;liam&quot; </tspan></text></g></g><g
       transform="translate(-50.956,105.41002)"
       id="g812"><g
         clip-path="url(#clipPath818)"
         id="g814"><text
           id="text822"
           style="font-style:italic;font-variant:normal;font-weight:normal;font-size:14.568px;font-family:Calibri;-inkscape-font-specification:Calibri-Italic;writing-mode:lr-tb;fill:#595959;fill-opacity:1;fill-rule:nonzero;stroke:none"
           transform="matrix(1,0,0,-1,435.74,481.32)"><tspan
             id="tspan820"
             sodipodi:role="line"
             y="0"
             x="0 3.3506401 10.314144 15.981096 21.648048 24.83844 28.189079 33.856033 37.031857 44.446968 51.293926 56.0868 60.879673 67.843178 72.839996 76.13237 80.546471 92.01149 95.362129 98.712769 102.01971 105.37035 111.03729 118.0008 123.97368 131.38879 138.80391 146.21901 151.88597">less is better (milliseconds)</tspan></text></g></g><path
       id="path824"
       style="fill:none;stroke:#4472c4;stroke-width:2.729;stroke-linecap:round;stroke-linejoin:round;stroke-miterlimit:10;stroke-dasharray:none;stroke-opacity:1"
       d="m 167.924,228.09002 h 23.29" /><g
       transform="translate(-50.956,105.41002)"
       id="g826"><g
         clip-path="url(#clipPath832)"
         id="g828"><text
           id="text836"
           style="font-variant:normal;font-weight:normal;font-size:10.92px;font-family:Calibri;-inkscape-font-specification:Calibri;writing-mode:lr-tb;fill:#595959;fill-opacity:1;fill-rule:nonzero;stroke:none"
           transform="matrix(1,0,0,-1,244.66,119.52)"><tspan
             id="tspan834"
             sodipodi:role="line"
             y="0"
             x="0 6.9888 12.21948 15.87768 18.49848 23.43432 28.87248 31.340401 37.575722 43.39608 49.0854 52.426922 59.71056 65.399879">Native Add-Ons</tspan></text></g></g><path
       id="path838"
       style="fill:none;stroke:#ed7d31;stroke-width:2.729;stroke-linecap:round;stroke-linejoin:round;stroke-miterlimit:10;stroke-dasharray:none;stroke-opacity:1"
       d="m 283.134,228.09002 h 23.29" /><g
       transform="translate(-50.956,105.41002)"
       id="g840"><g
         clip-path="url(#clipPath846)"
         id="g842"><text
           id="text850"
           style="font-variant:normal;font-weight:normal;font-size:10.92px;font-family:Calibri;-inkscape-font-specification:Calibri;writing-mode:lr-tb;fill:#595959;fill-opacity:1;fill-rule:nonzero;stroke:none"
           transform="matrix(1,0,0,-1,359.88,119.52)"><tspan
             id="tspan848"
             sodipodi:role="line"
             y="0"
             x="0 6.9888 12.21948 15.87768 18.49848 23.43432 28.87248 31.340401 37.575722 43.39608 49.0854 52.426922 59.71056 65.399879 69.625923 72.093842 75.435364 77.903282 83.756401 89.576759 95.266083 99.907082 105.5964 109.51668 113.32776 118.71132 124.53168">Native Add-Ons - Concurrent</tspan></text></g></g><path
       id="path852"
       style="fill:none;stroke:#a5a5a5;stroke-width:2.729;stroke-linecap:round;stroke-linejoin:round;stroke-miterlimit:10;stroke-dasharray:none;stroke-opacity:1"
       d="m 456.734,228.09002 h 23.28" /><g
       transform="translate(-50.956,105.41002)"
       id="g854"><g
         clip-path="url(#clipPath860)"
         id="g856"><text
           id="text864"
           style="font-variant:normal;font-weight:normal;font-size:10.92px;font-family:Calibri;-inkscape-font-specification:Calibri;writing-mode:lr-tb;fill:#595959;fill-opacity:1;fill-rule:nonzero;stroke:none"
           transform="matrix(1,0,0,-1,533.5,119.52)"><tspan
             id="tspan862"
             sodipodi:role="line"
             y="0"
             x="0 3.48348 8.7469196 13.68276 18.957121 23.92572 28.566719 32.3778 34.85664 40.676998">JavaScript</tspan></text></g></g></g></svg>
