<?xml version="1.0" encoding="UTF-8" standalone="no"?>
<svg
   xmlns:dc="http://purl.org/dc/elements/1.1/"
   xmlns:cc="http://creativecommons.org/ns#"
   xmlns:rdf="http://www.w3.org/1999/02/22-rdf-syntax-ns#"
   xmlns:svg="http://www.w3.org/2000/svg"
   xmlns="http://www.w3.org/2000/svg"
   xmlns:sodipodi="http://sodipodi.sourceforge.net/DTD/sodipodi-0.dtd"
   xmlns:inkscape="http://www.inkscape.org/namespaces/inkscape"
   inkscape:version="1.0 (4035a4fb49, 2020-05-01)"
   sodipodi:docname="movies-with-brad.svg"
   viewBox="0 0 921 535"
   height="535"
   width="921"
   xml:space="preserve"
   id="svg260"
   version="1.1"><metadata
     id="metadata266"><rdf:RDF><cc:Work
         rdf:about=""><dc:format>image/svg+xml</dc:format><dc:type
           rdf:resource="http://purl.org/dc/dcmitype/StillImage" /><dc:title></dc:title></cc:Work></rdf:RDF></metadata><defs
     id="defs264"><clipPath
       id="clipPath288"
       clipPathUnits="userSpaceOnUse"><path
         id="path286"
         clip-rule="evenodd"
         d="m 51,105.36 h 690.12 v 401.4 H 51 Z" /></clipPath><clipPath
       id="clipPath300"
       clipPathUnits="userSpaceOnUse"><path
         id="path298"
         clip-rule="evenodd"
         d="m 51,105.36 h 690.12 v 401.4 H 51 Z" /></clipPath><clipPath
       id="clipPath312"
       clipPathUnits="userSpaceOnUse"><path
         id="path310"
         clip-rule="evenodd"
         d="m 51,105.36 h 690.12 v 401.4 H 51 Z" /></clipPath><clipPath
       id="clipPath324"
       clipPathUnits="userSpaceOnUse"><path
         id="path322"
         clip-rule="evenodd"
         d="m 51,105.36 h 690.12 v 401.4 H 51 Z" /></clipPath><clipPath
       id="clipPath336"
       clipPathUnits="userSpaceOnUse"><path
         id="path334"
         clip-rule="evenodd"
         d="m 51,105.36 h 690.12 v 401.4 H 51 Z" /></clipPath><clipPath
       id="clipPath348"
       clipPathUnits="userSpaceOnUse"><path
         id="path346"
         clip-rule="evenodd"
         d="m 51,105.36 h 690.12 v 401.4 H 51 Z" /></clipPath><clipPath
       id="clipPath360"
       clipPathUnits="userSpaceOnUse"><path
         id="path358"
         clip-rule="evenodd"
         d="m 51,105.36 h 690.12 v 401.4 H 51 Z" /></clipPath><clipPath
       id="clipPath372"
       clipPathUnits="userSpaceOnUse"><path
         id="path370"
         clip-rule="evenodd"
         d="m 51,105.36 h 690.12 v 401.4 H 51 Z" /></clipPath><clipPath
       id="clipPath384"
       clipPathUnits="userSpaceOnUse"><path
         id="path382"
         clip-rule="evenodd"
         d="m 51,105.36 h 690.12 v 401.4 H 51 Z" /></clipPath><clipPath
       id="clipPath396"
       clipPathUnits="userSpaceOnUse"><path
         id="path394"
         clip-rule="evenodd"
         d="m 51,105.36 h 690.12 v 401.4 H 51 Z" /></clipPath><clipPath
       id="clipPath408"
       clipPathUnits="userSpaceOnUse"><path
         id="path406"
         clip-rule="evenodd"
         d="m 51,105.36 h 690.12 v 401.4 H 51 Z" /></clipPath><clipPath
       id="clipPath420"
       clipPathUnits="userSpaceOnUse"><path
         id="path418"
         clip-rule="evenodd"
         d="m 51,105.36 h 690.12 v 401.4 H 51 Z" /></clipPath><clipPath
       id="clipPath432"
       clipPathUnits="userSpaceOnUse"><path
         id="path430"
         clip-rule="evenodd"
         d="m 51,105.36 h 690.12 v 401.4 H 51 Z" /></clipPath><clipPath
       id="clipPath444"
       clipPathUnits="userSpaceOnUse"><path
         id="path442"
         clip-rule="evenodd"
         d="m 51,105.36 h 690.12 v 401.4 H 51 Z" /></clipPath><clipPath
       id="clipPath456"
       clipPathUnits="userSpaceOnUse"><path
         id="path454"
         clip-rule="evenodd"
         d="m 51,105.36 h 690.12 v 401.4 H 51 Z" /></clipPath><clipPath
       id="clipPath468"
       clipPathUnits="userSpaceOnUse"><path
         id="path466"
         clip-rule="evenodd"
         d="m 51,105.36 h 690.12 v 401.4 H 51 Z" /></clipPath><clipPath
       id="clipPath480"
       clipPathUnits="userSpaceOnUse"><path
         id="path478"
         clip-rule="evenodd"
         d="m 51,105.36 h 690.12 v 401.4 H 51 Z" /></clipPath><clipPath
       id="clipPath492"
       clipPathUnits="userSpaceOnUse"><path
         id="path490"
         clip-rule="evenodd"
         d="m 51,105.36 h 690.12 v 401.4 H 51 Z" /></clipPath><clipPath
       id="clipPath504"
       clipPathUnits="userSpaceOnUse"><path
         id="path502"
         clip-rule="evenodd"
         d="m 51,105.36 h 690.12 v 401.4 H 51 Z" /></clipPath><clipPath
       id="clipPath518"
       clipPathUnits="userSpaceOnUse"><path
         id="path516"
         clip-rule="evenodd"
         d="m 51,105.36 h 690.12 v 401.4 H 51 Z" /></clipPath><clipPath
       id="clipPath532"
       clipPathUnits="userSpaceOnUse"><path
         id="path530"
         clip-rule="evenodd"
         d="m 51,105.36 h 690.12 v 401.4 H 51 Z" /></clipPath><clipPath
       id="clipPath546"
       clipPathUnits="userSpaceOnUse"><path
         id="path544"
         clip-rule="evenodd"
         d="m 51,105.36 h 690.12 v 401.4 H 51 Z" /></clipPath><clipPath
       id="clipPath558"
       clipPathUnits="userSpaceOnUse"><path
         id="path556"
         clip-rule="evenodd"
         d="M 50.4,105 H 741.6 V 507.12 H 50.4 Z" /></clipPath></defs><sodipodi:namedview
     inkscape:current-layer="g268"
     inkscape:window-maximized="1"
     inkscape:window-y="-7"
     inkscape:window-x="-7"
     inkscape:cy="408"
     inkscape:cx="528"
     inkscape:zoom="0.92279412"
     showgrid="false"
     id="namedview262"
     inkscape:window-height="1130"
     inkscape:window-width="1920"
     inkscape:pageshadow="2"
     inkscape:pageopacity="0"
     guidetolerance="10"
     gridtolerance="10"
     objecttolerance="10"
     borderopacity="1"
     bordercolor="#666666"
     pagecolor="#ffffff" /><g
     transform="matrix(1.3333333,0,0,-1.3333333,0,816)"
     inkscape:label="movies-with-brad"
     inkscape:groupmode="layer"
     id="g268"><path
       id="path270"
       style="fill:#ffffff;fill-opacity:1;fill-rule:evenodd;stroke:none"
       d="m 0,210.77002 h 690.27 v 401.23 H 0 Z" /><path
       id="path272"
       style="fill:none;stroke:#d9d9d9;stroke-width:0.91024;stroke-linecap:butt;stroke-linejoin:round;stroke-miterlimit:10;stroke-dasharray:none;stroke-opacity:1"
       d="m 45.693,316.80002 h 631.229 m -631.229,49.95 h 631.229 m -631.229,50.1 h 631.229 m -631.229,50.1 h 631.229 m -631.229,49.95 h 631.229 m -631.229,50.09 h 631.229" /><path
       id="path274"
       style="fill:none;stroke:#d9d9d9;stroke-width:0.91024;stroke-linecap:butt;stroke-linejoin:round;stroke-miterlimit:10;stroke-dasharray:none;stroke-opacity:1"
       d="M 45.693,266.69002 H 676.922" /><path
       id="path276"
       style="fill:none;stroke:#4472c4;stroke-width:2.7307;stroke-linecap:round;stroke-linejoin:round;stroke-miterlimit:10;stroke-dasharray:none;stroke-opacity:1"
       d="m 77.252,514.14002 63.09,-4.81 63.2,-0.15 63.07,0.59 63.2,17.81 63.06,-5.14 63.07,-16.94 63.2,12.42 63.06,-5.82 63.16,-1.46" /><path
       id="path278"
       style="fill:none;stroke:#ed7d31;stroke-width:2.7307;stroke-linecap:round;stroke-linejoin:round;stroke-miterlimit:10;stroke-dasharray:none;stroke-opacity:1"
       d="m 77.252,358.22002 63.09,-4.19 63.2,2.09 63.07,-0.73 63.2,1.46 63.06,-1.9 63.07,2.92 63.2,-2.04 63.06,0.87 63.16,-2.33" /><path
       id="path280"
       style="fill:none;stroke:#a5a5a5;stroke-width:2.7307;stroke-linecap:round;stroke-linejoin:round;stroke-miterlimit:10;stroke-dasharray:none;stroke-opacity:1"
       d="m 77.252,530.88002 63.09,2.33 63.2,3.79 63.07,-10.34 63.2,10.6 63.06,-10.16 63.07,1.75 63.2,1.02 63.06,4.07 63.16,3.35" /><g
       transform="translate(-50.978,105.35002)"
       id="g282"><g
         clip-path="url(#clipPath288)"
         id="g284"><text
           id="text292"
           style="font-variant:normal;font-weight:normal;font-size:10.92px;font-family:Calibri;-inkscape-font-specification:Calibri;writing-mode:lr-tb;fill:#595959;fill-opacity:1;fill-rule:nonzero;stroke:none"
           transform="matrix(1,0,0,-1,81.024,158.18)"><tspan
             id="tspan290"
             y="0"
             x="0">0</tspan></text></g></g><g
       transform="translate(-50.978,105.35002)"
       id="g294"><g
         clip-path="url(#clipPath300)"
         id="g296"><text
           id="text304"
           style="font-variant:normal;font-weight:normal;font-size:10.92px;font-family:Calibri;-inkscape-font-specification:Calibri;writing-mode:lr-tb;fill:#595959;fill-opacity:1;fill-rule:nonzero;stroke:none"
           transform="matrix(1,0,0,-1,64.416,208.25)"><tspan
             id="tspan302"
             sodipodi:role="line"
             y="0"
             x="0 5.52004 11.04008 16.56012">2000</tspan></text></g></g><g
       transform="translate(-50.978,105.35002)"
       id="g306"><g
         clip-path="url(#clipPath312)"
         id="g308"><text
           id="text316"
           style="font-variant:normal;font-weight:normal;font-size:10.944px;font-family:Calibri;-inkscape-font-specification:Calibri;writing-mode:lr-tb;fill:#595959;fill-opacity:1;fill-rule:nonzero;stroke:none"
           transform="matrix(1,0,0,-1,64.416,258.31)"><tspan
             id="tspan314"
             sodipodi:role="line"
             y="0"
             x="0 5.5200081 11.040016 16.560024">4000</tspan></text></g></g><g
       transform="translate(-50.978,105.35002)"
       id="g318"><g
         clip-path="url(#clipPath324)"
         id="g320"><text
           id="text328"
           style="font-variant:normal;font-weight:normal;font-size:10.92px;font-family:Calibri;-inkscape-font-specification:Calibri;writing-mode:lr-tb;fill:#595959;fill-opacity:1;fill-rule:nonzero;stroke:none"
           transform="matrix(1,0,0,-1,64.416,308.35)"><tspan
             id="tspan326"
             sodipodi:role="line"
             y="0"
             x="0 5.52004 11.04008 16.56012">6000</tspan></text></g></g><g
       transform="translate(-50.978,105.35002)"
       id="g330"><g
         clip-path="url(#clipPath336)"
         id="g332"><text
           id="text340"
           style="font-variant:normal;font-weight:normal;font-size:10.92px;font-family:Calibri;-inkscape-font-specification:Calibri;writing-mode:lr-tb;fill:#595959;fill-opacity:1;fill-rule:nonzero;stroke:none"
           transform="matrix(1,0,0,-1,64.416,358.42)"><tspan
             id="tspan338"
             sodipodi:role="line"
             y="0"
             x="0 5.52004 11.04008 16.56012">8000</tspan></text></g></g><g
       transform="translate(-50.978,105.35002)"
       id="g342"><g
         clip-path="url(#clipPath348)"
         id="g344"><text
           id="text352"
           style="font-variant:normal;font-weight:normal;font-size:10.92px;font-family:Calibri;-inkscape-font-specification:Calibri;writing-mode:lr-tb;fill:#595959;fill-opacity:1;fill-rule:nonzero;stroke:none"
           transform="matrix(1,0,0,-1,58.872,408.48)"><tspan
             id="tspan350"
             sodipodi:role="line"
             y="0"
             x="0 5.5440001 11.088 16.632 22.176001">10000</tspan></text></g></g><g
       transform="translate(-50.978,105.35002)"
       id="g354"><g
         clip-path="url(#clipPath360)"
         id="g356"><text
           id="text364"
           style="font-variant:normal;font-weight:normal;font-size:10.92px;font-family:Calibri;-inkscape-font-specification:Calibri;writing-mode:lr-tb;fill:#595959;fill-opacity:1;fill-rule:nonzero;stroke:none"
           transform="matrix(1,0,0,-1,58.872,458.54)"><tspan
             id="tspan362"
             sodipodi:role="line"
             y="0"
             x="0 5.5440001 11.088 16.632 22.176001">12000</tspan></text></g></g><g
       transform="translate(-50.978,105.35002)"
       id="g366"><g
         clip-path="url(#clipPath372)"
         id="g368"><text
           id="text376"
           style="font-variant:normal;font-weight:normal;font-size:10.92px;font-family:Calibri;-inkscape-font-specification:Calibri;writing-mode:lr-tb;fill:#595959;fill-opacity:1;fill-rule:nonzero;stroke:none"
           transform="matrix(1,0,0,-1,125.5,143.98)"><tspan
             id="tspan374"
             y="0"
             x="0">1</tspan></text></g></g><g
       transform="translate(-50.978,105.35002)"
       id="g378"><g
         clip-path="url(#clipPath384)"
         id="g380"><text
           id="text388"
           style="font-variant:normal;font-weight:normal;font-size:10.92px;font-family:Calibri;-inkscape-font-specification:Calibri;writing-mode:lr-tb;fill:#595959;fill-opacity:1;fill-rule:nonzero;stroke:none"
           transform="matrix(1,0,0,-1,188.62,143.98)"><tspan
             id="tspan386"
             y="0"
             x="0">2</tspan></text></g></g><g
       transform="translate(-50.978,105.35002)"
       id="g390"><g
         clip-path="url(#clipPath396)"
         id="g392"><text
           id="text400"
           style="font-variant:normal;font-weight:normal;font-size:10.92px;font-family:Calibri;-inkscape-font-specification:Calibri;writing-mode:lr-tb;fill:#595959;fill-opacity:1;fill-rule:nonzero;stroke:none"
           transform="matrix(1,0,0,-1,251.74,143.98)"><tspan
             id="tspan398"
             y="0"
             x="0">3</tspan></text></g></g><g
       transform="translate(-50.978,105.35002)"
       id="g402"><g
         clip-path="url(#clipPath408)"
         id="g404"><text
           id="text412"
           style="font-variant:normal;font-weight:normal;font-size:10.92px;font-family:Calibri;-inkscape-font-specification:Calibri;writing-mode:lr-tb;fill:#595959;fill-opacity:1;fill-rule:nonzero;stroke:none"
           transform="matrix(1,0,0,-1,314.88,143.98)"><tspan
             id="tspan410"
             y="0"
             x="0">4</tspan></text></g></g><g
       transform="translate(-50.978,105.35002)"
       id="g414"><g
         clip-path="url(#clipPath420)"
         id="g416"><text
           id="text424"
           style="font-variant:normal;font-weight:normal;font-size:10.92px;font-family:Calibri;-inkscape-font-specification:Calibri;writing-mode:lr-tb;fill:#595959;fill-opacity:1;fill-rule:nonzero;stroke:none"
           transform="matrix(1,0,0,-1,378,143.98)"><tspan
             id="tspan422"
             y="0"
             x="0">5</tspan></text></g></g><g
       transform="translate(-50.978,105.35002)"
       id="g426"><g
         clip-path="url(#clipPath432)"
         id="g428"><text
           id="text436"
           style="font-variant:normal;font-weight:normal;font-size:10.92px;font-family:Calibri;-inkscape-font-specification:Calibri;writing-mode:lr-tb;fill:#595959;fill-opacity:1;fill-rule:nonzero;stroke:none"
           transform="matrix(1,0,0,-1,441.14,143.98)"><tspan
             id="tspan434"
             y="0"
             x="0">6</tspan></text></g></g><g
       transform="translate(-50.978,105.35002)"
       id="g438"><g
         clip-path="url(#clipPath444)"
         id="g440"><text
           id="text448"
           style="font-variant:normal;font-weight:normal;font-size:10.92px;font-family:Calibri;-inkscape-font-specification:Calibri;writing-mode:lr-tb;fill:#595959;fill-opacity:1;fill-rule:nonzero;stroke:none"
           transform="matrix(1,0,0,-1,504.26,143.98)"><tspan
             id="tspan446"
             y="0"
             x="0">7</tspan></text></g></g><g
       transform="translate(-50.978,105.35002)"
       id="g450"><g
         clip-path="url(#clipPath456)"
         id="g452"><text
           id="text460"
           style="font-variant:normal;font-weight:normal;font-size:10.92px;font-family:Calibri;-inkscape-font-specification:Calibri;writing-mode:lr-tb;fill:#595959;fill-opacity:1;fill-rule:nonzero;stroke:none"
           transform="matrix(1,0,0,-1,567.41,143.98)"><tspan
             id="tspan458"
             y="0"
             x="0">8</tspan></text></g></g><g
       transform="translate(-50.978,105.35002)"
       id="g462"><g
         clip-path="url(#clipPath468)"
         id="g464"><text
           id="text472"
           style="font-variant:normal;font-weight:normal;font-size:10.92px;font-family:Calibri;-inkscape-font-specification:Calibri;writing-mode:lr-tb;fill:#595959;fill-opacity:1;fill-rule:nonzero;stroke:none"
           transform="matrix(1,0,0,-1,630.53,143.98)"><tspan
             id="tspan470"
             y="0"
             x="0">9</tspan></text></g></g><g
       transform="translate(-50.978,105.35002)"
       id="g474"><g
         clip-path="url(#clipPath480)"
         id="g476"><text
           id="text484"
           style="font-variant:normal;font-weight:normal;font-size:10.92px;font-family:Calibri;-inkscape-font-specification:Calibri;writing-mode:lr-tb;fill:#595959;fill-opacity:1;fill-rule:nonzero;stroke:none"
           transform="matrix(1,0,0,-1,690.91,143.98)"><tspan
             id="tspan482"
             sodipodi:role="line"
             y="0"
             x="0 5.52004">10</tspan></text></g></g><g
       transform="translate(-50.978,105.35002)"
       id="g486"><g
         clip-path="url(#clipPath492)"
         id="g488"><text
           id="text496"
           style="font-variant:normal;font-weight:normal;font-size:17.04px;font-family:Calibri;-inkscape-font-specification:Calibri;writing-mode:lr-tb;fill:#595959;fill-opacity:1;fill-rule:nonzero;stroke:none"
           transform="matrix(1,0,0,-1,198.82,481.37)"><tspan
             id="tspan494"
             sodipodi:role="line"
             y="0"
             x="0 7.8213601 16.30728 24.46944 30.160801 37.3176 46.263599 50.012402 63.576241 72.607437 80.309517 84.228722 92.714638 99.428398 103.07496 115.29264 119.21184 124.92024 133.86624 137.61504 146.56104 154.96176 160.65312 167.34984 176.38104 185.32704 189.07584 195.90887 204.85487 210.52921 218.69136 227.63736 234.4704">Search movies with person &quot;brad&quot; </tspan></text></g></g><g
       transform="translate(-50.978,105.35002)"
       id="g498"><g
         clip-path="url(#clipPath504)"
         id="g500"><text
           id="text508"
           style="font-style:italic;font-variant:normal;font-weight:normal;font-size:14.568px;font-family:Calibri;-inkscape-font-specification:Calibri-Italic;writing-mode:lr-tb;fill:#595959;fill-opacity:1;fill-rule:nonzero;stroke:none"
           transform="matrix(1,0,0,-1,436.82,481.37)"><tspan
             id="tspan506"
             sodipodi:role="line"
             y="0"
             x="0 3.3506401 10.357848 16.024799 21.691751 24.984119 28.334761 34.001713 37.206673 44.650921 51.512447 56.334457 61.156464 68.149101 73.145927 76.438293 80.852402 92.375687 95.726326 99.076965 102.4276 105.77825 111.47433 118.46697 124.43986 131.91324 139.31378 146.75803 152.42499">less is better (milliseconds)</tspan></text></g></g><path
       id="path510"
       style="fill:none;stroke:#4472c4;stroke-width:2.7307;stroke-linecap:round;stroke-linejoin:round;stroke-miterlimit:10;stroke-dasharray:none;stroke-opacity:1"
       d="m 167.782,228.29002 h 23.31" /><g
       transform="translate(-50.978,105.35002)"
       id="g512"><g
         clip-path="url(#clipPath518)"
         id="g514"><text
           id="text522"
           style="font-variant:normal;font-weight:normal;font-size:10.92px;font-family:Calibri;-inkscape-font-specification:Calibri;writing-mode:lr-tb;fill:#595959;fill-opacity:1;fill-rule:nonzero;stroke:none"
           transform="matrix(1,0,0,-1,244.56,119.78)"><tspan
             id="tspan520"
             sodipodi:role="line"
             y="0"
             x="0 6.9888 12.21948 15.87768 18.476641 23.412479 28.850639 31.31856 37.553879 43.374241 49.06356 52.405079 59.688721 65.378036">Native Add-Ons</tspan></text></g></g><path
       id="path524"
       style="fill:none;stroke:#ed7d31;stroke-width:2.7307;stroke-linecap:round;stroke-linejoin:round;stroke-miterlimit:10;stroke-dasharray:none;stroke-opacity:1"
       d="m 283.062,228.29002 h 23.31" /><g
       transform="translate(-50.978,105.35002)"
       id="g526"><g
         clip-path="url(#clipPath532)"
         id="g528"><text
           id="text536"
           style="font-variant:normal;font-weight:normal;font-size:10.92px;font-family:Calibri;-inkscape-font-specification:Calibri;writing-mode:lr-tb;fill:#595959;fill-opacity:1;fill-rule:nonzero;stroke:none"
           transform="matrix(1,0,0,-1,359.86,119.78)"><tspan
             id="tspan534"
             sodipodi:role="line"
             y="0"
             x="0 6.9888 12.21948 15.87768 18.476641 23.412479 28.850639 31.31856 37.553879 43.374241 49.06356 52.405079 59.688721 65.378036 69.60408 72.071999 75.413521 77.881439 83.734558 89.554916 95.24424 99.885239 105.57456 109.49484 113.30592 118.68948 124.50984">Native Add-Ons - Concurrent</tspan></text></g></g><path
       id="path538"
       style="fill:none;stroke:#a5a5a5;stroke-width:2.7307;stroke-linecap:round;stroke-linejoin:round;stroke-miterlimit:10;stroke-dasharray:none;stroke-opacity:1"
       d="m 456.772,228.29002 h 23.3" /><g
       transform="translate(-50.978,105.35002)"
       id="g540"><g
         clip-path="url(#clipPath546)"
         id="g542"><text
           id="text550"
           style="font-variant:normal;font-weight:normal;font-size:10.92px;font-family:Calibri;-inkscape-font-specification:Calibri;writing-mode:lr-tb;fill:#595959;fill-opacity:1;fill-rule:nonzero;stroke:none"
           transform="matrix(1,0,0,-1,533.59,119.78)"><tspan
             id="tspan548"
             sodipodi:role="line"
             y="0"
             x="0 3.48348 8.71416 13.65 18.88068 23.82744 28.468439 32.279518 34.736519 40.535042">JavaScript</tspan></text></g></g></g></svg>
