<?xml version="1.0" encoding="UTF-8" standalone="no"?>
<svg
   xmlns:dc="http://purl.org/dc/elements/1.1/"
   xmlns:cc="http://creativecommons.org/ns#"
   xmlns:rdf="http://www.w3.org/1999/02/22-rdf-syntax-ns#"
   xmlns:svg="http://www.w3.org/2000/svg"
   xmlns="http://www.w3.org/2000/svg"
   xmlns:sodipodi="http://sodipodi.sourceforge.net/DTD/sodipodi-0.dtd"
   xmlns:inkscape="http://www.inkscape.org/namespaces/inkscape"
   inkscape:version="1.0 (4035a4fb49, 2020-05-01)"
   sodipodi:docname="taller-actress-than-brad.svg"
   viewBox="0 0 921 551"
   height="551"
   width="921"
   xml:space="preserve"
   id="svg1242"
   version="1.1"><metadata
     id="metadata1248"><rdf:RDF><cc:Work
         rdf:about=""><dc:format>image/svg+xml</dc:format><dc:type
           rdf:resource="http://purl.org/dc/dcmitype/StillImage" /><dc:title></dc:title></cc:Work></rdf:RDF></metadata><defs
     id="defs1246"><clipPath
       id="clipPath1270"
       clipPathUnits="userSpaceOnUse"><path
         id="path1268"
         clip-rule="evenodd"
         d="M 50.88,99.36 H 741.12 V 512.64 H 50.88 Z" /></clipPath><clipPath
       id="clipPath1282"
       clipPathUnits="userSpaceOnUse"><path
         id="path1280"
         clip-rule="evenodd"
         d="M 50.88,99.36 H 741.12 V 512.64 H 50.88 Z" /></clipPath><clipPath
       id="clipPath1294"
       clipPathUnits="userSpaceOnUse"><path
         id="path1292"
         clip-rule="evenodd"
         d="M 50.88,99.36 H 741.12 V 512.64 H 50.88 Z" /></clipPath><clipPath
       id="clipPath1306"
       clipPathUnits="userSpaceOnUse"><path
         id="path1304"
         clip-rule="evenodd"
         d="M 50.88,99.36 H 741.12 V 512.64 H 50.88 Z" /></clipPath><clipPath
       id="clipPath1318"
       clipPathUnits="userSpaceOnUse"><path
         id="path1316"
         clip-rule="evenodd"
         d="M 50.88,99.36 H 741.12 V 512.64 H 50.88 Z" /></clipPath><clipPath
       id="clipPath1330"
       clipPathUnits="userSpaceOnUse"><path
         id="path1328"
         clip-rule="evenodd"
         d="M 50.88,99.36 H 741.12 V 512.64 H 50.88 Z" /></clipPath><clipPath
       id="clipPath1342"
       clipPathUnits="userSpaceOnUse"><path
         id="path1340"
         clip-rule="evenodd"
         d="M 50.88,99.36 H 741.12 V 512.64 H 50.88 Z" /></clipPath><clipPath
       id="clipPath1354"
       clipPathUnits="userSpaceOnUse"><path
         id="path1352"
         clip-rule="evenodd"
         d="M 50.88,99.36 H 741.12 V 512.64 H 50.88 Z" /></clipPath><clipPath
       id="clipPath1366"
       clipPathUnits="userSpaceOnUse"><path
         id="path1364"
         clip-rule="evenodd"
         d="M 50.88,99.36 H 741.12 V 512.64 H 50.88 Z" /></clipPath><clipPath
       id="clipPath1378"
       clipPathUnits="userSpaceOnUse"><path
         id="path1376"
         clip-rule="evenodd"
         d="M 50.88,99.36 H 741.12 V 512.64 H 50.88 Z" /></clipPath><clipPath
       id="clipPath1390"
       clipPathUnits="userSpaceOnUse"><path
         id="path1388"
         clip-rule="evenodd"
         d="M 50.88,99.36 H 741.12 V 512.64 H 50.88 Z" /></clipPath><clipPath
       id="clipPath1402"
       clipPathUnits="userSpaceOnUse"><path
         id="path1400"
         clip-rule="evenodd"
         d="M 50.88,99.36 H 741.12 V 512.64 H 50.88 Z" /></clipPath><clipPath
       id="clipPath1414"
       clipPathUnits="userSpaceOnUse"><path
         id="path1412"
         clip-rule="evenodd"
         d="M 50.88,99.36 H 741.12 V 512.64 H 50.88 Z" /></clipPath><clipPath
       id="clipPath1426"
       clipPathUnits="userSpaceOnUse"><path
         id="path1424"
         clip-rule="evenodd"
         d="M 50.88,99.36 H 741.12 V 512.64 H 50.88 Z" /></clipPath><clipPath
       id="clipPath1438"
       clipPathUnits="userSpaceOnUse"><path
         id="path1436"
         clip-rule="evenodd"
         d="M 50.88,99.36 H 741.12 V 512.64 H 50.88 Z" /></clipPath><clipPath
       id="clipPath1450"
       clipPathUnits="userSpaceOnUse"><path
         id="path1448"
         clip-rule="evenodd"
         d="M 50.88,99.36 H 741.12 V 512.64 H 50.88 Z" /></clipPath><clipPath
       id="clipPath1462"
       clipPathUnits="userSpaceOnUse"><path
         id="path1460"
         clip-rule="evenodd"
         d="M 50.88,99.36 H 741.12 V 512.64 H 50.88 Z" /></clipPath><clipPath
       id="clipPath1474"
       clipPathUnits="userSpaceOnUse"><path
         id="path1472"
         clip-rule="evenodd"
         d="M 50.88,99.36 H 741.12 V 512.64 H 50.88 Z" /></clipPath><clipPath
       id="clipPath1488"
       clipPathUnits="userSpaceOnUse"><path
         id="path1486"
         clip-rule="evenodd"
         d="M 50.88,99.36 H 741.12 V 512.64 H 50.88 Z" /></clipPath><clipPath
       id="clipPath1502"
       clipPathUnits="userSpaceOnUse"><path
         id="path1500"
         clip-rule="evenodd"
         d="M 50.88,99.36 H 741.12 V 512.64 H 50.88 Z" /></clipPath><clipPath
       id="clipPath1516"
       clipPathUnits="userSpaceOnUse"><path
         id="path1514"
         clip-rule="evenodd"
         d="M 50.88,99.36 H 741.12 V 512.64 H 50.88 Z" /></clipPath><clipPath
       id="clipPath1528"
       clipPathUnits="userSpaceOnUse"><path
         id="path1526"
         clip-rule="evenodd"
         d="M 50.4,99 H 741.6 V 513.12 H 50.4 Z" /></clipPath></defs><sodipodi:namedview
     inkscape:current-layer="g1250"
     inkscape:window-maximized="1"
     inkscape:window-y="-7"
     inkscape:window-x="-7"
     inkscape:cy="408"
     inkscape:cx="528"
     inkscape:zoom="0.92279412"
     showgrid="false"
     id="namedview1244"
     inkscape:window-height="1130"
     inkscape:window-width="1920"
     inkscape:pageshadow="2"
     inkscape:pageopacity="0"
     guidetolerance="10"
     gridtolerance="10"
     objecttolerance="10"
     borderopacity="1"
     bordercolor="#666666"
     pagecolor="#ffffff" /><g
     transform="matrix(1.3333333,0,0,-1.3333333,0,816)"
     inkscape:label="taller-actress-than-brad"
     inkscape:groupmode="layer"
     id="g1250"><path
       id="path1252"
       style="fill:#ffffff;fill-opacity:1;fill-rule:evenodd;stroke:none"
       d="m 0,198.92002 h 690.14 v 413.08 H 0 Z" /><path
       id="path1254"
       style="fill:none;stroke:#d9d9d9;stroke-width:0.95091;stroke-linecap:butt;stroke-linejoin:round;stroke-miterlimit:10;stroke-dasharray:none;stroke-opacity:1"
       d="m 47.735,318.81002 h 628.453 m -628.453,61.62 h 628.453 m -628.453,61.47 h 628.453 m -628.453,61.62 h 628.453 m -628.453,61.45 h 628.453" /><path
       id="path1256"
       style="fill:none;stroke:#d9d9d9;stroke-width:0.95091;stroke-linecap:butt;stroke-linejoin:round;stroke-miterlimit:10;stroke-dasharray:none;stroke-opacity:1"
       d="M 47.735,257.34002 H 676.188" /><path
       id="path1258"
       style="fill:none;stroke:#4472c4;stroke-width:2.8527;stroke-linecap:round;stroke-linejoin:round;stroke-miterlimit:10;stroke-dasharray:none;stroke-opacity:1"
       d="m 79.158,336.31002 62.79,-0.92 62.84,-1.52 62.84,1.07 62.99,1.67 62.83,-2.74 62.84,-0.77 62.84,1.38 62.83,-0.76 62.81,3.47" /><path
       id="path1260"
       style="fill:none;stroke:#ed7d31;stroke-width:2.8527;stroke-linecap:round;stroke-linejoin:round;stroke-miterlimit:10;stroke-dasharray:none;stroke-opacity:1"
       d="m 79.158,284.73002 h 62.79 l 62.84,-1.83 62.84,2.66 62.99,-3.26 62.83,2.89 62.84,-0.16 62.84,-2.86 62.83,0.13 62.81,0.3" /><path
       id="path1262"
       style="fill:none;stroke:#a5a5a5;stroke-width:2.8527;stroke-linecap:round;stroke-linejoin:round;stroke-miterlimit:10;stroke-dasharray:none;stroke-opacity:1"
       d="m 79.158,540.49002 62.79,-1.37 62.84,-0.31 62.84,-0.6 62.99,9.21 62.83,-8 62.84,-1.46 62.84,0.4 62.83,7.76 62.81,0.3" /><g
       transform="translate(-51.032,99.510015)"
       id="g1264"><g
         clip-path="url(#clipPath1270)"
         id="g1266"><text
           id="text1274"
           style="font-variant:normal;font-weight:normal;font-size:11.424px;font-family:Calibri;-inkscape-font-specification:Calibri;writing-mode:lr-tb;fill:#595959;fill-opacity:1;fill-rule:nonzero;stroke:none"
           transform="matrix(1,0,0,-1,82.416,154.54)"><tspan
             id="tspan1272"
             y="0"
             x="0">0</tspan></text></g></g><g
       transform="translate(-51.032,99.510015)"
       id="g1276"><g
         clip-path="url(#clipPath1282)"
         id="g1278"><text
           id="text1286"
           style="font-variant:normal;font-weight:normal;font-size:11.424px;font-family:Calibri;-inkscape-font-specification:Calibri;writing-mode:lr-tb;fill:#595959;fill-opacity:1;fill-rule:nonzero;stroke:none"
           transform="matrix(1,0,0,-1,65.064,216.07)"><tspan
             id="tspan1284"
             sodipodi:role="line"
             y="0"
             x="0 5.783998 11.567996 17.351994">5000</tspan></text></g></g><g
       transform="translate(-51.032,99.510015)"
       id="g1288"><g
         clip-path="url(#clipPath1294)"
         id="g1290"><text
           id="text1298"
           style="font-variant:normal;font-weight:normal;font-size:11.424px;font-family:Calibri;-inkscape-font-specification:Calibri;writing-mode:lr-tb;fill:#595959;fill-opacity:1;fill-rule:nonzero;stroke:none"
           transform="matrix(1,0,0,-1,59.28,277.61)"><tspan
             id="tspan1296"
             sodipodi:role="line"
             y="0"
             x="0 5.783998 11.567996 17.351994 23.135992">10000</tspan></text></g></g><g
       transform="translate(-51.032,99.510015)"
       id="g1300"><g
         clip-path="url(#clipPath1306)"
         id="g1302"><text
           id="text1310"
           style="font-variant:normal;font-weight:normal;font-size:11.4px;font-family:Calibri;-inkscape-font-specification:Calibri;writing-mode:lr-tb;fill:#595959;fill-opacity:1;fill-rule:nonzero;stroke:none"
           transform="matrix(1,0,0,-1,59.28,339.14)"><tspan
             id="tspan1308"
             sodipodi:role="line"
             y="0"
             x="0 5.7839999 11.568 17.351999 23.136">15000</tspan></text></g></g><g
       transform="translate(-51.032,99.510015)"
       id="g1312"><g
         clip-path="url(#clipPath1318)"
         id="g1314"><text
           id="text1322"
           style="font-variant:normal;font-weight:normal;font-size:11.4px;font-family:Calibri;-inkscape-font-specification:Calibri;writing-mode:lr-tb;fill:#595959;fill-opacity:1;fill-rule:nonzero;stroke:none"
           transform="matrix(1,0,0,-1,59.28,400.68)"><tspan
             id="tspan1320"
             sodipodi:role="line"
             y="0"
             x="0 5.7839999 11.568 17.351999 23.136">20000</tspan></text></g></g><g
       transform="translate(-51.032,99.510015)"
       id="g1324"><g
         clip-path="url(#clipPath1330)"
         id="g1326"><text
           id="text1334"
           style="font-variant:normal;font-weight:normal;font-size:11.4px;font-family:Calibri;-inkscape-font-specification:Calibri;writing-mode:lr-tb;fill:#595959;fill-opacity:1;fill-rule:nonzero;stroke:none"
           transform="matrix(1,0,0,-1,59.28,462.22)"><tspan
             id="tspan1332"
             sodipodi:role="line"
             y="0"
             x="0 5.7839999 11.568 17.351999 23.136">25000</tspan></text></g></g><g
       transform="translate(-51.032,99.510015)"
       id="g1336"><g
         clip-path="url(#clipPath1342)"
         id="g1338"><text
           id="text1346"
           style="font-variant:normal;font-weight:normal;font-size:11.4px;font-family:Calibri;-inkscape-font-specification:Calibri;writing-mode:lr-tb;fill:#595959;fill-opacity:1;fill-rule:nonzero;stroke:none"
           transform="matrix(1,0,0,-1,127.32,139.68)"><tspan
             id="tspan1344"
             y="0"
             x="0">1</tspan></text></g></g><g
       transform="translate(-51.032,99.510015)"
       id="g1348"><g
         clip-path="url(#clipPath1354)"
         id="g1350"><text
           id="text1358"
           style="font-variant:normal;font-weight:normal;font-size:11.4px;font-family:Calibri;-inkscape-font-specification:Calibri;writing-mode:lr-tb;fill:#595959;fill-opacity:1;fill-rule:nonzero;stroke:none"
           transform="matrix(1,0,0,-1,190.18,139.68)"><tspan
             id="tspan1356"
             y="0"
             x="0">2</tspan></text></g></g><g
       transform="translate(-51.032,99.510015)"
       id="g1360"><g
         clip-path="url(#clipPath1366)"
         id="g1362"><text
           id="text1370"
           style="font-variant:normal;font-weight:normal;font-size:11.4px;font-family:Calibri;-inkscape-font-specification:Calibri;writing-mode:lr-tb;fill:#595959;fill-opacity:1;fill-rule:nonzero;stroke:none"
           transform="matrix(1,0,0,-1,253.03,139.68)"><tspan
             id="tspan1368"
             y="0"
             x="0">3</tspan></text></g></g><g
       transform="translate(-51.032,99.510015)"
       id="g1372"><g
         clip-path="url(#clipPath1378)"
         id="g1374"><text
           id="text1382"
           style="font-variant:normal;font-weight:normal;font-size:11.4px;font-family:Calibri;-inkscape-font-specification:Calibri;writing-mode:lr-tb;fill:#595959;fill-opacity:1;fill-rule:nonzero;stroke:none"
           transform="matrix(1,0,0,-1,315.89,139.68)"><tspan
             id="tspan1380"
             y="0"
             x="0">4</tspan></text></g></g><g
       transform="translate(-51.032,99.510015)"
       id="g1384"><g
         clip-path="url(#clipPath1390)"
         id="g1386"><text
           id="text1394"
           style="font-variant:normal;font-weight:normal;font-size:11.4px;font-family:Calibri;-inkscape-font-specification:Calibri;writing-mode:lr-tb;fill:#595959;fill-opacity:1;fill-rule:nonzero;stroke:none"
           transform="matrix(1,0,0,-1,378.74,139.68)"><tspan
             id="tspan1392"
             y="0"
             x="0">5</tspan></text></g></g><g
       transform="translate(-51.032,99.510015)"
       id="g1396"><g
         clip-path="url(#clipPath1402)"
         id="g1398"><text
           id="text1406"
           style="font-variant:normal;font-weight:normal;font-size:11.4px;font-family:Calibri;-inkscape-font-specification:Calibri;writing-mode:lr-tb;fill:#595959;fill-opacity:1;fill-rule:nonzero;stroke:none"
           transform="matrix(1,0,0,-1,441.6,139.68)"><tspan
             id="tspan1404"
             y="0"
             x="0">6</tspan></text></g></g><g
       transform="translate(-51.032,99.510015)"
       id="g1408"><g
         clip-path="url(#clipPath1414)"
         id="g1410"><text
           id="text1418"
           style="font-variant:normal;font-weight:normal;font-size:11.4px;font-family:Calibri;-inkscape-font-specification:Calibri;writing-mode:lr-tb;fill:#595959;fill-opacity:1;fill-rule:nonzero;stroke:none"
           transform="matrix(1,0,0,-1,504.46,139.68)"><tspan
             id="tspan1416"
             y="0"
             x="0">7</tspan></text></g></g><g
       transform="translate(-51.032,99.510015)"
       id="g1420"><g
         clip-path="url(#clipPath1426)"
         id="g1422"><text
           id="text1430"
           style="font-variant:normal;font-weight:normal;font-size:11.4px;font-family:Calibri;-inkscape-font-specification:Calibri;writing-mode:lr-tb;fill:#595959;fill-opacity:1;fill-rule:nonzero;stroke:none"
           transform="matrix(1,0,0,-1,567.29,139.68)"><tspan
             id="tspan1428"
             y="0"
             x="0">8</tspan></text></g></g><g
       transform="translate(-51.032,99.510015)"
       id="g1432"><g
         clip-path="url(#clipPath1438)"
         id="g1434"><text
           id="text1442"
           style="font-variant:normal;font-weight:normal;font-size:11.4px;font-family:Calibri;-inkscape-font-specification:Calibri;writing-mode:lr-tb;fill:#595959;fill-opacity:1;fill-rule:nonzero;stroke:none"
           transform="matrix(1,0,0,-1,630.14,139.68)"><tspan
             id="tspan1440"
             y="0"
             x="0">9</tspan></text></g></g><g
       transform="translate(-51.032,99.510015)"
       id="g1444"><g
         clip-path="url(#clipPath1450)"
         id="g1446"><text
           id="text1454"
           style="font-variant:normal;font-weight:normal;font-size:11.4px;font-family:Calibri;-inkscape-font-specification:Calibri;writing-mode:lr-tb;fill:#595959;fill-opacity:1;fill-rule:nonzero;stroke:none"
           transform="matrix(1,0,0,-1,690.12,139.68)"><tspan
             id="tspan1452"
             sodipodi:role="line"
             y="0"
             x="0 5.7839999">10</tspan></text></g></g><g
       transform="translate(-51.032,99.510015)"
       id="g1456"><g
         clip-path="url(#clipPath1462)"
         id="g1458"><text
           id="text1466"
           style="font-variant:normal;font-weight:normal;font-size:17.808px;font-family:Calibri;-inkscape-font-specification:Calibri;writing-mode:lr-tb;fill:#595959;fill-opacity:1;fill-rule:nonzero;stroke:none"
           transform="matrix(1,0,0,-1,173.64,486.07)"><tspan
             id="tspan1464"
             sodipodi:role="line"
             y="0"
             x="0 8.173872 17.042255 25.572289 31.466736 38.91048 48.170639 52.106209 57.893806 66.423843 70.519676 74.615517 83.430481 89.64547 93.598846 102.12888 109.55482 115.52049 121.41495 130.2299 137.19283 144.15576 148.18037 154.05701 163.31717 171.8472 181.10736 185.18539 194.44556 202.97559 217.09732 225.91229 229.99033 237.13133 246.4093 252.33936 260.86938 270.12955 277.27057">Search taller actress than name &quot;brad&quot; </tspan></text></g></g><g
       transform="translate(-51.032,99.510015)"
       id="g1468"><g
         clip-path="url(#clipPath1474)"
         id="g1470"><text
           id="text1478"
           style="font-style:italic;font-variant:normal;font-weight:normal;font-size:15.216px;font-family:Calibri;-inkscape-font-specification:Calibri-Italic;writing-mode:lr-tb;fill:#595959;fill-opacity:1;fill-rule:nonzero;stroke:none"
           transform="matrix(1,0,0,-1,455.14,486.07)"><tspan
             id="tspan1476"
             sodipodi:role="line"
             y="0"
             x="0 3.49968 10.80336 16.722383 22.641409 26.01936 29.519039 35.438065 38.937744 46.758766 53.864639 58.885921 63.9072 71.210876 76.42997 79.762276 84.327072 96.36293 99.86261 103.36229 106.86197 110.36165 116.28067 123.59957 129.83813 137.64394 145.38889 153.2099 159.12892">less is better (milliseconds)</tspan></text></g></g><path
       id="path1480"
       style="fill:none;stroke:#4472c4;stroke-width:2.8527;stroke-linecap:round;stroke-linejoin:round;stroke-miterlimit:10;stroke-dasharray:none;stroke-opacity:1"
       d="m 159.798,217.22002 h 24.34" /><g
       transform="translate(-51.032,99.510015)"
       id="g1482"><g
         clip-path="url(#clipPath1488)"
         id="g1484"><text
           id="text1492"
           style="font-variant:normal;font-weight:normal;font-size:11.4px;font-family:Calibri;-inkscape-font-specification:Calibri;writing-mode:lr-tb;fill:#595959;fill-opacity:1;fill-rule:nonzero;stroke:none"
           transform="matrix(1,0,0,-1,237.77,114.41)"><tspan
             id="tspan1490"
             sodipodi:role="line"
             y="0"
             x="0 7.296 12.7566 16.5756 19.3116 24.464399 30.1416 32.717999 39.284401 45.372002 51.299999 54.788399 62.403599 68.331596">Native Add-Ons</tspan></text></g></g><path
       id="path1494"
       style="fill:none;stroke:#ed7d31;stroke-width:2.8527;stroke-linecap:round;stroke-linejoin:round;stroke-miterlimit:10;stroke-dasharray:none;stroke-opacity:1"
       d="m 280.228,217.22002 h 24.34" /><g
       transform="translate(-51.032,99.510015)"
       id="g1496"><g
         clip-path="url(#clipPath1502)"
         id="g1498"><text
           id="text1506"
           style="font-variant:normal;font-weight:normal;font-size:11.4px;font-family:Calibri;-inkscape-font-specification:Calibri;writing-mode:lr-tb;fill:#595959;fill-opacity:1;fill-rule:nonzero;stroke:none"
           transform="matrix(1,0,0,-1,358.22,114.41)"><tspan
             id="tspan1504"
             sodipodi:role="line"
             y="0"
             x="0 7.296 12.7566 16.5756 19.288799 24.441601 30.0618 32.638199 39.181801 45.246601 51.174599 54.662998 62.278198 68.2062 72.617996 75.194397 78.6828 81.293404 87.369598 93.422997 99.350998 104.2074 110.1354 114.228 118.2066 123.804 129.8688">Native Add-Ons - Concurrent</tspan></text></g></g><path
       id="path1508"
       style="fill:none;stroke:#a5a5a5;stroke-width:2.8527;stroke-linecap:round;stroke-linejoin:round;stroke-miterlimit:10;stroke-dasharray:none;stroke-opacity:1"
       d="m 461.688,217.22002 h 24.35" /><g
       transform="translate(-51.032,99.510015)"
       id="g1510"><g
         clip-path="url(#clipPath1516)"
         id="g1512"><text
           id="text1520"
           style="font-variant:normal;font-weight:normal;font-size:11.4px;font-family:Calibri;-inkscape-font-specification:Calibri;writing-mode:lr-tb;fill:#595959;fill-opacity:1;fill-rule:nonzero;stroke:none"
           transform="matrix(1,0,0,-1,539.71,114.41)"><tspan
             id="tspan1518"
             sodipodi:role="line"
             y="0"
             x="0 3.6366 9.0972004 14.2956 19.756201 24.954599 29.811001 33.7896 36.366001 42.453602">JavaScript</tspan></text></g></g></g></svg>
