<?xml version="1.0" encoding="UTF-8" standalone="no"?>
<svg
   xmlns:dc="http://purl.org/dc/elements/1.1/"
   xmlns:cc="http://creativecommons.org/ns#"
   xmlns:rdf="http://www.w3.org/1999/02/22-rdf-syntax-ns#"
   xmlns:svg="http://www.w3.org/2000/svg"
   xmlns="http://www.w3.org/2000/svg"
   xmlns:sodipodi="http://sodipodi.sourceforge.net/DTD/sodipodi-0.dtd"
   xmlns:inkscape="http://www.inkscape.org/namespaces/inkscape"
   inkscape:version="1.0 (4035a4fb49, 2020-05-01)"
   sodipodi:docname="taller-actress-than-liam.svg"
   viewBox="0 0 921 549"
   height="549"
   width="921"
   xml:space="preserve"
   id="svg1532"
   version="1.1"><metadata
     id="metadata1538"><rdf:RDF><cc:Work
         rdf:about=""><dc:format>image/svg+xml</dc:format><dc:type
           rdf:resource="http://purl.org/dc/dcmitype/StillImage" /><dc:title></dc:title></cc:Work></rdf:RDF></metadata><defs
     id="defs1536"><clipPath
       id="clipPath1560"
       clipPathUnits="userSpaceOnUse"><path
         id="path1558"
         clip-rule="evenodd"
         d="M 51,100.2 H 741.12 V 511.8 H 51 Z" /></clipPath><clipPath
       id="clipPath1572"
       clipPathUnits="userSpaceOnUse"><path
         id="path1570"
         clip-rule="evenodd"
         d="M 51,100.2 H 741.12 V 511.8 H 51 Z" /></clipPath><clipPath
       id="clipPath1584"
       clipPathUnits="userSpaceOnUse"><path
         id="path1582"
         clip-rule="evenodd"
         d="M 51,100.2 H 741.12 V 511.8 H 51 Z" /></clipPath><clipPath
       id="clipPath1596"
       clipPathUnits="userSpaceOnUse"><path
         id="path1594"
         clip-rule="evenodd"
         d="M 51,100.2 H 741.12 V 511.8 H 51 Z" /></clipPath><clipPath
       id="clipPath1608"
       clipPathUnits="userSpaceOnUse"><path
         id="path1606"
         clip-rule="evenodd"
         d="M 51,100.2 H 741.12 V 511.8 H 51 Z" /></clipPath><clipPath
       id="clipPath1620"
       clipPathUnits="userSpaceOnUse"><path
         id="path1618"
         clip-rule="evenodd"
         d="M 51,100.2 H 741.12 V 511.8 H 51 Z" /></clipPath><clipPath
       id="clipPath1632"
       clipPathUnits="userSpaceOnUse"><path
         id="path1630"
         clip-rule="evenodd"
         d="M 51,100.2 H 741.12 V 511.8 H 51 Z" /></clipPath><clipPath
       id="clipPath1644"
       clipPathUnits="userSpaceOnUse"><path
         id="path1642"
         clip-rule="evenodd"
         d="M 51,100.2 H 741.12 V 511.8 H 51 Z" /></clipPath><clipPath
       id="clipPath1656"
       clipPathUnits="userSpaceOnUse"><path
         id="path1654"
         clip-rule="evenodd"
         d="M 51,100.2 H 741.12 V 511.8 H 51 Z" /></clipPath><clipPath
       id="clipPath1668"
       clipPathUnits="userSpaceOnUse"><path
         id="path1666"
         clip-rule="evenodd"
         d="M 51,100.2 H 741.12 V 511.8 H 51 Z" /></clipPath><clipPath
       id="clipPath1680"
       clipPathUnits="userSpaceOnUse"><path
         id="path1678"
         clip-rule="evenodd"
         d="M 51,100.2 H 741.12 V 511.8 H 51 Z" /></clipPath><clipPath
       id="clipPath1692"
       clipPathUnits="userSpaceOnUse"><path
         id="path1690"
         clip-rule="evenodd"
         d="M 51,100.2 H 741.12 V 511.8 H 51 Z" /></clipPath><clipPath
       id="clipPath1704"
       clipPathUnits="userSpaceOnUse"><path
         id="path1702"
         clip-rule="evenodd"
         d="M 51,100.2 H 741.12 V 511.8 H 51 Z" /></clipPath><clipPath
       id="clipPath1716"
       clipPathUnits="userSpaceOnUse"><path
         id="path1714"
         clip-rule="evenodd"
         d="M 51,100.2 H 741.12 V 511.8 H 51 Z" /></clipPath><clipPath
       id="clipPath1728"
       clipPathUnits="userSpaceOnUse"><path
         id="path1726"
         clip-rule="evenodd"
         d="M 51,100.2 H 741.12 V 511.8 H 51 Z" /></clipPath><clipPath
       id="clipPath1740"
       clipPathUnits="userSpaceOnUse"><path
         id="path1738"
         clip-rule="evenodd"
         d="M 51,100.2 H 741.12 V 511.8 H 51 Z" /></clipPath><clipPath
       id="clipPath1752"
       clipPathUnits="userSpaceOnUse"><path
         id="path1750"
         clip-rule="evenodd"
         d="M 51,100.2 H 741.12 V 511.8 H 51 Z" /></clipPath><clipPath
       id="clipPath1764"
       clipPathUnits="userSpaceOnUse"><path
         id="path1762"
         clip-rule="evenodd"
         d="M 51,100.2 H 741.12 V 511.8 H 51 Z" /></clipPath><clipPath
       id="clipPath1776"
       clipPathUnits="userSpaceOnUse"><path
         id="path1774"
         clip-rule="evenodd"
         d="M 51,100.2 H 741.12 V 511.8 H 51 Z" /></clipPath><clipPath
       id="clipPath1788"
       clipPathUnits="userSpaceOnUse"><path
         id="path1786"
         clip-rule="evenodd"
         d="M 51,100.2 H 741.12 V 511.8 H 51 Z" /></clipPath><clipPath
       id="clipPath1800"
       clipPathUnits="userSpaceOnUse"><path
         id="path1798"
         clip-rule="evenodd"
         d="M 51,100.2 H 741.12 V 511.8 H 51 Z" /></clipPath><clipPath
       id="clipPath1814"
       clipPathUnits="userSpaceOnUse"><path
         id="path1812"
         clip-rule="evenodd"
         d="M 51,100.2 H 741.12 V 511.8 H 51 Z" /></clipPath><clipPath
       id="clipPath1828"
       clipPathUnits="userSpaceOnUse"><path
         id="path1826"
         clip-rule="evenodd"
         d="M 51,100.2 H 741.12 V 511.8 H 51 Z" /></clipPath><clipPath
       id="clipPath1842"
       clipPathUnits="userSpaceOnUse"><path
         id="path1840"
         clip-rule="evenodd"
         d="M 51,100.2 H 741.12 V 511.8 H 51 Z" /></clipPath><clipPath
       id="clipPath1854"
       clipPathUnits="userSpaceOnUse"><path
         id="path1852"
         clip-rule="evenodd"
         d="M 50.4,99.84 H 741.6 V 512.16 H 50.4 Z" /></clipPath></defs><sodipodi:namedview
     inkscape:current-layer="g1540"
     inkscape:window-maximized="1"
     inkscape:window-y="-7"
     inkscape:window-x="-7"
     inkscape:cy="408"
     inkscape:cx="528"
     inkscape:zoom="0.92279412"
     showgrid="false"
     id="namedview1534"
     inkscape:window-height="1130"
     inkscape:window-width="1920"
     inkscape:pageshadow="2"
     inkscape:pageopacity="0"
     guidetolerance="10"
     gridtolerance="10"
     objecttolerance="10"
     borderopacity="1"
     bordercolor="#666666"
     pagecolor="#ffffff" /><g
     transform="matrix(1.3333333,0,0,-1.3333333,0,816)"
     inkscape:label="taller-actress-than-liam"
     inkscape:groupmode="layer"
     id="g1540"><path
       id="path1542"
       style="fill:#ffffff;fill-opacity:1;fill-rule:evenodd;stroke:none"
       d="m 0,200.54002 h 690.13 v 411.46 H 0 Z" /><path
       id="path1544"
       style="fill:none;stroke:#d9d9d9;stroke-width:0.9528;stroke-linecap:butt;stroke-linejoin:round;stroke-miterlimit:10;stroke-dasharray:none;stroke-opacity:1"
       d="m 53.625,297.35002 h 622.53 m -622.53,38.11 h 622.53 m -622.53,38.26 h 622.53 m -622.53,38.27 h 622.53 m -622.53,38.26 h 622.53 m -622.53,38.11 h 622.53 m -622.53,38.27 h 622.53 m -622.53,38.25 h 622.53" /><path
       id="path1546"
       style="fill:none;stroke:#d9d9d9;stroke-width:0.9528;stroke-linecap:butt;stroke-linejoin:round;stroke-miterlimit:10;stroke-dasharray:none;stroke-opacity:1"
       d="m 53.625,259.07002 h 622.53" /><path
       id="path1548"
       style="fill:none;stroke:#4472c4;stroke-width:2.8584;stroke-linecap:round;stroke-linejoin:round;stroke-miterlimit:10;stroke-dasharray:none;stroke-opacity:1"
       d="m 84.745,348.72002 62.22,-0.15 62.35,2.97 62.2,-2.97 62.19,-1.43 62.36,0.21 62.19,0.61 h 62.2 l 62.35,0.15 62.23,0.15" /><path
       id="path1550"
       style="fill:none;stroke:#ed7d31;stroke-width:2.8584;stroke-linecap:round;stroke-linejoin:round;stroke-miterlimit:10;stroke-dasharray:none;stroke-opacity:1"
       d="m 84.745,283.02002 62.22,-0.28 62.35,0.58 62.2,3.96 62.19,-4.57 62.36,4.73 62.19,-4.42 62.2,4.58 62.35,-4.58 h 62.23" /><path
       id="path1552"
       style="fill:none;stroke:#a5a5a5;stroke-width:2.8584;stroke-linecap:round;stroke-linejoin:round;stroke-miterlimit:10;stroke-dasharray:none;stroke-opacity:1"
       d="m 84.745,516.53002 62.22,-5.15 h 62.35 l 62.2,-0.3 62.19,-1.1 62.36,2.17 62.19,0.15 62.2,-1.22 62.35,1.22 62.23,-0.15" /><g
       transform="translate(-51.095,100.33002)"
       id="g1554"><g
         clip-path="url(#clipPath1560)"
         id="g1556"><text
           id="text1564"
           style="font-variant:normal;font-weight:normal;font-size:11.448px;font-family:Calibri;-inkscape-font-specification:Calibri;writing-mode:lr-tb;fill:#595959;fill-opacity:1;fill-rule:nonzero;stroke:none"
           transform="matrix(1,0,0,-1,88.32,155.45)"><tspan
             id="tspan1562"
             y="0"
             x="0">0</tspan></text></g></g><g
       transform="translate(-51.095,100.33002)"
       id="g1566"><g
         clip-path="url(#clipPath1572)"
         id="g1568"><text
           id="text1576"
           style="font-variant:normal;font-weight:normal;font-size:11.448px;font-family:Calibri;-inkscape-font-specification:Calibri;writing-mode:lr-tb;fill:#595959;fill-opacity:1;fill-rule:nonzero;stroke:none"
           transform="matrix(1,0,0,-1,65.16,193.68)"><tspan
             id="tspan1574"
             sodipodi:role="line"
             y="0"
             x="0 5.7840362 11.568072 17.352108 23.136145">20000</tspan></text></g></g><g
       transform="translate(-51.095,100.33002)"
       id="g1578"><g
         clip-path="url(#clipPath1584)"
         id="g1580"><text
           id="text1588"
           style="font-variant:normal;font-weight:normal;font-size:11.448px;font-family:Calibri;-inkscape-font-specification:Calibri;writing-mode:lr-tb;fill:#595959;fill-opacity:1;fill-rule:nonzero;stroke:none"
           transform="matrix(1,0,0,-1,65.16,231.91)"><tspan
             id="tspan1586"
             sodipodi:role="line"
             y="0"
             x="0 5.7840362 11.568072 17.352108 23.136145">40000</tspan></text></g></g><g
       transform="translate(-51.095,100.33002)"
       id="g1590"><g
         clip-path="url(#clipPath1596)"
         id="g1592"><text
           id="text1600"
           style="font-variant:normal;font-weight:normal;font-size:11.448px;font-family:Calibri;-inkscape-font-specification:Calibri;writing-mode:lr-tb;fill:#595959;fill-opacity:1;fill-rule:nonzero;stroke:none"
           transform="matrix(1,0,0,-1,65.16,270.14)"><tspan
             id="tspan1598"
             sodipodi:role="line"
             y="0"
             x="0 5.7840362 11.568072 17.352108 23.136145">60000</tspan></text></g></g><g
       transform="translate(-51.095,100.33002)"
       id="g1602"><g
         clip-path="url(#clipPath1608)"
         id="g1604"><text
           id="text1612"
           style="font-variant:normal;font-weight:normal;font-size:11.448px;font-family:Calibri;-inkscape-font-specification:Calibri;writing-mode:lr-tb;fill:#595959;fill-opacity:1;fill-rule:nonzero;stroke:none"
           transform="matrix(1,0,0,-1,65.16,308.38)"><tspan
             id="tspan1610"
             sodipodi:role="line"
             y="0"
             x="0 5.7840362 11.568072 17.352108 23.136145">80000</tspan></text></g></g><g
       transform="translate(-51.095,100.33002)"
       id="g1614"><g
         clip-path="url(#clipPath1620)"
         id="g1616"><text
           id="text1624"
           style="font-variant:normal;font-weight:normal;font-size:11.448px;font-family:Calibri;-inkscape-font-specification:Calibri;writing-mode:lr-tb;fill:#595959;fill-opacity:1;fill-rule:nonzero;stroke:none"
           transform="matrix(1,0,0,-1,59.352,346.61)"><tspan
             id="tspan1622"
             sodipodi:role="line"
             y="0"
             x="0 5.8079958 11.615992 17.423988 23.231983 29.03998">100000</tspan></text></g></g><g
       transform="translate(-51.095,100.33002)"
       id="g1626"><g
         clip-path="url(#clipPath1632)"
         id="g1628"><text
           id="text1636"
           style="font-variant:normal;font-weight:normal;font-size:11.448px;font-family:Calibri;-inkscape-font-specification:Calibri;writing-mode:lr-tb;fill:#595959;fill-opacity:1;fill-rule:nonzero;stroke:none"
           transform="matrix(1,0,0,-1,59.352,384.84)"><tspan
             id="tspan1634"
             sodipodi:role="line"
             y="0"
             x="0 5.8079958 11.615992 17.423988 23.231983 29.03998">120000</tspan></text></g></g><g
       transform="translate(-51.095,100.33002)"
       id="g1638"><g
         clip-path="url(#clipPath1644)"
         id="g1640"><text
           id="text1648"
           style="font-variant:normal;font-weight:normal;font-size:11.424px;font-family:Calibri;-inkscape-font-specification:Calibri;writing-mode:lr-tb;fill:#595959;fill-opacity:1;fill-rule:nonzero;stroke:none"
           transform="matrix(1,0,0,-1,59.352,423.07)"><tspan
             id="tspan1646"
             sodipodi:role="line"
             y="0"
             x="0 5.8079681 11.615936 17.423904 23.231873 29.039841">140000</tspan></text></g></g><g
       transform="translate(-51.095,100.33002)"
       id="g1650"><g
         clip-path="url(#clipPath1656)"
         id="g1652"><text
           id="text1660"
           style="font-variant:normal;font-weight:normal;font-size:11.424px;font-family:Calibri;-inkscape-font-specification:Calibri;writing-mode:lr-tb;fill:#595959;fill-opacity:1;fill-rule:nonzero;stroke:none"
           transform="matrix(1,0,0,-1,59.352,461.3)"><tspan
             id="tspan1658"
             sodipodi:role="line"
             y="0"
             x="0 5.8079681 11.615936 17.423904 23.231873 29.039841">160000</tspan></text></g></g><g
       transform="translate(-51.095,100.33002)"
       id="g1662"><g
         clip-path="url(#clipPath1668)"
         id="g1664"><text
           id="text1672"
           style="font-variant:normal;font-weight:normal;font-size:11.424px;font-family:Calibri;-inkscape-font-specification:Calibri;writing-mode:lr-tb;fill:#595959;fill-opacity:1;fill-rule:nonzero;stroke:none"
           transform="matrix(1,0,0,-1,132.96,140.57)"><tspan
             id="tspan1670"
             y="0"
             x="0">1</tspan></text></g></g><g
       transform="translate(-51.095,100.33002)"
       id="g1674"><g
         clip-path="url(#clipPath1680)"
         id="g1676"><text
           id="text1684"
           style="font-variant:normal;font-weight:normal;font-size:11.424px;font-family:Calibri;-inkscape-font-specification:Calibri;writing-mode:lr-tb;fill:#595959;fill-opacity:1;fill-rule:nonzero;stroke:none"
           transform="matrix(1,0,0,-1,195.24,140.57)"><tspan
             id="tspan1682"
             y="0"
             x="0">2</tspan></text></g></g><g
       transform="translate(-51.095,100.33002)"
       id="g1686"><g
         clip-path="url(#clipPath1692)"
         id="g1688"><text
           id="text1696"
           style="font-variant:normal;font-weight:normal;font-size:11.424px;font-family:Calibri;-inkscape-font-specification:Calibri;writing-mode:lr-tb;fill:#595959;fill-opacity:1;fill-rule:nonzero;stroke:none"
           transform="matrix(1,0,0,-1,257.5,140.57)"><tspan
             id="tspan1694"
             y="0"
             x="0">3</tspan></text></g></g><g
       transform="translate(-51.095,100.33002)"
       id="g1698"><g
         clip-path="url(#clipPath1704)"
         id="g1700"><text
           id="text1708"
           style="font-variant:normal;font-weight:normal;font-size:11.424px;font-family:Calibri;-inkscape-font-specification:Calibri;writing-mode:lr-tb;fill:#595959;fill-opacity:1;fill-rule:nonzero;stroke:none"
           transform="matrix(1,0,0,-1,319.75,140.57)"><tspan
             id="tspan1706"
             y="0"
             x="0">4</tspan></text></g></g><g
       transform="translate(-51.095,100.33002)"
       id="g1710"><g
         clip-path="url(#clipPath1716)"
         id="g1712"><text
           id="text1720"
           style="font-variant:normal;font-weight:normal;font-size:11.424px;font-family:Calibri;-inkscape-font-specification:Calibri;writing-mode:lr-tb;fill:#595959;fill-opacity:1;fill-rule:nonzero;stroke:none"
           transform="matrix(1,0,0,-1,382.01,140.57)"><tspan
             id="tspan1718"
             y="0"
             x="0">5</tspan></text></g></g><g
       transform="translate(-51.095,100.33002)"
       id="g1722"><g
         clip-path="url(#clipPath1728)"
         id="g1724"><text
           id="text1732"
           style="font-variant:normal;font-weight:normal;font-size:11.424px;font-family:Calibri;-inkscape-font-specification:Calibri;writing-mode:lr-tb;fill:#595959;fill-opacity:1;fill-rule:nonzero;stroke:none"
           transform="matrix(1,0,0,-1,444.29,140.57)"><tspan
             id="tspan1730"
             y="0"
             x="0">6</tspan></text></g></g><g
       transform="translate(-51.095,100.33002)"
       id="g1734"><g
         clip-path="url(#clipPath1740)"
         id="g1736"><text
           id="text1744"
           style="font-variant:normal;font-weight:normal;font-size:11.424px;font-family:Calibri;-inkscape-font-specification:Calibri;writing-mode:lr-tb;fill:#595959;fill-opacity:1;fill-rule:nonzero;stroke:none"
           transform="matrix(1,0,0,-1,506.54,140.57)"><tspan
             id="tspan1742"
             y="0"
             x="0">7</tspan></text></g></g><g
       transform="translate(-51.095,100.33002)"
       id="g1746"><g
         clip-path="url(#clipPath1752)"
         id="g1748"><text
           id="text1756"
           style="font-variant:normal;font-weight:normal;font-size:11.424px;font-family:Calibri;-inkscape-font-specification:Calibri;writing-mode:lr-tb;fill:#595959;fill-opacity:1;fill-rule:nonzero;stroke:none"
           transform="matrix(1,0,0,-1,568.8,140.57)"><tspan
             id="tspan1754"
             y="0"
             x="0">8</tspan></text></g></g><g
       transform="translate(-51.095,100.33002)"
       id="g1758"><g
         clip-path="url(#clipPath1764)"
         id="g1760"><text
           id="text1768"
           style="font-variant:normal;font-weight:normal;font-size:11.424px;font-family:Calibri;-inkscape-font-specification:Calibri;writing-mode:lr-tb;fill:#595959;fill-opacity:1;fill-rule:nonzero;stroke:none"
           transform="matrix(1,0,0,-1,631.08,140.57)"><tspan
             id="tspan1766"
             y="0"
             x="0">9</tspan></text></g></g><g
       transform="translate(-51.095,100.33002)"
       id="g1770"><g
         clip-path="url(#clipPath1776)"
         id="g1772"><text
           id="text1780"
           style="font-variant:normal;font-weight:normal;font-size:11.424px;font-family:Calibri;-inkscape-font-specification:Calibri;writing-mode:lr-tb;fill:#595959;fill-opacity:1;fill-rule:nonzero;stroke:none"
           transform="matrix(1,0,0,-1,690.43,140.57)"><tspan
             id="tspan1778"
             sodipodi:role="line"
             y="0"
             x="0 5.8079681">10</tspan></text></g></g><g
       transform="translate(-51.095,100.33002)"
       id="g1782"><g
         clip-path="url(#clipPath1788)"
         id="g1784"><text
           id="text1792"
           style="font-variant:normal;font-weight:normal;font-size:17.832px;font-family:Calibri;-inkscape-font-specification:Calibri;writing-mode:lr-tb;fill:#595959;fill-opacity:1;fill-rule:nonzero;stroke:none"
           transform="matrix(1,0,0,-1,174.26,485.18)"><tspan
             id="tspan1790"
             sodipodi:role="line"
             y="0"
             x="0 8.1848879 17.065224 25.606752 31.509144 38.980751 48.271225 52.229927 58.007496 66.549026 70.650383 74.751747 83.560753 89.784119 93.814156 102.28436 109.75596 115.72968 121.61424 130.49458 137.46689 144.43919 148.46924 154.35379 163.64426 172.18579 181.45844 185.54196 194.83243 203.37396 217.51474 226.39507 230.42511 237.57573 241.67709 245.77846 254.31998 268.49643 275.64706">Search taller actress than name &quot;liam&quot; </tspan></text></g></g><g
       transform="translate(-51.095,100.33002)"
       id="g1794"><g
         clip-path="url(#clipPath1800)"
         id="g1796"><text
           id="text1804"
           style="font-style:italic;font-variant:normal;font-weight:normal;font-size:15.24px;font-family:Calibri;-inkscape-font-specification:Calibri-Italic;writing-mode:lr-tb;fill:#595959;fill-opacity:1;fill-rule:nonzero;stroke:none"
           transform="matrix(1,0,0,-1,454.2,485.18)"><tspan
             id="tspan1802"
             sodipodi:role="line"
             y="0"
             x="0 3.5051999 10.78992 16.718281 22.646641 26.014681 29.51988 35.448238 38.938202 46.710602 53.858158 58.87212 63.886082 71.170799 76.398117 79.720444 84.277199 96.332039 99.837242 103.34244 106.84764 110.35284 116.2812 123.56592 129.79909 137.6172 145.34389 153.11629 159.04465">less is better (milliseconds)</tspan></text></g></g><path
       id="path1806"
       style="fill:none;stroke:#4472c4;stroke-width:2.8584;stroke-linecap:round;stroke-linejoin:round;stroke-miterlimit:10;stroke-dasharray:none;stroke-opacity:1"
       d="m 159.425,218.88002 h 24.39" /><g
       transform="translate(-51.095,100.33002)"
       id="g1808"><g
         clip-path="url(#clipPath1814)"
         id="g1810"><text
           id="text1818"
           style="font-variant:normal;font-weight:normal;font-size:11.448px;font-family:Calibri;-inkscape-font-specification:Calibri;writing-mode:lr-tb;fill:#595959;fill-opacity:1;fill-rule:nonzero;stroke:none"
           transform="matrix(1,0,0,-1,237.53,115.25)"><tspan
             id="tspan1816"
             sodipodi:role="line"
             y="0"
             x="0 7.3152719 12.798864 16.576704 19.301329 24.475824 30.119688 32.706936 39.26664 45.345528 51.275593 54.778679 62.357258 68.310219">Native Add-Ons</tspan></text></g></g><path
       id="path1820"
       style="fill:none;stroke:#ed7d31;stroke-width:2.8584;stroke-linecap:round;stroke-linejoin:round;stroke-miterlimit:10;stroke-dasharray:none;stroke-opacity:1"
       d="m 280.095,218.88002 h 24.39" /><g
       transform="translate(-51.095,100.33002)"
       id="g1822"><g
         clip-path="url(#clipPath1828)"
         id="g1824"><text
           id="text1832"
           style="font-variant:normal;font-weight:normal;font-size:11.448px;font-family:Calibri;-inkscape-font-specification:Calibri;writing-mode:lr-tb;fill:#595959;fill-opacity:1;fill-rule:nonzero;stroke:none"
           transform="matrix(1,0,0,-1,358.2,115.25)"><tspan
             id="tspan1830"
             sodipodi:role="line"
             y="0"
             x="0 7.3152719 12.798864 16.633944 19.381464 24.55596 30.199823 32.787071 39.346775 45.425663 51.378624 54.881714 62.506081 68.459038 72.900864 75.488113 78.991203 81.578445 87.680229 93.770569 99.723526 104.61182 110.56478 114.68607 118.64707 124.29094 130.36983">Native Add-Ons - Concurrent</tspan></text></g></g><path
       id="path1834"
       style="fill:none;stroke:#a5a5a5;stroke-width:2.8584;stroke-linecap:round;stroke-linejoin:round;stroke-miterlimit:10;stroke-dasharray:none;stroke-opacity:1"
       d="m 461.925,218.88002 h 24.39" /><g
       transform="translate(-51.095,100.33002)"
       id="g1836"><g
         clip-path="url(#clipPath1842)"
         id="g1838"><text
           id="text1846"
           style="font-variant:normal;font-weight:normal;font-size:11.448px;font-family:Calibri;-inkscape-font-specification:Calibri;writing-mode:lr-tb;fill:#595959;fill-opacity:1;fill-rule:nonzero;stroke:none"
           transform="matrix(1,0,0,-1,540.05,115.25)"><tspan
             id="tspan1844"
             sodipodi:role="line"
             y="0"
             x="0 3.651912 9.1355038 14.344344 19.827936 25.025328 29.913624 33.908978 36.484776 42.598007">JavaScript</tspan></text></g></g></g></svg>
