<svg version="1.1" xmlns="http://www.w3.org/2000/svg" xmlns:xlink="http://www.w3.org/1999/xlink" width="563.6962890625" height="300"><defs/><g><g transform="translate(-4,-142) scale(1,1)"><rect fill="#C0C0C0" stroke="none" x="71" y="407" width="58.130859375" height="32" opacity="0.2"/></g><g transform="translate(-4,-142) scale(1,1)"><rect fill="#ffffff" stroke="none" x="64" y="400" width="58.130859375" height="32"/></g><g transform="translate(-4,-142) scale(1,1)"><path fill="none" stroke="#000000" d="M 64 400 L 122.130859375 400 L 122.130859375 432 L 64 432 L 64 400 Z Z" stroke-miterlimit="10"/></g><g transform="translate(-4,-142) scale(1,1)"><g><path fill="none" stroke="none"/><text fill="#000000" stroke="none" font-family="Arial" font-size="13px" font-style="normal" font-weight="bold" text-decoration="none" x="70.305908203125" y="417.5">champs</text></g></g><g transform="translate(-4,-142) scale(1,1)"><rect fill="#C0C0C0" stroke="none" x="303" y="263" width="61.7490234375" height="32" opacity="0.2"/></g><g transform="translate(-4,-142) scale(1,1)"><rect fill="#ffffff" stroke="none" x="296" y="256" width="61.7490234375" height="32"/></g><g transform="translate(-4,-142) scale(1,1)"><path fill="none" stroke="#000000" d="M 296 256 L 357.7490234375 256 L 357.7490234375 288 L 296 288 L 296 256 Z Z" stroke-miterlimit="10"/></g><g transform="translate(-4,-142) scale(1,1)"><g><path fill="none" stroke="none"/><text fill="#000000" stroke="none" font-family="Arial" font-size="13px" font-style="normal" font-weight="bold" text-decoration="none" x="302.30908203125" y="273.5">matches</text></g></g><g transform="translate(-4,-142) scale(1,1)"><rect fill="#C0C0C0" stroke="none" x="63" y="263" width="82.68359375" height="32" opacity="0.2"/></g><g transform="translate(-4,-142) scale(1,1)"><rect fill="#ffffff" stroke="none" x="56" y="256" width="82.68359375" height="32"/></g><g transform="translate(-4,-142) scale(1,1)"><path fill="none" stroke="#000000" d="M 56 256 L 138.68359375 256 L 138.68359375 288 L 56 288 L 56 256 Z Z" stroke-miterlimit="10"/></g><g transform="translate(-4,-142) scale(1,1)"><g><path fill="none" stroke="none"/><text fill="#000000" stroke="none" font-family="Arial" font-size="13px" font-style="normal" font-weight="bold" text-decoration="none" x="64.102294921875" y="273.5">participants</text></g></g><g transform="translate(-4,-142) scale(1,1)"><rect fill="#C0C0C0" stroke="none" x="79" y="159" width="52.341796875" height="32" opacity="0.2"/></g><g transform="translate(-4,-142) scale(1,1)"><rect fill="#ffffff" stroke="none" x="72" y="152" width="52.341796875" height="32"/></g><g transform="translate(-4,-142) scale(1,1)"><path fill="none" stroke="#000000" d="M 72 152 L 124.341796875 152 L 124.341796875 184 L 72 184 L 72 152 Z Z" stroke-miterlimit="10"/></g><g transform="translate(-4,-142) scale(1,1)"><g><path fill="none" stroke="none"/><text fill="#000000" stroke="none" font-family="Arial" font-size="13px" font-style="normal" font-weight="bold" text-decoration="none" x="84.444091796875" y="169.5">stats</text></g></g><g transform="translate(-4,-142) scale(1,1)"><rect fill="#C0C0C0" stroke="none" x="303" y="407" width="69.68994140625" height="32" opacity="0.2"/></g><g transform="translate(-4,-142) scale(1,1)"><rect fill="#ffffff" stroke="none" x="296" y="400" width="69.68994140625" height="32"/></g><g transform="translate(-4,-142) scale(1,1)"><path fill="none" stroke="#000000" d="M 296 400 L 365.68994140625 400 L 365.68994140625 432 L 296 432 L 296 400 Z Z" stroke-miterlimit="10"/></g><g transform="translate(-4,-142) scale(1,1)"><g><path fill="none" stroke="none"/><text fill="#000000" stroke="none" font-family="Arial" font-size="13px" font-style="normal" font-weight="bold" text-decoration="none" x="302.299560546875" y="417.5">teambans</text></g></g><g transform="translate(-4,-142) scale(1,1)"><rect fill="#C0C0C0" stroke="none" x="495" y="263" width="69.6962890625" height="32" opacity="0.2"/></g><g transform="translate(-4,-142) scale(1,1)"><rect fill="#ffffff" stroke="none" x="488" y="256" width="69.6962890625" height="32"/></g><g transform="translate(-4,-142) scale(1,1)"><path fill="none" stroke="#000000" d="M 488 256 L 557.6962890625 256 L 557.6962890625 288 L 488 288 L 488 256 Z Z" stroke-miterlimit="10"/></g><g transform="translate(-4,-142) scale(1,1)"><g><path fill="none" stroke="none"/><text fill="#000000" stroke="none" font-family="Arial" font-size="13px" font-style="normal" font-weight="bold" text-decoration="none" x="494.6708984375" y="273.5">teamstats</text></g></g><g transform="translate(-4,-142) scale(1,1)"><path fill="none" stroke="#000000" d="M 296 272 L 139 272" stroke-miterlimit="10"/></g><g transform="translate(-4,-142) scale(1,1)"><path fill="none" stroke="#000000" d="M 153 272 L 139 265" stroke-miterlimit="10"/></g><g transform="translate(-4,-142) scale(1,1)"><path fill="none" stroke="#000000" d="M 153 272 L 139 279" stroke-miterlimit="10"/></g><g transform="translate(-4,-142) scale(1,1)"><path fill="#FFFFFF" stroke="none" d="M 154 272 C 154 268.1340064 157.1340064 265 161 265 C 164.8659936 265 168 268.1340064 168 272 C 168 275.8659936 164.8659936 279 161 279 C 157.1340064 279 154 275.8659936 154 272 Z"/></g><g transform="translate(-4,-142) scale(1,1)"><path fill="none" stroke="#000000" d="M 154 272 C 154 268.1340064 157.1340064 265 161 265 C 164.8659936 265 168 268.1340064 168 272 C 168 275.8659936 164.8659936 279 161 279 C 157.1340064 279 154 275.8659936 154 272 Z" stroke-miterlimit="10"/></g><g transform="translate(-4,-142) scale(1,1)"><path fill="none" stroke="#000000" d="M 289 279 L 289 265" stroke-miterlimit="10"/></g><g transform="translate(-4,-142) scale(1,1)"><path fill="none" stroke="#000000" d="M 282 279 L 282 265" stroke-miterlimit="10"/></g><g transform="translate(-4,-142) scale(1,1)"><g><path fill="none" stroke="none"/><text fill="#000000" stroke="none" font-family="Arial" font-size="13px" font-style="normal" font-weight="normal" text-decoration="none" x="192.983154296875" y="293.5">matchid</text></g></g><g transform="translate(-4,-142) scale(1,1)"><g><path fill="none" stroke="none"/><text fill="#000000" stroke="none" font-family="Arial" font-size="13px" font-style="normal" font-weight="normal" text-decoration="none" x="269.5" y="292.5"></text></g></g><g transform="translate(-4,-142) scale(1,1)"><g><path fill="none" stroke="none"/><text fill="#000000" stroke="none" font-family="Arial" font-size="13px" font-style="normal" font-weight="normal" text-decoration="none" x="163.5" y="292.5"></text></g></g><g transform="translate(-4,-142) scale(1,1)"><path fill="none" stroke="#000000" d="M 87 400 L 87 288" stroke-miterlimit="10"/></g><g transform="translate(-4,-142) scale(1,1)"><path fill="none" stroke="#000000" d="M 87 302 L 94 288" stroke-miterlimit="10"/></g><g transform="translate(-4,-142) scale(1,1)"><path fill="none" stroke="#000000" d="M 87 302 L 80 288" stroke-miterlimit="10"/></g><g transform="translate(-4,-142) scale(1,1)"><path fill="#FFFFFF" stroke="none" d="M 80 310 C 80 306.1340064 83.1340064 303 87 303 C 90.8659936 303 94 306.1340064 94 310 C 94 313.8659936 90.8659936 317 87 317 C 83.1340064 317 80 313.8659936 80 310 Z"/></g><g transform="translate(-4,-142) scale(1,1)"><path fill="none" stroke="#000000" d="M 80 310 C 80 306.1340064 83.1340064 303 87 303 C 90.8659936 303 94 306.1340064 94 310 C 94 313.8659936 90.8659936 317 87 317 C 83.1340064 317 80 313.8659936 80 310 Z" stroke-miterlimit="10"/></g><g transform="translate(-4,-142) scale(1,1)"><path fill="none" stroke="#000000" d="M 80 393 L 94 393" stroke-miterlimit="10"/></g><g transform="translate(-4,-142) scale(1,1)"><path fill="none" stroke="#000000" d="M 80 386 L 94 386" stroke-miterlimit="10"/></g><g transform="translate(-4,-142) scale(1,1)"><g><path fill="none" stroke="none"/><text fill="#000000" stroke="none" font-family="Arial" font-size="13px" font-style="normal" font-weight="normal" text-decoration="none" x="13.5" y="349.5">championid</text></g></g><g transform="translate(-4,-142) scale(1,1)"><g><path fill="none" stroke="none"/><text fill="#000000" stroke="none" font-family="Arial" font-size="13px" font-style="normal" font-weight="normal" text-decoration="none" x="71.5" y="380.5"></text></g></g><g transform="translate(-4,-142) scale(1,1)"><g><path fill="none" stroke="none"/><text fill="#000000" stroke="none" font-family="Arial" font-size="13px" font-style="normal" font-weight="normal" text-decoration="none" x="71.5" y="319.5"></text></g></g><g transform="translate(-4,-142) scale(1,1)"><path fill="none" stroke="#000000" d="M 358 272 L 488 272" stroke-miterlimit="10"/></g><g transform="translate(-4,-142) scale(1,1)"><path fill="none" stroke="#000000" d="M 474 272 L 488 279" stroke-miterlimit="10"/></g><g transform="translate(-4,-142) scale(1,1)"><path fill="none" stroke="#000000" d="M 474 272 L 488 265" stroke-miterlimit="10"/></g><g transform="translate(-4,-142) scale(1,1)"><path fill="#FFFFFF" stroke="none" d="M 459 272 C 459 268.1340064 462.1340064 265 466 265 C 469.8659936 265 473 268.1340064 473 272 C 473 275.8659936 469.8659936 279 466 279 C 462.1340064 279 459 275.8659936 459 272 Z"/></g><g transform="translate(-4,-142) scale(1,1)"><path fill="none" stroke="#000000" d="M 459 272 C 459 268.1340064 462.1340064 265 466 265 C 469.8659936 265 473 268.1340064 473 272 C 473 275.8659936 469.8659936 279 466 279 C 462.1340064 279 459 275.8659936 459 272 Z" stroke-miterlimit="10"/></g><g transform="translate(-4,-142) scale(1,1)"><path fill="none" stroke="#000000" d="M 365 265 L 365 279" stroke-miterlimit="10"/></g><g transform="translate(-4,-142) scale(1,1)"><path fill="none" stroke="#000000" d="M 372 265 L 372 279" stroke-miterlimit="10"/></g><g transform="translate(-4,-142) scale(1,1)"><g><path fill="none" stroke="none"/><text fill="#000000" stroke="none" font-family="Arial" font-size="13px" font-style="normal" font-weight="normal" text-decoration="none" x="399.5" y="259.5">matchid</text></g></g><g transform="translate(-4,-142) scale(1,1)"><g><path fill="none" stroke="none"/><text fill="#000000" stroke="none" font-family="Arial" font-size="13px" font-style="normal" font-weight="normal" text-decoration="none" x="382.5" y="263.5"></text></g></g><g transform="translate(-4,-142) scale(1,1)"><g><path fill="none" stroke="none"/><text fill="#000000" stroke="none" font-family="Arial" font-size="13px" font-style="normal" font-weight="normal" text-decoration="none" x="461.5" y="263.5"></text></g></g><g transform="translate(-4,-142) scale(1,1)"><path fill="none" stroke="#000000" d="M 330 288 L 330 400" stroke-miterlimit="10"/></g><g transform="translate(-4,-142) scale(1,1)"><path fill="none" stroke="#000000" d="M 330 386 L 323 400" stroke-miterlimit="10"/></g><g transform="translate(-4,-142) scale(1,1)"><path fill="none" stroke="#000000" d="M 330 386 L 337 400" stroke-miterlimit="10"/></g><g transform="translate(-4,-142) scale(1,1)"><path fill="#FFFFFF" stroke="none" d="M 323 378 C 323 374.1340064 326.1340064 371 330 371 C 333.8659936 371 337 374.1340064 337 378 C 337 381.8659936 333.8659936 385 330 385 C 326.1340064 385 323 381.8659936 323 378 Z"/></g><g transform="translate(-4,-142) scale(1,1)"><path fill="none" stroke="#000000" d="M 323 378 C 323 374.1340064 326.1340064 371 330 371 C 333.8659936 371 337 374.1340064 337 378 C 337 381.8659936 333.8659936 385 330 385 C 326.1340064 385 323 381.8659936 323 378 Z" stroke-miterlimit="10"/></g><g transform="translate(-4,-142) scale(1,1)"><path fill="none" stroke="#000000" d="M 337 295 L 323 295" stroke-miterlimit="10"/></g><g transform="translate(-4,-142) scale(1,1)"><path fill="none" stroke="#000000" d="M 337 302 L 323 302" stroke-miterlimit="10"/></g><g transform="translate(-4,-142) scale(1,1)"><g><path fill="none" stroke="none"/><text fill="#000000" stroke="none" font-family="Arial" font-size="13px" font-style="normal" font-weight="normal" text-decoration="none" x="271.5" y="347.5">matchid</text></g></g><g transform="translate(-4,-142) scale(1,1)"><g><path fill="none" stroke="none"/><text fill="#000000" stroke="none" font-family="Arial" font-size="13px" font-style="normal" font-weight="normal" text-decoration="none" x="344.5" y="319.5"></text></g></g><g transform="translate(-4,-142) scale(1,1)"><g><path fill="none" stroke="none"/><text fill="#000000" stroke="none" font-family="Arial" font-size="13px" font-style="normal" font-weight="normal" text-decoration="none" x="344.5" y="380.5"></text></g></g><g transform="translate(-4,-142) scale(1,1)"><path fill="none" stroke="#000000" d="M 122 419 L 296 419" stroke-miterlimit="10"/></g><g transform="translate(-4,-142) scale(1,1)"><path fill="none" stroke="#000000" d="M 282 419 L 296 426" stroke-miterlimit="10"/></g><g transform="translate(-4,-142) scale(1,1)"><path fill="none" stroke="#000000" d="M 282 419 L 296 412" stroke-miterlimit="10"/></g><g transform="translate(-4,-142) scale(1,1)"><path fill="#FFFFFF" stroke="none" d="M 267 419 C 267 415.1340064 270.1340064 412 274 412 C 277.8659936 412 281 415.1340064 281 419 C 281 422.8659936 277.8659936 426 274 426 C 270.1340064 426 267 422.8659936 267 419 Z"/></g><g transform="translate(-4,-142) scale(1,1)"><path fill="none" stroke="#000000" d="M 267 419 C 267 415.1340064 270.1340064 412 274 412 C 277.8659936 412 281 415.1340064 281 419 C 281 422.8659936 277.8659936 426 274 426 C 270.1340064 426 267 422.8659936 267 419 Z" stroke-miterlimit="10"/></g><g transform="translate(-4,-142) scale(1,1)"><path fill="none" stroke="#000000" d="M 129 412 L 129 426" stroke-miterlimit="10"/></g><g transform="translate(-4,-142) scale(1,1)"><path fill="none" stroke="#000000" d="M 136 412 L 136 426" stroke-miterlimit="10"/></g><g transform="translate(-4,-142) scale(1,1)"><g><path fill="none" stroke="none"/><text fill="#000000" stroke="none" font-family="Arial" font-size="13px" font-style="normal" font-weight="normal" text-decoration="none" x="166.5" y="396.5">championid</text></g></g><g transform="translate(-4,-142) scale(1,1)"><g><path fill="none" stroke="none"/><text fill="#000000" stroke="none" font-family="Arial" font-size="13px" font-style="normal" font-weight="normal" text-decoration="none" x="269.5" y="410.5"></text></g></g><g transform="translate(-4,-142) scale(1,1)"><path fill="none" stroke="#000000" d="M 97 256 L 97 184" stroke-miterlimit="10"/></g><g transform="translate(-4,-142) scale(1,1)"><path fill="none" stroke="#000000" d="M 97 198 L 104 184" stroke-miterlimit="10"/></g><g transform="translate(-4,-142) scale(1,1)"><path fill="none" stroke="#000000" d="M 97 198 L 90 184" stroke-miterlimit="10"/></g><g transform="translate(-4,-142) scale(1,1)"><path fill="#FFFFFF" stroke="none" d="M 90 206 C 90 202.1340064 93.1340064 199 97 199 C 100.8659936 199 104 202.1340064 104 206 C 104 209.8659936 100.8659936 213 97 213 C 93.1340064 213 90 209.8659936 90 206 Z"/></g><g transform="translate(-4,-142) scale(1,1)"><path fill="none" stroke="#000000" d="M 90 206 C 90 202.1340064 93.1340064 199 97 199 C 100.8659936 199 104 202.1340064 104 206 C 104 209.8659936 100.8659936 213 97 213 C 93.1340064 213 90 209.8659936 90 206 Z" stroke-miterlimit="10"/></g><g transform="translate(-4,-142) scale(1,1)"><path fill="none" stroke="#000000" d="M 90 249 L 104 249" stroke-miterlimit="10"/></g><g transform="translate(-4,-142) scale(1,1)"><path fill="none" stroke="#000000" d="M 90 242 L 104 242" stroke-miterlimit="10"/></g><g transform="translate(-4,-142) scale(1,1)"><g><path fill="none" stroke="none"/><text fill="#000000" stroke="none" font-family="Arial" font-size="13px" font-style="normal" font-weight="normal" text-decoration="none" x="117.5" y="224.5">participantid</text></g></g><g transform="translate(-4,-142) scale(1,1)"><g><path fill="none" stroke="none"/><text fill="#000000" stroke="none" font-family="Arial" font-size="13px" font-style="normal" font-weight="normal" text-decoration="none" x="81.5" y="236.5"></text></g></g><g transform="translate(-4,-142) scale(1,1)"><g><path fill="none" stroke="none"/><text fill="#000000" stroke="none" font-family="Arial" font-size="13px" font-style="normal" font-weight="normal" text-decoration="none" x="81.5" y="215.5"></text></g></g></g></svg>