<svg version="1.1" xmlns="http://www.w3.org/2000/svg" xmlns:xlink="http://www.w3.org/1999/xlink" width="367.8017578125" height="177"><defs/><g><g transform="translate(-62,-25) scale(1,1)"><rect fill="#C0C0C0" stroke="none" x="79" y="47" width="92.08447265625" height="32" opacity="0.2"/></g><g transform="translate(-62,-25) scale(1,1)"><rect fill="#ffffff" stroke="none" x="72" y="40" width="92.08447265625" height="32"/></g><g transform="translate(-62,-25) scale(1,1)"><path fill="none" stroke="#000000" d="M 72 40 L 164.08447265625 40 L 164.08447265625 72 L 72 72 L 72 40 Z Z" stroke-miterlimit="10"/></g><g transform="translate(-62,-25) scale(1,1)"><g><path fill="none" stroke="none"/><text fill="#000000" stroke="none" font-family="Arial" font-size="13px" font-style="normal" font-weight="bold" text-decoration="none" x="79.75" y="57.5">imdb_movies</text></g></g><g transform="translate(-62,-25) scale(1,1)"><rect fill="#C0C0C0" stroke="none" x="327" y="167" width="88.47265625" height="32" opacity="0.2"/></g><g transform="translate(-62,-25) scale(1,1)"><rect fill="#ffffff" stroke="none" x="320" y="160" width="88.47265625" height="32"/></g><g transform="translate(-62,-25) scale(1,1)"><path fill="none" stroke="#000000" d="M 320 160 L 408.47265625 160 L 408.47265625 192 L 320 192 L 320 160 Z Z" stroke-miterlimit="10"/></g><g transform="translate(-62,-25) scale(1,1)"><g><path fill="none" stroke="none"/><text fill="#000000" stroke="none" font-family="Arial" font-size="13px" font-style="normal" font-weight="bold" text-decoration="none" x="327.023193359375" y="177.5">imdb_names</text></g></g><g transform="translate(-62,-25) scale(1,1)"><rect fill="#C0C0C0" stroke="none" x="87" y="167" width="90.62451171875" height="32" opacity="0.2"/></g><g transform="translate(-62,-25) scale(1,1)"><rect fill="#ffffff" stroke="none" x="80" y="160" width="90.62451171875" height="32"/></g><g transform="translate(-62,-25) scale(1,1)"><path fill="none" stroke="#000000" d="M 80 160 L 170.62451171875 160 L 170.62451171875 192 L 80 192 L 80 160 Z Z" stroke-miterlimit="10"/></g><g transform="translate(-62,-25) scale(1,1)"><g><path fill="none" stroke="none"/><text fill="#000000" stroke="none" font-family="Arial" font-size="13px" font-style="normal" font-weight="bold" text-decoration="none" x="88.09912109375" y="177.5">imdb_ratings</text></g></g><g transform="translate(-62,-25) scale(1,1)"><rect fill="#C0C0C0" stroke="none" x="295" y="47" width="131.8017578125" height="32" opacity="0.2"/></g><g transform="translate(-62,-25) scale(1,1)"><rect fill="#ffffff" stroke="none" x="288" y="40" width="131.8017578125" height="32"/></g><g transform="translate(-62,-25) scale(1,1)"><path fill="none" stroke="#000000" d="M 288 40 L 419.8017578125 40 L 419.8017578125 72 L 288 72 L 288 40 Z Z" stroke-miterlimit="10"/></g><g transform="translate(-62,-25) scale(1,1)"><g><path fill="none" stroke="none"/><text fill="#000000" stroke="none" font-family="Arial" font-size="13px" font-style="normal" font-weight="bold" text-decoration="none" x="298.260498046875" y="57.5">imdb_title_prinipals</text></g></g><g transform="translate(-62,-25) scale(1,1)"><path fill="none" stroke="#000000" d="M 120 72 L 120 160" stroke-miterlimit="10"/></g><g transform="translate(-62,-25) scale(1,1)"><path fill="none" stroke="#000000" d="M 120 146 L 113 160" stroke-miterlimit="10"/></g><g transform="translate(-62,-25) scale(1,1)"><path fill="none" stroke="#000000" d="M 120 146 L 127 160" stroke-miterlimit="10"/></g><g transform="translate(-62,-25) scale(1,1)"><path fill="#FFFFFF" stroke="none" d="M 113 138 C 113 134.1340064 116.1340064 131 120 131 C 123.8659936 131 127 134.1340064 127 138 C 127 141.8659936 123.8659936 145 120 145 C 116.1340064 145 113 141.8659936 113 138 Z"/></g><g transform="translate(-62,-25) scale(1,1)"><path fill="none" stroke="#000000" d="M 113 138 C 113 134.1340064 116.1340064 131 120 131 C 123.8659936 131 127 134.1340064 127 138 C 127 141.8659936 123.8659936 145 120 145 C 116.1340064 145 113 141.8659936 113 138 Z" stroke-miterlimit="10"/></g><g transform="translate(-62,-25) scale(1,1)"><path fill="none" stroke="#000000" d="M 127 79 L 113 79" stroke-miterlimit="10"/></g><g transform="translate(-62,-25) scale(1,1)"><path fill="none" stroke="#000000" d="M 127 86 L 113 86" stroke-miterlimit="10"/></g><g transform="translate(-62,-25) scale(1,1)"><g><path fill="none" stroke="none"/><text fill="#000000" stroke="none" font-family="Arial" font-size="13px" font-style="normal" font-weight="normal" text-decoration="none" x="134.5" y="103.5"></text></g></g><g transform="translate(-62,-25) scale(1,1)"><g><path fill="none" stroke="none"/><text fill="#000000" stroke="none" font-family="Arial" font-size="13px" font-style="normal" font-weight="normal" text-decoration="none" x="134.5" y="140.5"></text></g></g><g transform="translate(-62,-25) scale(1,1)"><path fill="none" stroke="#000000" d="M 164 56 L 288 56" stroke-miterlimit="10"/></g><g transform="translate(-62,-25) scale(1,1)"><path fill="none" stroke="#000000" d="M 274 56 L 288 63" stroke-miterlimit="10"/></g><g transform="translate(-62,-25) scale(1,1)"><path fill="none" stroke="#000000" d="M 274 56 L 288 49" stroke-miterlimit="10"/></g><g transform="translate(-62,-25) scale(1,1)"><path fill="#FFFFFF" stroke="none" d="M 259 56 C 259 52.1340064 262.1340064 49 266 49 C 269.8659936 49 273 52.1340064 273 56 C 273 59.8659936 269.8659936 63 266 63 C 262.1340064 63 259 59.8659936 259 56 Z"/></g><g transform="translate(-62,-25) scale(1,1)"><path fill="none" stroke="#000000" d="M 259 56 C 259 52.1340064 262.1340064 49 266 49 C 269.8659936 49 273 52.1340064 273 56 C 273 59.8659936 269.8659936 63 266 63 C 262.1340064 63 259 59.8659936 259 56 Z" stroke-miterlimit="10"/></g><g transform="translate(-62,-25) scale(1,1)"><path fill="none" stroke="#000000" d="M 171 49 L 171 63" stroke-miterlimit="10"/></g><g transform="translate(-62,-25) scale(1,1)"><path fill="none" stroke="#000000" d="M 178 49 L 178 63" stroke-miterlimit="10"/></g><g transform="translate(-62,-25) scale(1,1)"><g><path fill="none" stroke="none"/><text fill="#000000" stroke="none" font-family="Arial" font-size="13px" font-style="normal" font-weight="normal" text-decoration="none" x="188.5" y="47.5"></text></g></g><g transform="translate(-62,-25) scale(1,1)"><g><path fill="none" stroke="none"/><text fill="#000000" stroke="none" font-family="Arial" font-size="13px" font-style="normal" font-weight="normal" text-decoration="none" x="261.5" y="47.5"></text></g></g><g transform="translate(-62,-25) scale(1,1)"><path fill="none" stroke="#000000" d="M 360 160 L 360 72" stroke-miterlimit="10"/></g><g transform="translate(-62,-25) scale(1,1)"><path fill="none" stroke="#000000" d="M 360 86 L 367 72" stroke-miterlimit="10"/></g><g transform="translate(-62,-25) scale(1,1)"><path fill="none" stroke="#000000" d="M 360 86 L 353 72" stroke-miterlimit="10"/></g><g transform="translate(-62,-25) scale(1,1)"><path fill="#FFFFFF" stroke="none" d="M 353 94 C 353 90.1340064 356.1340064 87 360 87 C 363.8659936 87 367 90.1340064 367 94 C 367 97.8659936 363.8659936 101 360 101 C 356.1340064 101 353 97.8659936 353 94 Z"/></g><g transform="translate(-62,-25) scale(1,1)"><path fill="none" stroke="#000000" d="M 353 94 C 353 90.1340064 356.1340064 87 360 87 C 363.8659936 87 367 90.1340064 367 94 C 367 97.8659936 363.8659936 101 360 101 C 356.1340064 101 353 97.8659936 353 94 Z" stroke-miterlimit="10"/></g><g transform="translate(-62,-25) scale(1,1)"><path fill="none" stroke="#000000" d="M 353 153 L 367 153" stroke-miterlimit="10"/></g><g transform="translate(-62,-25) scale(1,1)"><path fill="none" stroke="#000000" d="M 353 146 L 367 146" stroke-miterlimit="10"/></g><g transform="translate(-62,-25) scale(1,1)"><g><path fill="none" stroke="none"/><text fill="#000000" stroke="none" font-family="Arial" font-size="13px" font-style="normal" font-weight="normal" text-decoration="none" x="344.5" y="140.5"></text></g></g><g transform="translate(-62,-25) scale(1,1)"><g><path fill="none" stroke="none"/><text fill="#000000" stroke="none" font-family="Arial" font-size="13px" font-style="normal" font-weight="normal" text-decoration="none" x="344.5" y="103.5"></text></g></g></g></svg>